SplineFontDB: 3.0
FontName: Untitled1
FullName: Untitled1
FamilyName: Untitled1
Weight: Regular
Copyright: Copyright (c) 2018, Yuansheng Zhao
UComments: "2018-4-20: Created with FontForge (http://fontforge.org)"
Version: 001.000
ItalicAngle: 0
UnderlinePosition: -100
UnderlineWidth: 50
Ascent: 800
Descent: 200
InvalidEm: 0
LayerCount: 2
Layer: 0 0 "Back" 1
Layer: 1 0 "Fore" 0
XUID: [1021 70 263418660 21896]
OS2Version: 0
OS2_WeightWidthSlopeOnly: 0
OS2_UseTypoMetrics: 1
CreationTime: 1524202099
ModificationTime: 1524718900
OS2TypoAscent: 0
OS2TypoAOffset: 1
OS2TypoDescent: 0
OS2TypoDOffset: 1
OS2TypoLinegap: 0
OS2WinAscent: 0
OS2WinAOffset: 1
OS2WinDescent: 0
OS2WinDOffset: 1
HheadAscent: 0
HheadAOffset: 1
HheadDescent: 0
HheadDOffset: 1
OS2Vendor: 'PfEd'
DEI: 91125
Encoding: UnicodeFull
Compacted: 1
UnicodeInterp: none
NameList: AGL For New Fonts
DisplaySize: -48
AntiAlias: 1
FitToEm: 0
WinInfo: 0 27 9
BeginChars: 1114112 104

StartChar: uni210A
Encoding: 8458 8458 0
Width: 688
Flags: HW
HStem: -290 31<137.531 273.085> -198 27<441.557 577.893> -143 27<175.215 348.083> -11 30<230.997 313.929> 174 27<35.6726 145.265> 384 32<388.734 493.054>
VStem: 84 37<-244.603 -176.73> 157 63<28.5395 168.872>
LayerCount: 2
Fore
SplineSet
541 354 m 0
 546 341 552 365 554 369 c 0
 564 392 594 405 618 405 c 0
 626 405 631 395 627 386 c 0
 563 225 484 22 420 -138 c 0
 418 -144 419 -148 425 -151 c 0
 452 -163 482 -171 511 -171 c 3
 541 -171 579 -163 606 -142 c 0
 611 -138 615 -140 615 -145 c 0
 615 -157 611 -171 600 -177 c 0
 567 -195 539 -198 511 -198 c 3
 480 -198 442 -191 414 -179 c 0
 408 -176 403 -178 400 -184 c 0
 358 -259 297 -290 220 -290 c 3
 148 -290 84 -271 84 -210 c 3
 84 -137 199 -116 266 -116 c 3
 283 -116 325 -120 349 -126 c 0
 355 -128 360 -126 363 -120 c 0
 394 -44 430 54 449 103 c 0
 451 109 451 109 447 104 c 0
 390 33 325 -11 252 -11 c 3
 188 -11 157 43 157 113 c 0
 157 136 160 161 167 186 c 0
 169 192 168 194 162 190 c 0
 144 179 125 174 101 174 c 3
 82 174 62 177 43 184 c 0
 34 188 30 200 30 209 c 0
 30 212 33 213 37 212 c 0
 56 205 75 201 93 201 c 3
 150 201 186 242 212 281 c 0
 273 372 368 416 447 416 c 0
 490 416 526 392 541 354 c 0
271 19 m 3
 352 19 515 222 515 322 c 3
 515 356 485 384 456 384 c 0
 399 384 339 358 279 247 c 0
 230 157 220 110 220 73 c 3
 220 36 233 19 271 19 c 3
345 -166 m 0
 348 -160 347 -156 341 -154 c 0
 316 -146 279 -143 261 -143 c 3
 198 -143 121 -161 121 -217 c 3
 121 -245 158 -259 208 -259 c 3
 246 -259 302 -247 345 -166 c 0
EndSplineSet
EndChar

StartChar: uni210B
Encoding: 8459 8459 1
Width: 816
Flags: HW
HStem: -12 30<88.195 157.905 509.3 592.284> 379 30<158.218 269.376> 475 20G<312.5 344 594.5 628> 525 51<396.667 472.774> 604 52<151.827 296.167> 626 30<814.238 868.93>
VStem: 53 33<17.7187 99.7186> 73 41<444.881 564.283> 431 70<23.7331 137.001> 877 33<540.126 619.569>
LayerCount: 2
Fore
SplineSet
278 214 m 0
 281 220 279 222 273 219 c 0
 159 163 86 119 86 44 c 0
 86 24 102 15 114 15 c 0
 173 15 237 122 278 214 c 0
877 591 m 0
 877 605 861 626 846 626 c 0
 809 626 739 541 672 425 c 0
 669 419 670 417 676 420 c 0
 795 476 877 517 877 591 c 0
606 610 m 0
 530 539 478 469 427 331 c 0
 425 325 427 323 433 326 c 0
 463 338 494 347 525 358 c 0
 535 362 540 370 545 379 c 0
 556 396 567 413 578 429 c 0
 686 585 786 656 842 656 c 0
 873 656 910 629 910 593 c 0
 910 484 786 431 650 373 c 0
 644 370 639 366 636 360 c 0
 564 230 501 115 501 56 c 0
 501 24 532 18 551 18 c 0
 587 18 631 57 684 127 c 0
 691 137 708 143 720 143 c 0
 724 143 725 138 722 134 c 0
 660 43 602 -12 541 -12 c 0
 489 -12 431 7 431 80 c 0
 431 156 462 218 503 299 c 0
 506 305 505 307 499 305 c 0
 470 295 445 293 418 284 c 0
 412 282 407 277 405 271 c 0
 356 144 278 52 200 9 c 0
 176 -4 152 -15 118 -15 c 0
 85 -15 53 9 53 45 c 0
 53 149 160 209 294 270 c 0
 300 273 304 277 307 283 c 0
 341 356 371 423 466 520 c 0
 475 529 460 525 454 525 c 0
 414 525 380 541 323 570 c 0
 283 590 244 604 216 604 c 0
 152 604 114 557 114 503 c 0
 114 450 153 409 216 409 c 0
 264 409 293 436 317 480 c 0
 321 488 332 492 341 492 c 0
 344 492 345 489 344 486 c 0
 320 421 285 379 218 379 c 0
 138 379 73 430 73 505 c 0
 73 581 123 656 227 656 c 0
 267 656 302 642 376 607 c 0
 414 589 444 576 466 576 c 0
 486 576 528 590 552 606 c 0
 571 619 587 638 609 653 c 0
 616 658 619 653 619 646 c 0
 619 634 615 618 606 610 c 0
EndSplineSet
EndChar

StartChar: uni2110
Encoding: 8464 8464 2
Width: 671
Flags: HW
HStem: -15 31<133.223 300.192> 83 96<67.3361 126.862> 432 20G<696 728> 583 71<714.819 801.156> 585 52<468.35 662.079>
VStem: 26 111<96.4503 168.033> 341 42<399.034 515.99>
LayerCount: 2
Fore
SplineSet
609 585 m 0
 500 585 383 558 383 447 c 0
 383 409 427 361 493 349 c 0
 500 348 505 350 507 356 c 0
 546 459 589 525 655 577 c 0
 660 581 660 584 653 584 c 0
 640 585 625 585 609 585 c 0
74 89 m 0
 68 92 67 92 70 86 c 0
 83 58 135 16 198 16 c 0
 323 16 393 56 473 256 c 0
 480 273 484 289 489 305 c 0
 491 311 488 315 482 317 c 0
 411 334 341 380 341 456 c 0
 341 522 369 566 413 596 c 0
 462 629 530 637 590 637 c 0
 636 637 674 632 699 629 c 0
 706 628 711 630 717 634 c 0
 745 652 773 654 782 654 c 0
 798 654 813 644 813 632 c 0
 813 589 754 584 722 583 c 0
 715 583 710 581 705 576 c 0
 663 535 632 454 603 363 c 0
 601 357 604 354 610 356 c 0
 647 369 677 394 702 436 c 0
 706 444 717 449 725 449 c 0
 728 449 729 446 728 443 c 0
 704 378 659 337 599 320 c 0
 593 318 588 314 586 308 c 0
 555 214 524 147 468 89 c 0
 399 17 313 -15 220 -15 c 0
 114 -15 26 45 26 112 c 0
 26 154 46 179 79 179 c 0
 107 179 137 160 137 131 c 0
 137 106 128 83 100 83 c 0
 94 83 82 84 74 89 c 0
EndSplineSet
EndChar

StartChar: uni2112
Encoding: 8466 8466 3
Width: 789
Flags: HW
HStem: -9 30<84.79 266.53 385.318 580.566> 79 30<77.636 205.574> 294 30<298.351 480> 593 21G<484 523> 601 37<709.089 803.535> 626 30<272.479 456.471>
VStem: 33 40<31.6649 72.5899> 115 41<408.307 542.226> 813 41<485.865 592.373>
LayerCount: 2
Fore
SplineSet
259 32 m 0
 265 34 265 37 259 40 c 0
 202 69 166 79 137 79 c 0
 118 79 73 75 73 54 c 0
 73 32 107 21 165 21 c 0
 200 21 232 24 259 32 c 0
813 557 m 0
 813 584 790 601 758 601 c 0
 679 601 624 473 599 361 c 0
 598 354 601 352 607 354 c 0
 637 363 667 379 695 396 c 0
 765 438 813 488 813 557 c 0
508 620 m 0
 516 616 520 604 520 595 c 0
 520 592 517 591 514 593 c 0
 454 626 399 626 364 626 c 0
 259 626 156 574 156 470 c 0
 156 368 287 324 429 324 c 0
 445 324 458 325 481 328 c 0
 488 329 493 332 495 338 c 0
 518 396 533 433 555 475 c 0
 594 551 678 638 759 638 c 0
 818 638 854 603 854 556 c 0
 854 469 762 367 596 318 c 0
 590 316 585 312 583 306 c 0
 541 181 459 80 383 43 c 0
 377 40 378 38 384 36 c 0
 421 24 455 16 480 16 c 0
 569 16 644 56 709 135 c 0
 717 144 732 150 744 150 c 0
 748 150 750 146 747 142 c 0
 674 36 584 -15 487 -15 c 0
 417 -15 368 -2 328 12 c 0
 322 14 316 14 310 12 c 0
 268 -2 221 -9 167 -9 c 0
 85 -9 33 13 33 52 c 0
 33 82 66 109 133 109 c 0
 190 109 246 83 304 62 c 0
 310 60 316 61 321 65 c 0
 367 101 431 178 476 288 c 0
 479 294 477 297 470 296 c 0
 456 295 441 294 427 294 c 0
 303 294 115 330 115 474 c 0
 115 579 209 656 352 656 c 0
 392 656 450 651 508 620 c 0
EndSplineSet
EndChar

StartChar: uni2113
Encoding: 8467 8467 4
Width: 506
Flags: HW
HStem: -11 27<86.784 160.956> 382 27<50.819 113> 413 20G<22.1739 48.5> 678 29<361.739 435.392>
VStem: 11 63<22.9648 153.163> 444 29<571.336 669.634>
LayerCount: 2
Fore
SplineSet
118 409 m 0
 125 409 130 412 133 418 c 0
 215 570 319 707 398 707 c 3
 442 707 473 675 473 625 c 3
 473 524 363 412 203 384 c 0
 196 383 192 379 189 373 c 0
 149 286 74 127 74 60 c 3
 74 35 93 16 121 16 c 3
 165 16 209 65 279 161 c 0
 286 171 301 176 313 176 c 0
 317 176 319 172 316 168 c 0
 229 45 180 -11 119 -11 c 3
 73 -11 11 8 11 82 c 3
 11 162 70 292 109 373 c 0
 112 379 110 382 103 383 c 0
 81 385 59 390 37 401 c 0
 27 406 23 419 23 430 c 0
 23 434 27 434 31 432 c 0
 64 412 91 409 118 409 c 0
210 423 m 0
 207 417 209 414 215 416 c 0
 359 453 444 542 444 639 c 7
 444 664 426 678 402 678 c 3
 360 678 327 634 308 606 c 0
 274 557 244 490 210 423 c 0
EndSplineSet
EndChar

StartChar: uni211B
Encoding: 8475 8475 5
Width: 938
Flags: HW
HStem: -12 30<129.81 303.202 688.572 761.381> 83 96<71.427 130.156> 270 30<209.039 340.793> 277 61<590.058 652.108> 525 92G<434.5 458.5 756 781> 625 30<340.483 580.607>
VStem: 34 106<95.4677 168.134> 107 42<345.224 490.857> 438 22<441.329 525> 604 78<22.3268 109.41> 665 70<166.154 252.618> 771 64<372.136 494.861>
LayerCount: 2
Fore
SplineSet
771 447 m 0
 771 483 739 524 705 550 c 0
 700 554 695 553 691 548 c 0
 647 495 624 436 593 347 c 0
 591 341 593 339 600 338 c 0
 616 337 630 333 644 326 c 0
 650 323 656 321 663 322 c 0
 735 333 771 380 771 447 c 0
453 527 m 0
 461 527 460 504 460 496 c 0
 460 377 399 270 271 270 c 0
 188 270 107 325 107 409 c 0
 107 546 226 655 464 655 c 0
 540 655 619 636 684 601 c 0
 690 598 695 598 701 602 c 0
 722 616 744 626 771 637 c 0
 774 638 778 637 778 634 c 0
 778 625 773 614 765 610 c 0
 751 603 739 594 728 586 c 0
 723 582 723 579 729 575 c 0
 786 540 835 484 835 434 c 0
 835 353 781 300 667 296 c 0
 666 295 l 0
 667 294 l 0
 701 271 735 236 735 205 c 0
 735 136 682 94 682 53 c 0
 682 32 699 18 719 18 c 0
 749 18 788 46 833 99 c 0
 840 108 855 113 866 113 c 0
 871 113 872 110 869 105 c 0
 814 31 763 -12 709 -12 c 0
 662 -12 604 21 604 71 c 0
 604 151 665 159 665 224 c 0
 665 233 654 277 623 277 c 0
 614 277 597 279 584 284 c 0
 578 286 574 285 572 279 c 0
 493 55 379 -15 224 -15 c 0
 118 -15 34 44 34 111 c 0
 34 153 50 179 83 179 c 0
 111 179 140 160 140 131 c 0
 140 106 128 83 104 83 c 0
 98 83 88 84 79 89 c 0
 73 92 72 92 74 86 c 0
 87 54 137 16 202 16 c 0
 327 16 379 55 462 255 c 0
 526 409 575 501 658 571 c 0
 663 575 663 579 657 582 c 0
 600 612 530 625 467 625 c 0
 262 625 149 533 149 405 c 0
 149 339 211 300 268 300 c 0
 378 300 428 368 437 515 c 0
 437 523 446 527 453 527 c 0
EndSplineSet
EndChar

StartChar: uni212C
Encoding: 8492 8492 6
Width: 902
Flags: HW
HStem: -15 31<133.096 295.752> -11 45<591.447 701.266> 83 96<71.422 130.156> 176 23<628.281 664.13> 260 30<215.316 352.358> 287 60<604.321 683.014> 531 79G<449 470.5 801 825> 627 30<350.868 601.058>
VStem: 34 106<97.6617 168.134> 110 42<339.933 492.709> 451 22<409.875 531> 539 34<57.8529 137.171> 759 79<95.9671 231.712> 790 64<371.711 501.572>
LayerCount: 2
Fore
SplineSet
790 455 m 0
 790 491 765 519 740 543 c 0
 735 548 731 548 726 543 c 0
 675 492 643 443 608 352 c 0
 606 346 606 345 613 346 c 0
 618 347 624 347 627 347 c 0
 638 347 657 344 675 337 c 0
 681 335 687 333 694 334 c 0
 771 344 790 393 790 455 c 0
816 630 m 0
 819 631 822 630 822 627 c 0
 822 618 818 607 810 603 c 0
 794 595 780 586 767 577 c 0
 762 573 762 569 767 565 c 0
 812 531 854 492 854 433 c 0
 854 367 804 324 719 313 c 0
 719 312 l 0
 719 311 719 311 720 311 c 0
 788 284 838 219 838 171 c 0
 838 112 810 63 755 22 c 0
 725 0 691 -11 648 -11 c 0
 584 -11 539 43 539 78 c 0
 539 144 574 184 660 199 c 0
 664 200 668 197 668 194 c 0
 668 185 662 175 653 173 c 0
 607 163 573 133 573 93 c 0
 573 67 606 34 634 34 c 0
 673 34 695 46 716 67 c 0
 745 96 759 137 759 188 c 0
 759 225 732 266 698 288 c 0
 692 292 686 292 679 291 c 0
 664 288 647 287 641 287 c 0
 625 287 609 292 599 299 c 0
 594 303 591 303 589 297 c 0
 510 70 381 -15 224 -15 c 0
 118 -15 34 40 34 107 c 0
 34 143 50 179 83 179 c 0
 111 179 140 160 140 131 c 0
 140 106 132 83 104 83 c 0
 93 83 86 85 79 89 c 0
 73 93 72 92 74 86 c 0
 87 54 137 16 202 16 c 0
 327 16 393 66 477 266 c 0
 542 421 605 498 697 565 c 0
 702 569 702 573 696 576 c 0
 630 614 544 627 487 627 c 0
 304 627 152 561 152 400 c 0
 152 338 209 290 279 290 c 0
 379 290 451 353 451 488 c 0
 451 501 451 514 450 527 c 0
 450 530 452 533 454 533 c 0
 461 533 469 529 470 521 c 0
 472 504 473 488 473 472 c 0
 473 344 405 260 278 260 c 0
 199 260 110 310 110 407 c 0
 110 595 312 657 481 657 c 0
 552 657 647 639 725 595 c 0
 731 592 737 592 743 595 c 0
 766 608 789 619 816 630 c 0
EndSplineSet
EndChar

StartChar: uni212F
Encoding: 8495 8495 7
Width: 607
Flags: HW
HStem: -11 27<178.412 283.387> 388 27<398.927 486.751>
VStem: 104.785 55<26.8922 134.005> 491.785 27<325.178 382.324>
LayerCount: 2
Fore
SplineSet
140.784179688 218 m 0
 147.784179688 217 152.784179688 220 155.784179688 226 c 0
 223.784179688 340 338.784179688 415 454.784179688 415 c 3
 495.784179688 415 518.784179688 397 518.784179688 361 c 3
 518.784179688 294 417.784179688 225 225.784179688 194 c 0
 218.784179688 193 214.784179688 190 210.784179688 184 c 0
 185.784179688 144 159.784179688 101 159.784179688 73 c 3
 159.784179688 39 182.784179688 16 213.784179688 16 c 3
 301.784179688 16 403.784179688 82 523.784179688 191 c 0
 526.784179688 194 530.784179688 193 531.784179688 190 c 0
 535.784179688 181 535.784179688 170 528.784179688 163 c 0
 407.784179688 53 306.784179688 -11 205.784179688 -11 c 3
 136.784179688 -11 104.784179688 35 104.784179688 86 c 3
 104.784179688 115 119.784179688 153 133.784179688 183 c 0
 136.784179688 189 134.784179688 192 127.784179688 193 c 0
 85.7841796875 201 47.7841796875 228 30.7841796875 265 c 0
 28.7841796875 269 30.7841796875 273 34.7841796875 273 c 0
 45.7841796875 273 61.7841796875 263 68.7841796875 254 c 0
 86.7841796875 233 111.784179688 222 140.784179688 218 c 0
241.784179688 231 m 0
 237.784179688 226 238.784179688 223 245.784179688 224 c 0
 387.784179688 246 491.784179688 303 491.784179688 359 c 3
 491.784179688 380 473.784179688 388 456.784179688 388 c 3
 392.784179688 388 331.784179688 341 241.784179688 231 c 0
EndSplineSet
EndChar

StartChar: uni2130
Encoding: 8496 8496 8
Width: 687
Flags: HW
HStem: -15 30<333.5 493.239> 234 42<412.283 547.083> 302 59<427.786 509.25> 374 31<248.846 351 427 523.01> 594 37<558.745 681.818> 613 21G<379.5 408> 630 30<207.059 373.183>
VStem: 100 42<468.177 582.738> 169 85<71.5762 213.21> 315 22<96.0909 132.032> 351 72<405 472.888> 581 64<83.8476 201.668> 690 41<503.502 585.602>
LayerCount: 2
Fore
SplineSet
690 552 m 0
 690 582 662 594 633 594 c 0
 541 594 431 500 423 413 c 0
 422 406 426 403 433 404 c 0
 590 416 690 489 690 552 c 0
394 637 m 0
 402 634 406 624 406 616 c 0
 406 613 403 612 400 613 c 0
 359 628 333 630 288 630 c 4
 191 630 142 585 142 520 c 0
 142 447 241 407 341 405 c 0
 348 405 351 408 351 415 c 0
 351 546 501 631 621 631 c 0
 685 631 731 597 731 549 c 0
 731 469 614 390 437 374 c 0
 430 373 426 375 428 369 c 0
 430 363 436 360 443 360 c 0
 484 357 512 349 512 330 c 0
 512 311 498 302 474 302 c 0
 457 302 442 306 428 312 c 0
 422 315 415 315 409 313 c 0
 301 280 254 209 254 124 c 0
 254 62 323 15 415 15 c 0
 482 15 529 41 555 75 c 0
 575 101 581 124 581 153 c 0
 581 199 533 234 481 234 c 0
 416 234 357 184 340 107 c 0
 338 98 329 93 320 93 c 0
 317 93 315 97 315 100 c 0
 328 207 395 276 492 276 c 0
 583 276 645 221 645 154 c 0
 645 63 546 -15 409 -15 c 0
 294 -15 169 32 169 144 c 0
 169 246 218 317 358 349 c 0
 369 351 362 359 359 365 c 0
 356 371 352 374 345 374 c 0
 210 379 100 434 100 523 c 0
 100 598 157 660 272 660 c 0
 317 660 348 657 394 637 c 0
EndSplineSet
EndChar

StartChar: uni2131
Encoding: 8497 8497 9
Width: 690
Flags: HW
HStem: 0 31<129.237 276.203> 81 99<83.375 142.084> 294 58<535.982 638> 338 30<183.618 323.078> 537 87G<401 431 559 610 805 833> 556 50<565.624 756.712> 616 46<203.788 445.792>
VStem: 43 110<97.2684 168.03> 87 40<411.634 547.896> 411 20<494.275 536> 635 50<221.09 293.498>
LayerCount: 2
Fore
SplineSet
585 539 m 0
 591 545 617 543 608 532 c 0
 569 486 552 435 536 347 c 0
 535 340 537 338 544 339 c 0
 577 345 609 351 643 352 c 0
 650 352 655 355 658 361 c 0
 678 394 705 409 723 409 c 0
 735 409 749 403 749 387 c 0
 749 369 733 336 698 314 c 0
 686 307 685 290 685 273 c 0
 685 257 688 243 692 229 c 0
 695 219 690 210 682 210 c 0
 660 210 636 221 635 244 c 0
 635 248 635 253 635 257 c 0
 635 265 636 274 637 284 c 0
 638 291 635 294 628 294 c 0
 607 293 574 290 534 284 c 0
 527 283 524 278 522 272 c 0
 473 72 352 0 211 0 c 0
 141 0 43 36 43 115 c 0
 43 152 61 180 96 180 c 0
 123 180 153 158 153 131 c 0
 153 103 140 81 116 81 c 0
 104 81 96 82 90 87 c 0
 85 91 84 91 87 85 c 0
 102 54 144 31 198 31 c 0
 293 31 355 77 416 247 c 0
 418 253 416 255 410 253 c 0
 362 236 312 213 265 179 c 0
 259 175 232 175 240 187 c 0
 271 232 344 276 428 307 c 0
 434 309 437 312 439 318 c 4
 445 336 450 350 457 369 c 0
 485 443 527 483 585 539 c 0
822 645 m 0
 825 647 828 647 828 644 c 0
 828 635 826 622 818 616 c 0
 779 584 724 556 667 556 c 0
 558 556 403 616 310 616 c 0
 185 616 127 560 127 473 c 0
 127 392 198 368 250 368 c 0
 345 368 388 421 409 527 c 0
 410 535 419 538 426 538 c 0
 428 538 431 535 431 532 c 0
 423 400 364 338 252 338 c 0
 177 338 87 380 87 466 c 0
 87 520 98 565 132 598 c 0
 176 640 249 662 350 662 c 0
 460 662 612 606 712 606 c 0
 755 606 792 626 822 645 c 0
EndSplineSet
EndChar

StartChar: uni2133
Encoding: 8499 8499 10
Width: 988
Flags: HW
HStem: -12 30<93.265 180.627 743.598 818.101> 32 96<92.237 133.927> 640 20G<623.5 680 838.5 940>
VStem: 38 109<36.2444 114.404> 374 77<39.0345 143.973> 665 70<23.1011 141.606>
LayerCount: 2
Fore
SplineSet
941 660 m 0
 952 660 972 654 972 643 c 0
 972 636 966 629 961 618 c 0
 821 329 735 112 735 54 c 0
 735 29 759 18 777 18 c 0
 813 18 859 58 912 128 c 0
 919 138 936 144 948 144 c 0
 952 144 953 140 950 136 c 0
 888 44 829 -12 767 -12 c 0
 719 -12 665 19 665 72 c 0
 665 182 740 354 898 618 c 0
 898 619 899 621 898 621 c 0
 817 589 731 480 623 231 c 0
 556 78 526 -4 444 -4 c 0
 410 -4 374 28 374 70 c 0
 374 149 430 281 477 373 c 0
 518 455 576 552 632 628 c 0
 632 628 633 630 632 630 c 0
 562 600 480 507 425 397 c 0
 293 134 246 -15 129 -15 c 0
 83 -15 38 20 38 63 c 0
 38 101 56 128 88 128 c 0
 119 128 147 102 147 76 c 0
 147 54 138 32 111 32 c 0
 108 32 105 32 101 33 c 0
 94 34 92 33 96 28 c 0
 103 20 115 15 126 15 c 0
 194 15 239 78 317 250 c 0
 470 586 569 660 678 660 c 0
 694 660 703 652 703 640 c 0
 703 634 701 627 697 620 c 0
 594 434 500 235 467 128 c 0
 461 109 451 85 451 61 c 0
 451 51 461 39 472 39 c 0
 498 39 519 81 544 134 c 0
 628 308 730 602 907 654 c 0
 918 657 930 660 941 660 c 0
EndSplineSet
EndChar

StartChar: u1D49C
Encoding: 119964 119964 11
Width: 680
Flags: HW
HStem: -15 30<99.988 210.823> 39 28<403.843 482> 53 96<74.418 132.66> 447 33<239.259 377.862> 639 36<668.597 695>
VStem: 31 112<65.7405 136.302> 133 41<222.546 385.161>
LayerCount: 2
Fore
SplineSet
448 363 m 0
 451 369 451 375 447 380 c 0
 411 421 361 447 299 447 c 0
 225 447 174 387 174 301 c 0
 174 220 231 163 298 124 c 0
 304 121 309 122 313 127 c 0
 358 189 403 276 448 363 c 0
524 186 m 0
 519 241 502 291 477 335 c 0
 474 341 470 341 467 335 c 0
 426 255 386 176 340 113 c 0
 336 108 337 104 343 101 c 0
 385 83 431 72 481 68 c 0
 488 67 492 71 494 77 c 0
 503 105 512 135 521 166 c 0
 523 172 525 179 524 186 c 0
694 638 m 0
 695 639 l 0
 694 639 l 0
 617 611 555 501 492 380 c 0
 489 374 489 369 492 363 c 0
 515 326 531 282 539 237 c 0
 540 230 542 231 544 237 c 0
 590 384 640 533 694 638 c 0
731 675 m 0
 750 675 761 670 761 654 c 0
 761 647 759 639 756 631 c 0
 695 461 647 294 588 79 c 0
 586 73 589 70 595 71 c 0
 628 79 662 91 685 104 c 0
 688 106 691 105 691 102 c 0
 691 93 688 82 680 77 c 0
 654 61 619 50 587 44 c 0
 579 42 576 37 574 29 c 0
 569 10 556 0 536 0 c 2
 499 0 l 2
 484 0 476 5 476 16 c 0
 476 25 485 39 472 40 c 0
 421 44 370 56 323 75 c 0
 317 78 311 76 307 71 c 0
 261 18 211 -15 154 -15 c 0
 90 -15 31 24 31 78 c 0
 31 122 53 149 86 149 c 0
 114 149 143 128 143 101 c 0
 143 80 135 53 107 53 c 0
 93 53 87 55 82 59 c 0
 77 63 74 62 77 56 c 0
 86 38 110 15 146 15 c 0
 200 15 234 37 278 85 c 0
 282 90 282 94 276 97 c 0
 201 138 133 202 133 299 c 0
 133 417 205 480 294 480 c 0
 363 480 419 450 460 405 c 0
 465 400 469 401 472 407 c 0
 548 547 630 675 731 675 c 0
EndSplineSet
EndChar

StartChar: u1D49E
Encoding: 119966 119966 12
Width: 688
Flags: HW
HStem: -15 30<361.952 517.429> 247 43<469.603 584.574> 309 30<355 469.652> 611 37<596.414 717.461> 636 30<185.797 373.87>
VStem: 37 41<425.559 560.409> 203 89<90.5819 250.393> 375 24<65 149.537> 618 62<97.088 214.541> 731 41<496.691 599.038>
LayerCount: 2
Fore
SplineSet
360 348 m 0
 357 342 358 339 365 339 c 0
 441 341 527 365 593 401 c 0
 681 449 731 499 731 559 c 0
 731 586 709 611 676 611 c 0
 554 611 441 489 360 348 c 0
395 62 m 0
 375 62 375 81 375 100 c 0
 375 206 447 290 543 290 c 0
 614 290 680 242 680 172 c 0
 680 113 648 75 601 39 c 0
 554 3 495 -15 434 -15 c 0
 325 -15 203 53 203 167 c 0
 203 223 212 255 232 305 c 0
 234 311 233 315 226 316 c 0
 141 333 37 388 37 488 c 0
 37 584 114 666 271 666 c 0
 310 666 362 662 418 633 c 0
 427 629 430 616 430 607 c 0
 430 604 426 603 423 605 c 0
 364 636 318 636 283 636 c 0
 182 636 78 595 78 490 c 0
 78 404 166 359 243 347 c 0
 250 346 255 349 258 355 c 0
 344 517 528 648 665 648 c 0
 727 648 772 609 772 561 c 0
 772 441 586 313 352 309 c 0
 345 309 340 306 337 300 c 0
 296 223 292 183 292 134 c 0
 292 55 359 15 434 15 c 0
 544 15 618 82 618 158 c 0
 618 211 569 247 532 247 c 0
 469 247 399 181 399 86 c 0
 399 79 402 62 395 62 c 0
EndSplineSet
EndChar

StartChar: u1D49F
Encoding: 119967 119967 13
Width: 783
Flags: HW
HStem: -9 30<110.288 291.922 394.039 614.672> 79 30<104.025 242.152> 247 30<185.164 343.599> 528 10G<443 466 737 767> 616 32<225.938 454.242>
VStem: 36 42<354.83 507.99> 58 41<30.9619 72.7725> 448 26<390.922 536.805> 746 50<142.132 353.676>
LayerCount: 2
Fore
SplineSet
292 35 m 0
 298 37 298 40 292 43 c 0
 243 66 206 79 163 79 c 0
 144 79 99 75 99 54 c 0
 99 32 133 21 191 21 c 0
 230 21 263 25 292 35 c 0
746 260 m 0
 746 328 715 389 686 433 c 0
 682 439 678 438 675 432 c 0
 646 384 630 356 603 302 c 0
 558 213 517 126 440 68 c 0
 427 58 415 49 401 41 c 0
 395 38 396 35 402 33 c 0
 436 23 470 16 506 16 c 0
 651 16 746 97 746 260 c 0
757 548 m 4
 760 549 764 548 764 545 c 0
 764 536 758 525 750 520 c 0
 733 510 725 503 709 483 c 0
 705 478 705 472 709 467 c 0
 751 411 796 334 796 248 c 0
 796 95 677 -15 514 -15 c 0
 460 -15 410 -1 363 15 c 0
 357 17 351 17 345 15 c 0
 300 -1 251 -9 196 -9 c 0
 114 -9 58 16 58 54 c 0
 58 87 95 109 158 109 c 0
 210 109 264 90 326 61 c 0
 332 58 338 59 343 63 c 0
 396 105 436 191 503 303 c 0
 553 386 590 421 644 473 c 0
 649 478 649 482 644 487 c 0
 572 565 457 616 351 616 c 0
 155 616 78 535 78 417 c 0
 78 338 165 277 264 277 c 0
 369 277 448 335 448 475 c 0
 448 493 447 513 444 534 c 0
 444 537 445 540 447 540 c 0
 454 540 462 536 464 529 c 0
 470 503 474 479 474 457 c 0
 474 320 364 247 271 247 c 0
 155 247 36 313 36 425 c 0
 36 554 149 648 340 648 c 0
 467 648 588 593 670 511 c 0
 675 506 680 506 685 510 c 0
 707 527 722 537 757 548 c 4
EndSplineSet
EndChar

StartChar: u1D4A2
Encoding: 119970 119970 14
Width: 665
Flags: HW
HStem: -15 31<247.078 407.237> 66 98<188.333 246.084> 161 30<363.984 487.748> 369 30<378 488.832> 611 37<558.915 681.48> 636 30<198.131 358.533>
VStem: 83 41<468.786 581.362> 148 109<79.6574 151.73> 255 82<218.693 357.875> 692 40<517.904 599.991>
LayerCount: 2
Fore
SplineSet
692 569 m 0
 692 597 660 611 629 611 c 0
 545 611 432 518 382 408 c 0
 379 402 381 399 388 399 c 0
 555 402 692 492 692 569 c 0
388 639 m 0
 396 635 399 625 399 617 c 0
 399 614 396 613 393 614 c 0
 353 631 315 636 280 636 c 0
 176 636 124 583 124 520 c 0
 124 463 185 422 269 408 c 0
 276 407 280 410 283 416 c 0
 359 563 509 648 618 648 c 0
 674 648 732 622 732 572 c 0
 732 470 569 372 374 369 c 0
 367 369 362 366 359 360 c 0
 338 317 337 280 337 252 c 0
 337 215 374 191 418 191 c 0
 487 191 557 232 653 329 c 0
 660 336 672 337 681 334 c 0
 684 333 684 329 682 326 c 0
 655 294 645 259 633 205 c 0
 600 57 502 -15 335 -15 c 0
 236 -15 148 38 148 95 c 0
 148 138 165 164 200 164 c 0
 227 164 257 142 257 117 c 0
 257 90 249 66 221 66 c 0
 212 66 202 67 195 72 c 0
 189 76 188 76 192 70 c 0
 209 42 264 16 321 16 c 0
 444 16 502 85 547 204 c 0
 547 205 545 204 545 204 c 0
 504 175 461 161 415 161 c 0
 337 161 255 202 255 282 c 0
 255 307 257 337 267 368 c 0
 269 374 267 378 260 379 c 0
 162 397 83 444 83 520 c 0
 83 602 150 666 269 666 c 0
 310 666 349 658 388 639 c 0
EndSplineSet
EndChar

StartChar: u1D4A5
Encoding: 119973 119973 15
Width: 562
Flags: HW
HStem: -177 30<64.169 160.292> 434 20G<580 612> 586 54<360.08 547 572.887 664.388>
VStem: 9 41<-136.342 -60.8844> 225 43<392.738 508.685>
LayerCount: 2
Fore
SplineSet
285 34 m 0
 288 40 286 42 280 40 c 0
 214 18 158 5 108 -28 c 0
 61 -59 50 -88 50 -109 c 0
 50 -128 80 -147 102 -147 c 0
 185 -147 239 -76 285 34 c 0
539 580 m 0
 544 584 544 587 537 587 c 0
 526 588 513 588 502 588 c 0
 456 588 404 582 375 571 c 0
 320 550 268 509 268 440 c 0
 268 390 327 356 376 351 c 0
 383 350 388 353 390 359 c 0
 424 449 468 520 539 580 c 0
665 654 m 0
 679 654 692 644 692 628 c 0
 692 594 645 587 605 586 c 0
 598 586 592 584 587 579 c 0
 543 538 510 457 481 363 c 0
 479 357 482 354 488 356 c 0
 527 368 559 394 586 438 c 0
 590 445 602 450 610 450 c 0
 613 450 614 447 613 444 c 0
 588 377 540 336 478 321 c 0
 472 319 467 315 465 309 c 0
 445 244 429 189 413 134 c 0
 411 128 413 125 419 128 c 0
 450 141 480 159 509 185 c 0
 517 192 543 185 532 174 c 0
 497 139 453 109 406 89 c 0
 400 86 395 82 393 76 c 0
 345 -44 234 -177 106 -177 c 0
 58 -177 9 -150 9 -111 c 0
 9 -70 37 -28 98 8 c 0
 156 43 222 60 295 83 c 0
 301 85 306 89 308 95 c 0
 332 162 349 238 371 308 c 0
 373 314 370 319 364 320 c 0
 295 336 225 376 225 450 c 0
 225 589 360 640 474 640 c 0
 536 640 557 638 592 635 c 0
 599 634 605 636 611 639 c 0
 638 654 653 654 665 654 c 0
EndSplineSet
EndChar

StartChar: u1D4A6
Encoding: 119974 119974 16
Width: 853
Flags: HW
HStem: -12 30<124.486 260.109 625.324 697.405> 66 99<80.335 139.77> 294 54<527.188 570.298> 378 30<246.052 362.523> 474 20G<412.5 444> 525 50<476.667 597.101> 603 52<231.55 376.167> 603 41<828.72 848.293>
VStem: 40 110<81.153 153.274> 152 41<449.394 563.283> 541 78<21.5279 115.134> 597 72<186.007 264.344> 841 87<567.634 603>
LayerCount: 2
Fore
SplineSet
689 644 m 0
 700 655 705 636 705 629 c 0
 705 623 703 617 698 613 c 0
 616 538 573 453 531 357 c 0
 528 351 530 349 537 348 c 0
 546 347 554 345 563 340 c 0
 569 337 575 334 581 336 c 0
 618 345 650 364 693 444 c 0
 767 580 818 644 871 644 c 0
 899 644 928 628 928 600 c 0
 928 575 920 558 892 558 c 0
 874 558 847 570 841 603 c 0
 841 603 l 0
 840 603 l 0
 823 588 810 528 790 479 c 0
 742 363 686 339 611 313 c 0
 605 311 604 307 609 303 c 0
 644 272 669 243 669 214 c 0
 669 145 619 93 619 52 c 0
 619 31 636 18 656 18 c 0
 692 18 736 55 791 126 c 0
 798 136 813 142 825 142 c 0
 829 142 831 138 828 134 c 0
 767 42 707 -12 646 -12 c 0
 599 -12 541 20 541 70 c 0
 541 150 597 198 597 263 c 0
 597 272 586 294 547 294 c 0
 536 294 528 294 520 296 c 0
 514 298 510 296 508 290 c 0
 421 28 318 -15 201 -15 c 0
 114 -15 40 39 40 94 c 0
 40 132 56 165 96 165 c 0
 122 165 150 144 150 115 c 0
 150 90 134 66 113 66 c 0
 106 66 95 68 87 73 c 0
 81 77 80 76 83 70 c 0
 97 42 141 16 195 16 c 0
 278 16 320 72 377 206 c 0
 439 352 461 425 564 523 c 0
 569 528 568 529 561 528 c 0
 552 526 541 525 534 525 c 0
 494 525 460 540 403 569 c 0
 363 589 324 603 296 603 c 0
 232 603 193 556 193 502 c 0
 193 449 243 408 306 408 c 0
 354 408 392 434 417 478 c 0
 421 486 432 491 441 491 c 0
 444 491 445 488 444 485 c 0
 420 420 376 378 309 378 c 0
 229 378 152 429 152 504 c 0
 152 580 203 655 307 655 c 0
 347 655 382 641 456 606 c 0
 494 588 524 575 546 575 c 0
 589 575 646 600 689 644 c 0
EndSplineSet
EndChar

StartChar: u1D4A9
Encoding: 119977 119977 17
Width: 689
Flags: HW
HStem: -13 27<98.86 170.822> 32 96<94.238 136.813> 570 92<794.519 866.875> 624 20G<494 539>
VStem: 38 111<37.4902 114.834> 461 75<319.085 590.397> 493 70<44 316.947>
LayerCount: 2
Fore
SplineSet
523 639 m 0
 532 639 537 632 537 620 c 0
 537 613 536 603 536 590 c 0
 536 509 563 282 563 183 c 0
 563 169 563 155 562 141 c 0
 562 134 562 134 565 140 c 0
 591 194 621 285 647 383 c 0
 676 488 705 577 754 633 c 0
 771 653 791 662 817 662 c 0
 847 662 875 645 875 616 c 0
 875 588 863 570 839 570 c 0
 823 570 795 580 786 605 c 0
 784 611 781 613 776 609 c 0
 747 584 713 510 671 352 c 0
 638 226 597 90 529 9 c 0
 520 -1 513 -13 507 -13 c 0
 491 -13 493 43 493 64 c 0
 493 123 488 193 477 286 c 0
 468 361 461 428 461 482 c 0
 461 499 462 514 463 528 c 0
 464 535 462 535 459 529 c 0
 432 483 394 405 357 304 c 0
 274 73 219 -15 131 -15 c 0
 85 -15 38 22 38 64 c 0
 38 103 58 128 90 128 c 0
 121 128 149 103 149 77 c 0
 149 55 140 32 114 32 c 0
 108 32 90 38 98 28 c 0
 105 19 117 14 128 14 c 0
 203 14 259 118 323 301 c 0
 386 482 445 587 499 629 c 0
 507 635 516 639 523 639 c 0
EndSplineSet
EndChar

StartChar: u1D4AA
Encoding: 119978 119978 18
Width: 604
Flags: HW
HStem: -15 30<230.87 373.34> 506 36<406.193 511.337> 535 21G<590 623> 633 35<395.338 532.557>
VStem: 82 65<115.935 303.595> 313 32<292.879 428.793> 574 51<228.672 445.192>
LayerCount: 2
Fore
SplineSet
623 540 m 0
 623 537 621 534 619 534 c 0
 611 534 602 538 598 545 c 0
 572 596 531 633 463 633 c 0
 293 633 147 344 147 180 c 0
 147 76 215 15 293 15 c 0
 379 15 441 57 491 118 c 0
 524 159 574 232 574 364 c 0
 574 459 506 506 460 506 c 0
 397 506 345 446 345 343 c 0
 345 309 364 281 393 247 c 0
 402 236 376 232 370 238 c 0
 335 272 313 314 313 358 c 0
 313 465 375 542 458 542 c 0
 522 542 625 491 625 364 c 0
 625 169 508 -15 299 -15 c 0
 183 -15 82 79 82 218 c 0
 82 457 224 668 462 668 c 0
 548 668 612 611 623 540 c 0
EndSplineSet
EndChar

StartChar: u1D4AB
Encoding: 119979 119979 19
Width: 671
Flags: HW
HStem: -15 31<137.096 303.542> 83 96<75.336 134.156> 240 44<661.007 751.014> 270 30<213.405 343.469> 529 88G<438.5 462.5 760 785> 625 30<347.856 584.607>
VStem: 38 106<95.5774 168.134> 107 42<348.105 486.101> 442 21<444.901 529> 628 31<291.214 353.476> 784 63<320.072 480.637>
LayerCount: 2
Fore
SplineSet
457 531 m 0
 466 531 463 508 463 499 c 0
 463 376 409 270 275 270 c 0
 192 270 107 321 107 411 c 0
 107 538 230 655 468 655 c 0
 544 655 623 636 688 601 c 0
 694 598 699 598 705 602 c 0
 726 616 748 626 775 637 c 0
 778 638 782 637 782 634 c 0
 782 625 777 614 769 610 c 0
 755 603 743 594 732 586 c 0
 727 582 727 578 732 574 c 0
 789 534 847 479 847 405 c 0
 847 316 798 240 713 240 c 0
 664 240 628 273 628 307 c 0
 628 336 647 367 680 386 c 0
 683 388 686 387 686 384 c 0
 686 374 675 356 669 348 c 0
 659 335 659 323 659 314 c 0
 659 297 680 284 701 284 c 0
 757 284 784 339 784 423 c 0
 784 481 744 521 709 550 c 0
 704 554 699 553 695 548 c 0
 642 484 624 408 582 289 c 0
 500 58 385 -15 228 -15 c 0
 122 -15 38 41 38 108 c 0
 38 150 54 179 87 179 c 0
 115 179 144 160 144 131 c 0
 144 106 133 83 108 83 c 0
 102 83 90 84 82 89 c 0
 76 92 76 92 78 86 c 0
 91 54 141 16 206 16 c 0
 331 16 388 58 471 258 c 0
 535 412 579 501 662 571 c 0
 667 575 667 579 661 582 c 0
 604 612 534 625 471 625 c 0
 266 625 149 525 149 407 c 0
 149 341 215 300 272 300 c 0
 382 300 432 372 441 519 c 0
 441 527 450 531 457 531 c 0
EndSplineSet
EndChar

StartChar: u1D4AC
Encoding: 119980 119980 20
Width: 694
Flags: HW
HStem: -165 48<478.983 596.779> -31 46<220.75 242.594> -15 30<184 321.345> 506 36<406.193 518.354> 535 21G<590 623> 633 35<395.338 532.337>
VStem: 82 65<120.988 307.951> 313 32<294.423 426.38> 574 51<235.707 454.615>
LayerCount: 2
Fore
SplineSet
292 15 m 0
 398 15 465 75 509 142 c 0
 540 188 574 266 574 376 c 0
 574 471 506 506 460 506 c 0
 397 506 345 443 345 340 c 0
 345 310 361 281 386 254 c 0
 392 247 387 222 377 232 c 0
 338 269 313 315 313 355 c 0
 313 462 375 542 458 542 c 0
 522 542 625 503 625 376 c 0
 625 235 574 110 464 34 c 0
 431 11 391 -4 347 -11 c 0
 340 -12 340 -14 346 -17 c 0
 368 -27 389 -38 409 -50 c 0
 458 -79 496 -117 541 -117 c 0
 563 -117 600 -109 630 -87 c 0
 637 -82 652 -75 661 -75 c 0
 665 -75 666 -77 664 -81 c 0
 623 -141 561 -165 526 -165 c 0
 465 -165 392 -145 344 -111 c 0
 296 -77 256 -31 203 -31 c 0
 179 -31 129 -38 102 -58 c 0
 90 -67 86 -41 93 -35 c 0
 120 -11 157 4 188 11 c 0
 195 12 195 14 189 18 c 0
 126 59 82 134 82 219 c 0
 82 468 224 668 462 668 c 0
 547 668 612 611 623 540 c 0
 623 537 621 534 619 534 c 0
 611 534 602 538 598 545 c 0
 572 596 531 633 463 633 c 0
 293 633 147 355 147 181 c 0
 147 87 214 15 292 15 c 0
EndSplineSet
EndChar

StartChar: u1D4AE
Encoding: 119982 119982 21
Width: 588
Flags: HW
HStem: -15 30<219.764 365.851> 256 43<173.193 299.54> 423 21<520 553.933> 632 36<421.054 566.818>
VStem: 67 63<79.1639 212.684> 261 74<424.493 554.251> 464 80<106.736 246.146> 613 33<491.571 592.101>
LayerCount: 2
Fore
SplineSet
399 145 m 0
 400 142 398 139 396 139 c 0
 388 139 379 143 376 150 c 0
 331 244 280 256 228 256 c 0
 180 256 130 213 130 137 c 0
 130 66 214 15 294 15 c 0
 387 15 464 74 464 191 c 0
 464 298 261 327 261 460 c 0
 261 604 380 668 487 668 c 0
 553 668 646 628 646 552 c 0
 646 483 590 425 523 423 c 0
 520 423 516 425 516 428 c 0
 516 436 521 444 529 446 c 0
 582 457 613 499 613 551 c 0
 613 608 544 632 491 632 c 0
 414 632 335 571 335 479 c 0
 335 368 544 337 544 204 c 0
 544 68 444 -15 290 -15 c 0
 193 -15 67 28 67 142 c 0
 67 243 133 299 215 299 c 0
 290 299 370 253 399 145 c 0
EndSplineSet
EndChar

StartChar: u1D4AF
Encoding: 119983 119983 22
Width: 625
Flags: HW
HStem: -15 31<130.681 272.6> 67 98<80.335 139.084> 310 30<187.695 316.133> 522 114G<402 432 557 607 797 826> 565 50<557.877 749.554> 622 46<207.7 443.443> 636 20G<797 826>
VStem: 43 107<79.3304 152.977> 70 40<404.902 542.829> 412 20<481.736 522>
LayerCount: 2
Fore
SplineSet
583 534 m 0
 589 540 614 536 605 526 c 0
 560 474 542 412 527 304 c 0
 512 198 462 101 385 45 c 0
 333 7 278 -15 206 -15 c 0
 125 -15 43 38 43 99 c 0
 43 136 59 165 94 165 c 0
 121 165 150 143 150 116 c 0
 150 90 140 67 112 67 c 0
 106 67 95 68 87 73 c 0
 81 76 80 76 83 70 c 0
 97 39 138 16 195 16 c 0
 306 16 364 81 427 277 c 0
 472 417 518 470 583 534 c 0
813 657 m 0
 819 662 820 654 820 649 c 0
 820 640 818 630 811 625 c 0
 772 593 717 565 660 565 c 0
 551 565 396 622 303 622 c 0
 178 622 110 558 110 471 c 0
 110 390 186 340 248 340 c 0
 343 340 389 405 410 512 c 0
 411 520 420 524 427 524 c 0
 429 524 432 521 432 518 c 0
 424 386 357 310 245 310 c 0
 163 310 70 373 70 464 c 0
 70 594 174 668 354 668 c 0
 464 668 605 615 705 615 c 0
 747 615 783 635 813 657 c 0
EndSplineSet
EndChar

StartChar: u1D4B0
Encoding: 119984 119984 23
Width: 795
Flags: HW
HStem: -12 30<275.711 354.615 558.078 635.165> 328 30<121.201 223.423> 602 20G<279 306 715.456 817> 620 35<169.488 337.427>
VStem: 36 41<397.578 538.274> 198 74<23.6072 108.806> 286 20<443.263 477> 416 71<476.259 564.374> 479 72<22.7374 124.7>
LayerCount: 2
Fore
SplineSet
787 622 m 2
 801 622 808 618 808 609 c 0
 808 605 807 600 804 595 c 2
 568 117 l 2
 565 111 562 105 560 99 c 0
 551 75 551 59 551 53 c 0
 551 28 575 18 593 18 c 0
 630 18 674 57 727 127 c 0
 734 137 751 143 763 143 c 0
 767 143 768 138 765 134 c 0
 703 43 646 -12 583 -12 c 0
 535 -12 479 18 479 66 c 0
 479 81 479 102 486 128 c 0
 488 134 487 135 484 129 c 0
 428 37 360 -15 306 -15 c 0
 258 -15 198 22 198 77 c 0
 198 111 210 146 242 213 c 0
 251 231 260 249 270 266 c 2
 366 426 l 2
 369 432 373 438 376 444 c 0
 397 483 416 504 416 528 c 0
 416 579 317 620 260 620 c 0
 152 620 77 564 77 455 c 0
 77 407 118 358 164 358 c 0
 235 358 269 403 284 467 c 0
 286 474 294 479 301 479 c 0
 303 479 306 476 306 473 c 0
 300 408 255 328 170 328 c 0
 103 328 36 386 36 455 c 0
 36 579 136 655 264 655 c 0
 355 655 487 599 487 501 c 0
 487 458 449 396 429 359 c 2
 309 139 l 2
 306 133 303 127 300 121 c 0
 281 83 272 62 272 47 c 0
 272 33 283 15 305 15 c 0
 417 15 551 291 600 383 c 2
 712 595 l 2
 721 613 736 622 756 622 c 2
 787 622 l 2
EndSplineSet
EndChar

StartChar: u1D4B1
Encoding: 119985 119985 24
Width: 728
Flags: HW
HStem: -15 21G<258 293.5> 380 30<135.714 248.311> 476 20G<298.5 328 551.182 590> 522 55<363.391 475.458> 605 52<110.759 255.6> 625 41<803.072 826.872>
VStem: 35 41<458.186 569.333> 821 87<585.415 625>
LayerCount: 2
Fore
SplineSet
261 -15 m 0
 250 -15 225 -13 225 -2 c 0
 225 2 228 7 233 13 c 0
 269 56 286 105 322 249 c 0
 352 367 396 437 469 520 c 0
 473 525 473 526 466 525 c 0
 456 523 442 522 435 522 c 0
 338 522 251 605 182 605 c 0
 118 605 76 567 76 513 c 0
 76 460 130 410 192 410 c 0
 240 410 278 437 303 481 c 0
 307 488 317 493 325 493 c 0
 327 493 329 491 328 488 c 0
 304 423 262 380 195 380 c 0
 115 380 35 440 35 515 c 0
 35 591 102 657 199 657 c 0
 239 657 268 643 342 608 c 0
 380 590 410 577 432 577 c 0
 461 577 495 586 526 607 c 0
 539 616 550 627 562 638 c 0
 569 644 580 644 588 640 c 0
 590 639 591 635 589 632 c 0
 501 520 478 446 449 333 c 0
 415 201 358 95 294 26 c 0
 289 21 291 19 297 21 c 0
 434 55 523 173 628 376 c 0
 719 552 781 666 852 666 c 0
 880 666 908 647 908 619 c 0
 908 594 895 576 872 576 c 0
 846 576 826 593 821 625 c 0
 821 625 l 0
 820 625 l 0
 790 606 740 531 657 364 c 0
 580 209 511 128 452 77 c 0
 386 19 326 -15 261 -15 c 0
EndSplineSet
EndChar

StartChar: u1D4B2
Encoding: 119986 119986 25
Width: 875
Flags: HW
HStem: -15 21G<235.5 294.5 490 552> 371 30<130.496 235.898> 467 154G<279.5 309 532.182 575.818 714.5 763.5> 513 55<352.821 454.517> 596 52<105.91 244.956> 617 40<945.231 975.34>
VStem: 35 41<447.407 565.148> 970 87<576.094 617>
LayerCount: 2
Fore
SplineSet
758 621 m 0
 770 621 797 617 797 606 c 0
 797 602 794 597 788 590 c 0
 738 533 715 437 681 320 c 0
 644 197 603 112 535 30 c 0
 531 25 532 23 538 26 c 0
 623 66 688 152 757 309 c 0
 879 590 926 657 1001 657 c 0
 1028 657 1057 640 1057 610 c 0
 1057 586 1045 567 1021 567 c 0
 998 567 979 580 972 607 c 0
 970 613 967 616 961 613 c 0
 924 590 870 490 775 272 c 0
 697 95 605 -15 499 -15 c 0
 484 -15 465 -16 465 -5 c 0
 465 -1 468 6 473 12 c 0
 517 66 542 124 560 208 c 0
 595 366 648 465 736 578 c 0
 740 583 738 586 732 584 c 0
 653 560 577 421 523 290 c 0
 444 97 347 -15 242 -15 c 0
 229 -15 206 -14 206 -3 c 0
 206 1 209 7 214 13 c 0
 258 68 279 145 303 245 c 0
 329 359 378 425 449 510 c 0
 453 515 452 517 445 516 c 0
 435 514 423 513 416 513 c 0
 325 513 239 596 173 596 c 0
 109 596 76 559 76 505 c 0
 76 452 125 401 183 401 c 0
 231 401 261 428 285 473 c 0
 289 480 298 484 306 484 c 0
 308 484 310 482 309 479 c 0
 285 414 250 371 186 371 c 0
 111 371 35 432 35 507 c 0
 35 583 83 648 180 648 c 0
 220 648 259 634 333 599 c 0
 371 581 391 568 413 568 c 0
 442 568 476 577 507 598 c 0
 519 606 530 617 541 627 c 0
 545 631 550 632 555 632 c 0
 562 632 585 626 574 613 c 0
 510 538 457 463 422 318 c 0
 393 197 339 95 274 25 c 0
 269 20 270 19 276 21 c 0
 379 60 459 227 495 313 c 0
 586 529 671 621 758 621 c 0
EndSplineSet
EndChar

StartChar: u1D4B3
Encoding: 119987 119987 26
Width: 739
Flags: HW
HStem: -15 30<118.107 233.757> -14 44<479.038 577.934> 63 100<80.241 134.768> 342 30<202.752 313.81> 458 20G<360.5 387> 624 33<223.302 363.258 666.234 709>
VStem: 36 110<70.3574 150.455> 112 41<413.22 559.196> 367 20<444.213 474.75> 387 77<45.3568 187.732> 698 103<547.641 622.828>
LayerCount: 2
Fore
SplineSet
517 469 m 0
 518 462 520 462 523 468 c 0
 582 603 651 657 718 657 c 0
 758 657 801 639 801 594 c 0
 801 558 782 538 755 538 c 0
 730 538 698 552 698 584 c 0
 698 593 699 606 704 616 c 0
 707 622 706 624 699 623 c 0
 629 612 560 482 503 293 c 0
 485 232 464 168 464 101 c 0
 464 53 491 30 528 30 c 0
 562 30 598 62 651 133 c 0
 658 143 674 149 686 149 c 0
 690 149 692 145 689 141 c 0
 633 53 587 -14 505 -14 c 0
 442 -14 387 43 387 110 c 0
 387 116 387 124 388 131 c 0
 389 138 388 138 385 132 c 0
 332 40 268 -15 169 -15 c 0
 93 -15 36 41 36 92 c 0
 36 131 53 163 88 163 c 0
 115 163 146 141 146 116 c 0
 146 89 134 63 106 63 c 0
 102 63 95 64 89 66 c 0
 83 68 81 67 85 61 c 0
 107 28 138 15 182 15 c 0
 260 15 335 112 388 236 c 0
 426 326 448 396 448 466 c 0
 448 564 379 624 294 624 c 0
 205 624 153 567 153 472 c 0
 153 418 198 372 257 372 c 0
 323 372 350 413 364 465 c 0
 366 473 375 478 383 478 c 0
 386 478 387 474 387 471 c 0
 376 391 327 342 258 342 c 0
 182 342 112 395 112 473 c 0
 112 581 178 657 293 657 c 0
 410 657 497 574 517 469 c 0
EndSplineSet
EndChar

StartChar: u1D4B4
Encoding: 119988 119988 27
Width: 809
Flags: HW
HStem: -226 30<271.375 361.446> 82 30<354.563 439.798> 348 30<176.99 283.827> 606 20G<344.5 374 790.287 889> 620 35<219.246 388.778>
VStem: 91 42<412.539 547.505> 210 42<-182.328 -99.6042> 283 68<117.151 207.919> 354 20<470.108 503> 458 64<457.383 566.507>
LayerCount: 2
Fore
SplineSet
486 -16 m 0
 489 -10 487 -8 481 -10 c 0
 350 -55 252 -75 252 -149 c 0
 252 -168 271 -196 303 -196 c 4
 386 -196 440 -126 486 -16 c 0
787 600 m 2
 797 617 812 626 832 626 c 2
 859 626 l 2
 872 626 879 622 879 615 c 0
 879 611 877 606 873 600 c 0
 748 392 671 253 609 81 c 0
 607 75 609 73 615 76 c 0
 653 92 694 116 729 149 c 0
 740 159 748 135 741 128 c 0
 691 78 651 58 606 37 c 0
 600 34 595 30 593 24 c 0
 546 -94 436 -226 307 -226 c 0
 259 -226 210 -190 210 -151 c 0
 210 -32 385 -7 495 28 c 0
 501 30 505 34 507 40 c 0
 533 110 546 138 575 204 c 0
 578 210 577 210 573 205 c 0
 535 152 442 82 389 82 c 0
 337 82 283 115 283 175 c 0
 283 225 305 242 369 343 c 0
 450 470 458 496 458 530 c 0
 458 576 378 620 318 620 c 0
 199 620 133 568 133 463 c 0
 133 420 178 378 223 378 c 0
 287 378 332 416 352 493 c 0
 354 500 362 505 369 505 c 0
 371 505 373 502 373 499 c 0
 359 391 293 348 222 348 c 0
 158 348 91 403 91 465 c 0
 91 586 192 655 320 655 c 0
 419 655 522 588 522 502 c 0
 522 439 501 412 415 280 c 0
 358 192 351 162 351 138 c 0
 351 124 364 112 384 112 c 0
 453 112 536 172 655 375 c 2
 787 600 l 2
EndSplineSet
EndChar

StartChar: u1D4B5
Encoding: 119989 119989 28
Width: 773
Flags: HW
HStem: -15 39<102.306 269.403 430.786 630.424> 79 30<107.326 243.609> 260 49<507 584.176> 274 49<327.65 402> 372 30<182.795 292.838> 458 20G<327.5 359> 499 30<647.447 783.927> 587 30<645.289 784.131> 607 39<171.063 393.627>
VStem: 59 41<28.8182 71.7603> 84 41<449.618 564.539> 716 20<126.7 162> 792 41<536.24 578.564>
LayerCount: 2
Fore
SplineSet
275 45 m 0
 281 48 280 52 274 54 c 0
 228 70 200 79 161 79 c 0
 124 79 100 65 100 51 c 0
 100 35 121 21 175 21 c 0
 215 21 248 29 275 45 c 0
792 557 m 0
 792 573 771 587 717 587 c 0
 680 587 650 579 624 560 c 0
 619 556 619 553 625 551 c 0
 664 538 700 529 731 529 c 0
 768 529 792 543 792 557 c 0
333 463 m 0
 337 471 348 476 356 476 c 0
 359 476 360 473 359 470 c 0
 337 411 306 372 235 372 c 0
 170 372 84 432 84 504 c 0
 84 573 131 646 265 646 c 0
 369 646 473 608 560 575 c 0
 566 573 571 573 577 577 c 0
 622 606 669 617 713 617 c 0
 794 617 833 588 833 557 c 0
 833 526 794 499 726 499 c 0
 684 499 643 509 599 522 c 0
 593 524 587 523 583 517 c 0
 554 474 531 421 509 320 c 0
 507 313 511 309 518 309 c 0
 544 309 573 315 594 327 c 0
 602 332 614 331 622 326 c 0
 624 324 624 320 622 317 c 0
 596 285 561 260 514 260 c 0
 503 260 497 261 494 251 c 0
 472 168 434 114 378 66 c 0
 373 62 374 59 380 57 c 0
 436 39 488 24 532 24 c 0
 635 24 698 71 714 152 c 0
 716 160 724 164 731 164 c 0
 733 164 736 161 736 158 c 0
 732 47 662 -15 539 -15 c 0
 490 -15 443 -1 345 31 c 0
 339 33 332 32 326 29 c 0
 283 4 234 -9 179 -9 c 0
 97 -9 59 17 59 51 c 0
 59 82 99 109 167 109 c 0
 206 109 254 96 303 81 c 0
 309 79 316 81 320 86 c 0
 356 129 379 178 400 263 c 0
 402 271 398 274 390 274 c 0
 364 274 340 272 311 251 c 0
 303 245 291 247 283 252 c 0
 280 254 281 258 283 261 c 0
 312 296 351 323 397 323 c 0
 408 323 414 323 417 332 c 0
 446 436 485 490 530 535 c 0
 535 540 534 543 528 545 c 0
 445 575 353 607 249 607 c 0
 154 607 125 549 125 504 c 0
 125 448 185 402 231 402 c 0
 283 402 310 420 333 463 c 0
EndSplineSet
EndChar

StartChar: u1D4B6
Encoding: 119990 119990 29
Width: 816
Flags: HW
HStem: -6 27<231.87 327.36 492.405 586.842> 164 27<38.238 146.388> 384 27<423.439 526.166>
VStem: 160 58<34.3764 156.144> 448 25<42.449 104>
LayerCount: 2
Fore
SplineSet
444 146 m 0
 448 151 451 157 451 164 c 0
 455 223 480 306 536 306 c 3
 551 306 566 293 566 271 c 3
 566 239 528 186 483 136 c 0
 475 127 473 105 473 92 c 3
 473 30 506 21 539 21 c 3
 572 21 638 46 718 161 c 0
 725 171 740 177 751 177 c 0
 755 177 756 173 754 169 c 0
 678 46 602 -6 535 -6 c 3
 480 -6 448 28 448 85 c 3
 448 90 451 106 443 96 c 0
 388 26 332 -10 267 -10 c 3
 200 -10 160 42 160 116 c 0
 160 135 163 155 168 176 c 0
 170 182 168 184 162 181 c 0
 144 171 125 164 101 164 c 3
 82 164 63 168 44 175 c 0
 35 179 30 191 30 200 c 0
 30 203 34 204 38 203 c 0
 57 196 75 191 93 191 c 3
 150 191 177 226 210 270 c 0
 262 339 366 411 458 411 c 3
 487 411 546 411 583 341 c 0
 584 338 583 336 581 336 c 0
 573 336 561 342 555 348 c 0
 530 376 501 384 475 384 c 3
 424 384 370 340 333 295 c 0
 261 208 218 130 218 76 c 3
 218 45 235 18 267 18 c 3
 339 18 399 85 444 146 c 0
EndSplineSet
EndChar

StartChar: u1D4B7
Encoding: 119991 119991 30
Width: 540
Flags: HW
HStem: -12 27<121.846 213.74> 172 27<435.368 515.526> 455 27<265 337.24> 514 20G<82 112.5> 678 29<387.576 455.265>
VStem: 47 58<24.6592 181.486> 354 95<263.697 386.491> 462 35<581.913 672.413>
LayerCount: 2
Fore
SplineSet
354 303 m 0
 354 367 386 418 420 418 c 0
 428 418 439 410 444 399 c 0
 449 389 449 376 449 363 c 0
 449 334 442 296 418 241 c 0
 415 235 415 229 420 224 c 0
 439 204 463 199 484 199 c 0
 495 199 505 200 511 203 c 0
 515 205 519 203 519 200 c 0
 519 189 517 176 506 174 c 0
 499 172 492 172 487 172 c 0
 456 172 430 179 405 198 c 0
 400 202 395 201 392 195 c 0
 325 67 246 -12 162 -12 c 3
 97 -12 47 16 47 89 c 3
 47 193 104 344 171 454 c 0
 174 460 172 464 166 466 c 0
 139 474 113 486 89 508 c 0
 80 516 92 539 103 529 c 0
 129 505 153 495 179 490 c 0
 186 489 191 491 194 497 c 0
 253 599 337 707 420 707 c 3
 470 707 497 682 497 634 c 3
 497 550 396 459 261 455 c 0
 254 455 249 452 246 446 c 0
 200 358 105 182 105 69 c 3
 105 37 127 15 159 15 c 3
 236 15 310 90 370 217 c 0
 373 223 373 229 370 235 c 0
 360 257 354 276 354 303 c 0
462 644 m 3
 462 666 444 678 421 678 c 3
 378 678 332 608 270 491 c 0
 267 485 268 482 275 482 c 0
 387 487 462 568 462 644 c 3
EndSplineSet
EndChar

StartChar: u1D4B8
Encoding: 119992 119992 31
Width: 654
Flags: HW
HStem: -11 27<247.529 346.478> 168 27<35.6639 150.072> 388 27<403.224 489.788>
VStem: 165 63<43.9724 178.537> 494 40<320 385.056>
LayerCount: 2
Fore
SplineSet
172 185 m 0
 174 191 172 193 167 189 c 0
 149 176 128 168 100 168 c 3
 81 168 62 171 43 178 c 0
 34 182 30 194 30 203 c 0
 30 206 33 207 37 206 c 0
 56 199 75 195 93 195 c 3
 145 195 179 220 204 265 c 0
 256 360 348 415 436 415 c 3
 486 415 534 393 534 337 c 3
 534 303 516 274 484 274 c 3
 460 274 441 284 441 305 c 3
 441 350 494 331 494 365 c 3
 494 377 479 388 456 388 c 3
 327 388 228 175 228 75 c 3
 228 29 260 16 291 16 c 3
 348 16 444 65 542 200 c 0
 549 210 565 216 577 216 c 0
 581 216 583 211 580 207 c 0
 479 54 374 -11 286 -11 c 3
 222 -11 165 35 165 133 c 3
 165 152 166 163 172 185 c 0
EndSplineSet
EndChar

StartChar: u1D4B9
Encoding: 119993 119993 32
Width: 769
Flags: HW
HStem: -8 27<229.633 322.718 512.452 581.497> 174 27<37.271 145.113> 390 32<388.904 480.584> 685 20G<676 750>
VStem: 159 59<36.2306 168.91> 454 51<20.8033 115.238>
LayerCount: 2
Fore
SplineSet
535 349 m 0
 536 342 539 342 541 348 c 0
 559 394 637 592 669 673 c 0
 679 698 709 711 735 711 c 0
 744 711 749 702 745 692 c 2
 524 124 l 2
 516 103 505 84 505 59 c 0
 505 37 515 19 539 19 c 3
 578 19 629 52 711 168 c 0
 718 178 735 185 747 185 c 0
 751 185 753 180 750 176 c 0
 670 52 605 -8 536 -8 c 3
 482 -8 454 31 454 82 c 0
 454 90 455 98 456 106 c 0
 457 113 456 113 452 108 c 0
 395 36 338 -11 264 -11 c 3
 197 -11 159 47 159 122 c 0
 159 143 162 165 168 187 c 0
 170 193 169 194 163 191 c 0
 145 180 124 174 100 174 c 3
 81 174 62 178 43 185 c 0
 34 189 30 200 30 210 c 0
 30 213 33 214 37 213 c 0
 56 205 75 201 93 201 c 3
 141 201 179 231 209 277 c 0
 268 369 357 422 448 422 c 3
 491 422 524 397 535 349 c 0
400 93 m 0
 461 160 501 244 501 307 c 7
 501 349 486 390 446 390 c 3
 392 390 333 351 279 251 c 0
 227 156 218 109 218 70 c 3
 218 35 235 19 267 19 c 3
 314 19 354 43 400 93 c 0
EndSplineSet
EndChar

StartChar: u1D4BB
Encoding: 119995 119995 33
Width: 555
Flags: HW
HStem: 97 27<240.158 373.076> 658 29<432.723 507.676>
VStem: 518.533 25<554.398 644.885>
LayerCount: 2
Fore
SplineSet
309.533203125 97 m 3
 278.533203125 97 250.533203125 103 226.533203125 113 c 0
 220.533203125 116 216.533203125 114 214.533203125 108 c 0
 180.533203125 14 145.533203125 -79 111.533203125 -173 c 0
 101.533203125 -201 67.533203125 -216 38.533203125 -216 c 0
 28.533203125 -216 24.533203125 -205 28.533203125 -194 c 0
 72.533203125 -77 114.533203125 39 158.533203125 156 c 0
 160.533203125 162 160.533203125 167 157.533203125 173 c 0
 148.533203125 188 141.533203125 205 141.533203125 223 c 3
 141.533203125 278 167.533203125 327 227.533203125 364 c 0
 233.533203125 367 237.533203125 372 239.533203125 378 c 0
 309.533203125 567 356.533203125 687 461.533203125 687 c 3
 511.533203125 687 543.533203125 649 543.533203125 618 c 3
 543.533203125 491 417.533203125 414 319.533203125 371 c 0
 313.533203125 368 309.533203125 364 307.533203125 358 c 0
 281.533203125 289 256.533203125 221 230.533203125 152 c 0
 228.533203125 146 230.533203125 142 236.533203125 139 c 0
 259.533203125 129 282.533203125 124 311.533203125 124 c 3
 349.533203125 124 392.533203125 140 427.533203125 174 c 0
 440.533203125 186 449.533203125 156 439.533203125 147 c 0
 395.533203125 109 353.533203125 97 309.533203125 97 c 3
324.533203125 413 m 0
 322.533203125 407 323.533203125 405 329.533203125 408 c 0
 416.533203125 445 518.533203125 518 518.533203125 608 c 3
 518.533203125 650 492.533203125 658 468.533203125 658 c 3
 407.533203125 658 374.533203125 554 354.533203125 499 c 0
 344.533203125 472 335.533203125 443 324.533203125 413 c 0
EndSplineSet
EndChar

StartChar: u1D4BD
Encoding: 119997 119997 34
Width: 717
Flags: HW
HStem: -11 27<394.678 466.702> 414 27<383.33 458.504> 463 26<165.121 212.394 287.394 345.077> 529 20G<77.394 112.894> 678 29<365.517 446.411>
VStem: 329.394 62<16.3746 113.076> 455.394 27<581.563 667.655> 463.394 58<330.093 412.359>
LayerCount: 2
Fore
SplineSet
210.393554688 277 m 2
 208.393554688 271 209.393554688 271 213.393554688 276 c 0
 289.393554688 382 368.393554688 441 431.393554688 441 c 3
 474.393554688 441 521.393554688 416 521.393554688 377 c 3
 521.393554688 346 507.393554688 308 486.393554688 265 c 2
 411.393554688 109 l 2
 403.393554688 91 391.393554688 66 391.393554688 44 c 0
 391.393554688 28 398.393554688 16 418.393554688 16 c 0
 465.393554688 16 535.393554688 62 616.393554688 170 c 0
 623.393554688 180 638.393554688 185 650.393554688 185 c 0
 654.393554688 185 656.393554688 181 653.393554688 177 c 0
 566.393554688 53 484.393554688 -11 418.393554688 -11 c 3
 377.393554688 -11 329.393554688 12 329.393554688 60 c 3
 329.393554688 94 346.393554688 148 367.393554688 188 c 2
 450.393554688 346 l 2
 458.393554688 361 463.393554688 375 463.393554688 387 c 252
 463.393554688 401 451.393554688 414 432.393554688 414 c 3
 344.393554688 414 209.393554688 269 127.393554688 55 c 2
 120.393554688 38 l 2
 110.393554688 11 77.3935546875 -4 49.3935546875 -4 c 0
 40.3935546875 -4 35.3935546875 7 39.3935546875 18 c 0
 94.3935546875 158 153.393554688 314 208.393554688 454 c 0
 210.393554688 460 209.393554688 464 202.393554688 465 c 0
 159.393554688 473 122.393554688 486 79.3935546875 529 c 0
 68.3935546875 540 94.3935546875 547 102.393554688 540 c 0
 137.393554688 509 175.393554688 495 213.393554688 490 c 0
 220.393554688 489 224.393554688 492 227.393554688 498 c 0
 292.393554688 652 333.393554688 707 408.393554688 707 c 3
 452.393554688 707 482.393554688 675 482.393554688 637 c 3
 482.393554688 522 357.393554688 467 285.393554688 461 c 0
 278.393554688 460 274.393554688 458 272.393554688 452 c 2
 210.393554688 277 l 2
290.393554688 499 m 0
 284.393554688 483 318.393554688 492 328.393554688 495 c 0
 388.393554688 512 455.393554688 561 455.393554688 636 c 252
 455.393554688 666 434.393554688 678 410.393554688 678 c 3
 332.393554688 678 326.393554688 598 290.393554688 499 c 0
EndSplineSet
EndChar

StartChar: u1D4BE
Encoding: 119998 119998 35
Width: 468
Flags: HW
HStem: -11 27<225.81 294.298> 306 27<91.2905 202.016> 540 92<319.636 387.5>
VStem: 152 63<20.2119 150.556> 305 95<552.883 616.249>
LayerCount: 2
Fore
SplineSet
305 575 m 0
 305 607 338 632 366 632 c 4
 383 632 400 616 400 594 c 0
 400 563 370 540 343 540 c 4
 321 540 305 555 305 575 c 0
240 331 m 0
 243 337 241 338 236 334 c 0
 214 317 188 306 156 306 c 0
 137 306 115 310 96 317 c 0
 87 320 83 333 83 342 c 0
 83 345 87 346 91 345 c 0
 110 338 131 333 149 333 c 0
 192 333 225 356 250 384 c 0
 268 403 303 418 328 418 c 0
 336 418 341 409 337 399 c 2
 227 128 l 2
 220 110 215 88 215 68 c 0
 215 40 225 16 254 16 c 3
 300 16 347 66 418 163 c 0
 425 173 440 179 452 179 c 0
 456 179 458 175 455 171 c 0
 371 48 312 -11 253 -11 c 3
 193 -11 152 21 152 68 c 3
 152 108 176 181 202 244 c 0
 215 275 227 300 240 331 c 0
EndSplineSet
EndChar

StartChar: u1D4BF
Encoding: 119999 119999 36
Width: 605
Flags: HW
HStem: -289 31<58.7214 166.676> -197 27<338.537 473.099> -142 27<84.177 243.217> 286 27<258.767 372.931> 538 92<511.843 580.5>
VStem: 9 34<-242.903 -171.371> 497 96<550.777 614.249>
LayerCount: 2
Fore
SplineSet
497 573 m 0
 497 605 530 630 559 630 c 4
 576 630 593 614 593 592 c 0
 593 561 563 538 536 538 c 4
 514 538 497 553 497 573 c 0
161 -115 m 3
 178 -115 220 -119 244 -125 c 0
 250 -127 256 -125 258 -119 c 2
 429 324 l 2
 431 330 430 331 425 327 c 0
 390 298 364 286 322 286 c 3
 307 286 285 289 267 295 c 0
 258 298 254 310 254 320 c 0
 254 323 258 324 262 323 c 0
 280 316 303 313 319 313 c 3
 371 313 411 348 441 384 c 0
 458 404 492 417 517 417 c 0
 526 417 531 407 527 397 c 0
 465 236 382 22 320 -138 c 0
 318 -144 319 -148 325 -151 c 0
 351 -163 377 -170 405 -170 c 3
 435 -170 474 -162 501 -141 c 0
 506 -137 510 -139 510 -144 c 0
 510 -156 506 -170 495 -176 c 0
 463 -193 435 -197 405 -197 c 3
 374 -197 338 -189 311 -179 c 0
 305 -177 300 -178 297 -184 c 0
 251 -264 193 -289 116 -289 c 3
 48 -289 9 -250 9 -209 c 0
 9 -187 20 -165 43 -147 c 0
 48 -143 53 -139 59 -136 c 0
 90 -118 128 -115 161 -115 c 3
241 -165 m 0
 244 -159 242 -155 236 -153 c 0
 213 -146 174 -142 157 -142 c 3
 94 -142 43 -163 43 -212 c 3
 43 -237 70 -258 103 -258 c 3
 141 -258 198 -246 241 -165 c 0
EndSplineSet
EndChar

StartChar: u1D4C0
Encoding: 120000 120000 37
Width: 691
Flags: HW
HStem: -11 27<389.555 462.63> 209 27<290.394 339.171> 390 27<389.594 470.655> 461 26<168.198 213.394 287.394 343.267> 528 20G<78.394 113.894> 676 29<378.93 447.043>
VStem: 323.394 61<18.231 128.666> 351.394 54<93.3197 182.804> 453.394 27<589.393 668.149> 479.394 49<304.174 386.008>
LayerCount: 2
Fore
SplineSet
205.393554688 262 m 0
 203.393554688 256 204.393554688 256 208.393554688 261 c 0
 286.393554688 367 371.393554688 417 453.393554688 417 c 128
 495.393554688 417 528.393554688 384 528.393554688 348 c 3
 528.393554688 291 443.393554688 229 340.393554688 222 c 0
 333.393554688 222 333.393554688 220 339.393554688 217 c 0
 377.393554688 195 405.393554688 168 405.393554688 136 c 320
 405.393554688 85 384.393554688 76 384.393554688 44 c 3
 384.393554688 27 399.393554688 16 420.393554688 16 c 3
 458.393554688 16 517.393554688 55 591.393554688 161 c 0
 598.393554688 171 615.393554688 178 627.393554688 178 c 0
 631.393554688 178 633.393554688 173 630.393554688 169 c 0
 548.393554688 45 482.393554688 -11 416.393554688 -11 c 3
 374.393554688 -11 323.393554688 7 323.393554688 51 c 252
 323.393554688 109 351.393554688 119 351.393554688 160 c 3
 351.393554688 180 332.393554688 204 293.393554688 208 c 0
 289.393554688 208 284.393554688 213 284.393554688 216 c 0
 284.393554688 226 290.393554688 236 300.393554688 237 c 0
 392.393554688 246 479.393554688 294 479.393554688 352 c 320
 479.393554688 381 454.393554688 390 441.393554688 390 c 3
 360.393554688 390 203.393554688 254 128.393554688 53 c 0
 126.393554688 47 124.393554688 41 122.393554688 36 c 0
 112.393554688 9 79.3935546875 -5 51.3935546875 -5 c 0
 42.3935546875 -5 37.3935546875 6 41.3935546875 17 c 0
 96.3935546875 157 154.393554688 312 209.393554688 452 c 0
 211.393554688 458 210.393554688 462 203.393554688 463 c 0
 160.393554688 471 123.393554688 484 80.3935546875 527 c 0
 69.3935546875 538 95.3935546875 545 103.393554688 538 c 0
 138.393554688 507 176.393554688 493 214.393554688 488 c 0
 221.393554688 487 225.393554688 490 228.393554688 496 c 0
 292.393554688 650 334.393554688 705 409.393554688 705 c 3
 453.393554688 705 480.393554688 670 480.393554688 642 c 3
 480.393554688 527 360.393554688 466 287.393554688 460 c 0
 280.393554688 459 276.393554688 456 274.393554688 450 c 0
 253.393554688 393 226.393554688 320 205.393554688 262 c 0
290.393554688 497 m 0
 288.393554688 491 290.393554688 487 297.393554688 488 c 0
 375.393554688 494 453.393554688 570 453.393554688 640 c 3
 453.393554688 664 438.393554688 676 411.393554688 676 c 3
 376.393554688 676 339.393554688 629 290.393554688 497 c 0
EndSplineSet
EndChar

StartChar: u1D4C2
Encoding: 120002 120002 38
Width: 967
Flags: HW
HStem: -11 27<723.646 788.523> 272 27<52.1309 160.114> 386 27<435.7 516.613 710.904 794.683>
VStem: 522 51<294.635 384.322> 664 59<16.0661 88.0209> 800 53<306.136 383.682>
LayerCount: 2
Fore
SplineSet
766 413 m 3
 810 413 853 382 853 343 c 3
 853 304 820 236 801 199 c 2
 755 108 l 2
 745 88 723 53 723 33 c 0
 723 23 728 16 744 16 c 0
 792 16 842 62 922 171 c 0
 929 181 944 186 955 186 c 0
 959 186 961 182 958 178 c 0
 876 53 816 -11 742 -11 c 3
 704 -11 664 5 664 55 c 3
 664 92 678 120 701 162 c 2
 783 314 l 2
 796 338 800 348 800 359 c 3
 800 376 781 386 764 386 c 3
 671 386 545 255 461 36 c 0
 451 10 419 -5 392 -5 c 0
 383 -5 379 6 383 16 c 2
 504 302 l 2
 511 318 522 339 522 358 c 3
 522 375 507 386 488 386 c 3
 396 386 269 254 187 38 c 0
 177 11 144 -5 116 -5 c 0
 107 -5 102 6 106 17 c 0
 148 123 182 206 224 313 c 0
 226 319 226 319 221 315 c 0
 190 287 150 272 106 272 c 3
 92 272 76 275 61 281 c 0
 52 285 48 296 48 306 c 0
 48 309 51 311 55 309 c 0
 72 302 87 299 103 299 c 3
 157 299 204 334 236 370 c 0
 252 388 284 402 308 402 c 0
 316 402 320 392 317 383 c 0
 301 339 285 296 269 252 c 0
 267 246 268 246 272 251 c 0
 348 357 428 413 492 413 c 3
 541 413 573 381 573 335 c 3
 573 315 565 297 558 276 c 0
 556 270 557 269 561 274 c 0
 620 357 696 413 766 413 c 3
EndSplineSet
EndChar

StartChar: u1D4C3
Encoding: 120003 120003 39
Width: 765
Flags: HW
HStem: -11 27<450.318 517.203> 272 27<53.1309 160.113> 387 27<440.288 518.898>
VStem: 391 59<16.2232 90.4572> 523 59<301.217 385.229>
LayerCount: 2
Fore
SplineSet
271 252 m 0
 269 246 270 246 274 251 c 0
 351 357 435 414 492 414 c 3
 535 414 582 381 582 342 c 3
 582 301 550 246 532 211 c 2
 481 109 l 2
 471 89 450 54 450 33 c 0
 450 23 455 16 470 16 c 3
 518 16 586 62 667 170 c 0
 674 180 689 186 701 186 c 0
 705 186 707 182 704 178 c 0
 620 54 539 -11 469 -11 c 3
 430 -11 391 12 391 60 c 3
 391 94 407 121 428 161 c 2
 511 319 l 2
 519 334 523 348 523 360 c 3
 523 374 514 387 489 387 c 3
 412 387 278 269 196 55 c 2
 189 38 l 2
 179 11 146 -4 118 -4 c 0
 109 -4 104 7 108 18 c 0
 149 124 184 207 225 314 c 0
 227 320 227 321 222 316 c 0
 191 287 151 272 107 272 c 3
 93 272 77 275 62 281 c 0
 53 285 49 296 49 306 c 0
 49 309 52 311 56 309 c 0
 73 302 88 299 104 299 c 3
 157 299 204 334 236 370 c 0
 253 389 287 403 312 403 c 0
 320 403 325 394 321 384 c 0
 304 340 287 297 271 252 c 0
EndSplineSet
EndChar

StartChar: u1D4C5
Encoding: 120005 120005 40
Width: 722
Flags: HW
HStem: -11 77<344.066 468.413> 298 27<119.396 225.837> 414 27<505.046 590.717>
VStem: 606.394 56<251.268 397.961>
LayerCount: 2
Fore
SplineSet
412.393554688 66 m 3
 428.393554688 66 442.393554688 66 459.393554688 64 c 0
 466.393554688 63 472.393554688 64 477.393554688 68 c 0
 531.393554688 112 606.393554688 264 606.393554688 356 c 3
 606.393554688 391 589.393554688 414 553.393554688 414 c 3
 465.393554688 414 336.393554688 268 252.393554688 53 c 1
 132.393554688 -250 l 2
 121.393554688 -277 88.3935546875 -291 60.3935546875 -291 c 0
 51.3935546875 -291 46.3935546875 -280 50.3935546875 -269 c 0
 121.393554688 -86 219.393554688 161 290.393554688 342 c 0
 292.393554688 348 292.393554688 348 287.393554688 343 c 0
 256.393554688 310 218.393554688 298 172.393554688 298 c 3
 158.393554688 298 142.393554688 301 127.393554688 307 c 0
 118.393554688 311 114.393554688 323 114.393554688 333 c 0
 114.393554688 336 117.393554688 338 121.393554688 336 c 0
 138.393554688 329 153.393554688 325 169.393554688 325 c 3
 222.393554688 325 268.393554688 360 300.393554688 396 c 0
 317.393554688 415 351.393554688 430 376.393554688 430 c 0
 384.393554688 430 390.393554688 420 386.393554688 410 c 0
 370.393554688 368 353.393554688 327 338.393554688 284 c 0
 336.393554688 278 337.393554688 278 341.393554688 283 c 0
 416.393554688 389 493.393554688 441 556.393554688 441 c 3
 609.393554688 441 662.393554688 401 662.393554688 327 c 3
 662.393554688 233 615.393554688 115 535.393554688 50 c 0
 530.393554688 46 530.393554688 43 536.393554688 40 c 0
 571.393554688 25 605.393554688 7 633.393554688 -20 c 0
 640.393554688 -27 638.393554688 -39 634.393554688 -47 c 0
 633.393554688 -50 629.393554688 -49 626.393554688 -47 c 0
 577.393554688 -9 549.393554688 10 503.393554688 16 c 0
 496.393554688 17 490.393554688 15 484.393554688 12 c 0
 459.393554688 -2 434.393554688 -11 406.393554688 -11 c 3
 357.393554688 -11 331.393554688 4 331.393554688 20 c 3
 331.393554688 40 358.393554688 66 412.393554688 66 c 3
EndSplineSet
EndChar

StartChar: u1D4C6
Encoding: 120006 120006 41
Width: 782
Flags: HW
HStem: -11 27<224.754 310.424> 174 27<28.1726 137.96> 388 32<382.886 484.389>
VStem: 152 55<35.6519 158.517>
LayerCount: 2
Fore
SplineSet
396 -185 m 0
 393 -191 394 -191 398 -186 c 0
 449 -123 603 34 667 106 c 0
 673 113 685 116 695 116 c 0
 701 116 706 114 701 108 c 0
 666 65 602 -7 513 -101 c 0
 454 -163 412 -217 388 -250 c 0
 371 -273 334 -291 307 -291 c 0
 298 -291 293 -281 297 -270 c 0
 339 -165 406 -1 445 105 c 0
 447 111 446 111 442 106 c 0
 385 34 322 -11 250 -11 c 3
 189 -11 152 50 152 124 c 0
 152 144 154 165 160 186 c 0
 162 192 161 194 155 190 c 0
 137 179 117 174 93 174 c 3
 74 174 55 177 36 184 c 0
 27 188 23 199 23 209 c 0
 23 212 26 213 30 212 c 0
 49 205 68 201 86 201 c 3
 143 201 178 242 204 281 c 0
 265 372 361 420 440 420 c 3
 483 420 519 395 534 356 c 0
 536 350 538 350 541 356 c 0
 544 362 546 367 549 373 c 0
 559 396 587 408 611 408 c 0
 619 408 624 398 620 389 c 0
 553 215 468 -7 396 -185 c 0
507 324 m 3
 507 358 478 388 449 388 c 3
 392 388 331 358 271 247 c 0
 222 157 207 105 207 68 c 3
 207 41 227 16 260 16 c 3
 378 16 507 238 507 324 c 3
EndSplineSet
EndChar

StartChar: u1D4C7
Encoding: 120007 120007 42
Width: 587
Flags: HW
HStem: 246 27<476.3 546.18> 266 27<34.1309 141.147>
VStem: 414 107<339.466 398.252>
LayerCount: 2
Fore
SplineSet
517 273 m 3
 523 273 550 280 550 273 c 0
 550 263 547 250 537 248 c 0
 532 247 527 246 521 246 c 160
 484 246 451 263 433 288 c 0
 429 293 425 294 419 291 c 0
 350 251 279 190 206 117 c 0
 201 112 198 107 196 101 c 0
 186 75 179 57 171 35 c 0
 161 9 130 -5 104 -5 c 0
 95 -5 90 6 94 16 c 0
 135 123 165 204 206 312 c 0
 208 318 208 319 203 314 c 0
 173 284 132 266 88 266 c 3
 74 266 58 269 43 275 c 0
 34 279 30 290 30 300 c 0
 30 303 33 305 37 303 c 0
 54 296 69 293 85 293 c 3
 138 293 184 328 216 364 c 0
 233 383 268 398 293 398 c 0
 301 398 306 388 302 378 c 0
 275 309 251 247 223 177 c 0
 221 171 221 170 226 175 c 0
 286 238 343 281 406 319 c 0
 414 324 414 330 414 341 c 0
 414 382 437 415 478 415 c 0
 505 415 521 402 521 381 c 3
 521 347 489 328 465 316 c 0
 459 313 457 310 461 304 c 0
 474 284 490 273 517 273 c 3
EndSplineSet
EndChar

StartChar: u1D4C8
Encoding: 120008 120008 43
Width: 380
Flags: HW
HStem: -11 27<102.507 222.019> 215 21<84.667 166.502> 416 20G<271.5 294>
VStem: 48 44<23.8117 98> 238 80<326.354 428.814> 302 70<84.4492 230.296>
LayerCount: 2
Fore
SplineSet
272 287 m 0
 270 293 267 293 263 288 c 0
 207 216 153 225 88 215 c 0
 84 214 81 217 81 220 c 0
 81 228 86 236 94 236 c 0
 147 237 203 241 251 308 c 0
 255 313 256 319 253 325 c 0
 246 340 238 361 238 378 c 3
 238 416 256 436 287 436 c 3
 301 436 318 419 318 395 c 248
 318 373 314 350 294 323 c 0
 290 318 290 312 294 307 c 0
 336 252 372 215 372 157 c 3
 372 117 353 77 321 46 c 0
 277 4 226 -11 158 -11 c 3
 103 -11 48 18 48 82 c 3
 48 114 73 136 97 136 c 3
 119 136 143 125 143 100 c 3
 143 50 92 76 92 44 c 3
 92 27 126 16 152 16 c 3
 253 16 302 79 302 184 c 3
 302 221 285 253 272 287 c 0
EndSplineSet
EndChar

StartChar: u1D4C9
Encoding: 120009 120009 44
Width: 625
Flags: HW
HStem: -11 27<258.412 328.874> 144 27<67.4928 174.029> 364 27<203 296 379 516> 504 20G<347.5 431>
VStem: 187 66<17.3296 123.983>
LayerCount: 2
Fore
SplineSet
230 190 m 0
 232 196 232 197 227 192 c 0
 197 162 163 144 120 144 c 3
 105 144 90 148 75 154 c 0
 66 158 62 169 62 179 c 0
 62 182 66 183 70 182 c 0
 88 175 110 171 126 171 c 3
 188 171 234 234 262 280 c 0
 275 302 282 330 292 355 c 0
 294 361 293 364 286 364 c 2
 205 364 l 2
 201 364 197 368 197 371 c 0
 197 381 202 391 213 391 c 0
 240 391 268 391 295 391 c 0
 302 391 307 394 309 400 c 0
 320 429 332 459 343 489 c 0
 353 516 387 531 415 531 c 0
 424 531 429 520 425 509 c 0
 411 473 398 436 383 400 c 0
 381 394 382 391 389 391 c 0
 431 391 472 391 514 391 c 0
 518 391 522 387 522 384 c 0
 522 374 517 364 506 364 c 2
 380 364 l 2
 373 364 368 361 366 355 c 0
 320 237 314 223 268 105 c 0
 262 90 253 66 253 49 c 0
 253 29 263 16 287 16 c 0
 336 16 381 69 453 167 c 0
 460 177 476 183 488 183 c 0
 492 183 494 178 491 174 c 0
 408 49 351 -11 283 -11 c 3
 242 -11 187 7 187 61 c 3
 187 74 193 97 198 109 c 0
 209 136 219 163 230 190 c 0
EndSplineSet
EndChar

StartChar: u1D4CA
Encoding: 120010 120010 45
Width: 727
Flags: HW
HStem: -11 27<194.857 270.403 474.429 530.987> 294 27<34.1309 143.703>
VStem: 122 62<20.3504 151.062> 408 53<24.8272 130.789>
LayerCount: 2
Fore
SplineSet
205 335 m 0
 207 341 206 341 201 337 c 0
 169 311 131 294 88 294 c 3
 74 294 58 297 43 303 c 0
 34 307 30 318 30 328 c 0
 30 331 33 333 37 331 c 0
 54 324 69 321 85 321 c 3
 137 321 181 352 213 386 c 0
 232 406 268 421 294 421 c 0
 303 421 307 411 303 401 c 2
 207 156 l 2
 196 129 184 103 184 68 c 0
 184 40 194 16 223 16 c 0
 314 16 426 165 505 379 c 0
 515 406 548 422 576 422 c 0
 585 422 590 411 586 400 c 2
 478 126 l 2
 469 103 461 79 461 64 c 3
 461 44 468 22 500 22 c 3
 544 22 593 63 667 164 c 0
 675 174 692 181 704 181 c 0
 708 181 710 176 707 172 c 0
 629 53 565 -8 494 -8 c 3
 439 -8 408 23 408 78 c 0
 408 91 410 106 414 122 c 0
 416 128 414 129 410 124 c 0
 349 43 288 -11 220 -11 c 3
 158 -11 122 25 122 85 c 3
 122 124 137 160 158 214 c 0
 174 255 189 294 205 335 c 0
EndSplineSet
EndChar

StartChar: u1D4CB
Encoding: 120011 120011 46
Width: 650
Flags: HW
HStem: -11 27<203.435 293.746> 175 27<504.765 586.529> 294 27<35.0019 141.037> 416 20G<453 487>
VStem: 129 54<32.4977 150.223> 409 104<254.252 418.391>
LayerCount: 2
Fore
SplineSet
487 241 m 0
 484 235 485 229 490 225 c 0
 509 209 531 202 551 202 c 3
 562 202 572 203 582 207 c 0
 586 209 590 206 590 203 c 0
 590 192 588 180 577 178 c 0
 568 176 558 175 549 175 c 3
 525 175 501 183 478 199 c 0
 473 203 469 202 466 196 c 0
 401 63 333 -11 237 -11 c 3
 173 -11 129 39 129 105 c 3
 129 176 176 268 203 334 c 0
 206 340 205 340 200 336 c 0
 169 310 130 294 88 294 c 3
 74 294 58 297 43 303 c 0
 34 307 30 319 30 329 c 0
 30 332 33 334 37 332 c 0
 54 325 69 321 85 321 c 3
 137 321 182 356 214 391 c 0
 232 411 269 426 295 426 c 0
 304 426 308 416 304 406 c 2
 207 157 l 2
 196 129 183 107 183 70 c 3
 183 37 213 16 241 16 c 3
 302 16 383 75 440 219 c 0
 442 225 442 231 439 237 c 0
 423 267 409 307 409 353 c 3
 409 403 433 436 473 436 c 3
 501 436 513 393 513 364 c 3
 513 317 502 274 487 241 c 0
EndSplineSet
EndChar

StartChar: u1D4CC
Encoding: 120012 120012 47
Width: 896
Flags: HW
HStem: -11 27<202.482 290.929 474.045 564.749> 172 27<774.765 856.507> 292 27<34.1309 141.143> 417 20G<721 756>
VStem: 132 53<32.302 151.519> 404 51<32.7313 110.32> 677 104<252.769 413.696>
LayerCount: 2
Fore
SplineSet
757 238 m 0
 754 232 755 226 760 222 c 0
 779 206 801 199 821 199 c 0
 833 199 841 200 852 204 c 0
 856 205 860 203 860 200 c 0
 860 189 858 177 847 175 c 0
 838 173 828 172 819 172 c 0
 795 172 771 179 748 195 c 0
 743 199 739 198 736 192 c 0
 670 59 605 -11 508 -11 c 3
 452 -11 408 32 404 101 c 0
 404 108 402 109 398 103 c 0
 352 35 308 -11 239 -11 c 3
 175 -11 132 39 132 105 c 3
 132 148 142 181 163 233 c 0
 177 266 190 298 203 331 c 0
 205 337 204 337 199 333 c 0
 168 308 130 292 88 292 c 3
 74 292 58 295 43 301 c 0
 34 305 30 316 30 326 c 0
 30 329 33 331 37 329 c 0
 54 322 69 319 85 319 c 3
 137 319 184 353 216 388 c 0
 234 408 269 423 295 423 c 0
 304 423 309 413 305 403 c 2
 200 133 l 2
 192 113 185 100 185 71 c 3
 185 38 206 16 244 16 c 3
 312 16 372 90 435 242 c 2
 493 384 l 2
 504 410 537 424 564 424 c 0
 573 424 577 413 573 403 c 2
 469 133 l 2
 463 117 455 98 455 77 c 3
 455 43 474 16 512 16 c 3
 573 16 653 71 710 215 c 0
 712 221 712 227 709 233 c 0
 693 262 677 294 677 340 c 3
 677 390 699 437 743 437 c 3
 769 437 781 397 781 368 c 3
 781 321 772 272 757 238 c 0
EndSplineSet
EndChar

StartChar: u1D4CD
Encoding: 120013 120013 48
Width: 661
Flags: HW
HStem: -8 27<83.3324 174.876 354.553 437.56> 386 27<224.563 299.952 471.785 540.726>
VStem: 37.4444 44<18.577 81.5> 544.444 44<321 383.612>
LayerCount: 2
Fore
SplineSet
370.444335938 331 m 0
 371.444335938 324 374.444335938 324 378.444335938 329 c 0
 410.444335938 375 454.444335938 413 497.444335938 413 c 3
 546.444335938 413 588.444335938 394 588.444335938 338 c 3
 588.444335938 304 569.444335938 272 538.444335938 272 c 3
 514.444335938 272 495.444335938 285 495.444335938 304 c 3
 495.444335938 351 544.444335938 329 544.444335938 363 c 3
 544.444335938 375 530.444335938 386 505.444335938 386 c 3
 427.444335938 386 335.444335938 165 335.444335938 84 c 3
 335.444335938 56 349.444335938 19 387.444335938 19 c 3
 447.444335938 19 514.444335938 78 586.444335938 178 c 0
 593.444335938 188 609.444335938 194 621.444335938 194 c 0
 625.444335938 194 627.444335938 189 624.444335938 185 c 0
 547.444335938 64 469.444335938 -8 382.444335938 -8 c 3
 339.444335938 -8 292.444335938 13 282.444335938 72 c 0
 281.444335938 79 279.444335938 79 275.444335938 74 c 0
 224.444335938 15 175.444335938 -11 132.444335938 -11 c 3
 82.4443359375 -11 37.4443359375 13 37.4443359375 63 c 3
 37.4443359375 100 56.4443359375 134 85.4443359375 134 c 3
 107.444335938 134 131.444335938 124 131.444335938 99 c 3
 131.444335938 52 81.4443359375 70 81.4443359375 38 c 3
 81.4443359375 22 102.444335938 16 122.444335938 16 c 3
 252.444335938 16 318.444335938 269 318.444335938 324 c 3
 318.444335938 354 304.444335938 384 271.444335938 384 c 3
 227.444335938 384 155.444335938 346 69.4443359375 230 c 0
 62.4443359375 220 46.4443359375 214 34.4443359375 214 c 0
 30.4443359375 214 28.4443359375 219 31.4443359375 223 c 0
 128.444335938 364 205.444335938 410 273.444335938 410 c 3
 322.444335938 410 360.444335938 382 370.444335938 331 c 0
EndSplineSet
EndChar

StartChar: u1D4CE
Encoding: 120014 120014 49
Width: 700
Flags: HW
HStem: -290 31<130.091 256.551> -198 27<426.399 563.339> -143 27<166.905 330.755> -11 27<227.673 303.575> 296 27<69.1309 176.319>
VStem: 70 37<-239.946 -179.768> 163 54<20.9448 150.735>
LayerCount: 2
Fore
SplineSet
240 337 m 0
 242 343 242 343 237 339 c 0
 204 310 166 296 123 296 c 3
 109 296 93 299 78 305 c 0
 69 309 65 320 65 330 c 0
 65 333 68 335 72 333 c 0
 89 326 104 323 120 323 c 3
 172 323 217 357 249 392 c 0
 267 412 304 427 330 427 c 0
 339 427 343 417 339 407 c 2
 241 156 l 2
 230 129 217 103 217 67 c 0
 217 39 228 16 257 16 c 0
 348 16 461 171 540 385 c 0
 550 413 584 428 612 428 c 0
 621 428 626 417 622 406 c 2
 509 104 l 2
 483 35 436 -77 406 -138 c 0
 403 -144 404 -148 410 -151 c 0
 437 -163 467 -171 496 -171 c 3
 526 -171 564 -163 591 -142 c 0
 596 -138 600 -140 600 -145 c 0
 600 -157 596 -171 585 -177 c 0
 553 -194 526 -198 495 -198 c 3
 464 -198 426 -190 399 -180 c 0
 393 -178 388 -179 385 -185 c 0
 342 -260 283 -290 206 -290 c 3
 138 -290 70 -264 70 -210 c 3
 70 -138 192 -116 251 -116 c 3
 268 -116 310 -120 334 -126 c 0
 340 -128 345 -126 348 -120 c 0
 365 -79 427 66 452 130 c 0
 454 136 454 136 450 131 c 0
 389 49 318 -11 254 -11 c 3
 193 -11 163 35 163 95 c 3
 163 134 171 160 192 214 c 0
 208 255 224 296 240 337 c 0
330 -167 m 0
 333 -161 331 -156 325 -154 c 0
 302 -146 265 -143 246 -143 c 3
 183 -143 107 -168 107 -217 c 3
 107 -242 160 -259 193 -259 c 3
 231 -259 287 -248 330 -167 c 0
EndSplineSet
EndChar

StartChar: u1D4CF
Encoding: 120015 120015 50
Width: 664
Flags: HW
HStem: -11 36<378 479.631> 128 28<270.592 339.328> 246 27<34.7241 143.18> 266 27<247.394 358.55> 416 20G<170.5 199>
VStem: 144 93<335.823 426.5> 335 68<25.5967 99.2921> 345 66<38.231 125.654>
LayerCount: 2
Fore
SplineSet
258 140 m 0
 253 135 254 135 260 138 c 0
 287 151 318 156 332 156 c 3
 381 156 411 130 411 101 c 220
 411 73 403 63 403 40 c 3
 403 31 415 25 423 25 c 3
 464 25 523 53 586 153 c 0
 592 163 608 169 619 169 c 0
 623 169 624 165 622 161 c 0
 537 12 465 -11 399 -11 c 3
 357 -11 335 5 335 34 c 220
 335 64 345 76 345 100 c 3
 345 116 327 128 311 128 c 3
 268 128 233 110 194 56 c 0
 158 7 132 -6 108 -6 c 3
 95 -6 84 3 84 13 c 3
 84 39 104 72 186 115 c 0
 192 118 197 122 202 127 c 0
 228 152 296 216 352 270 c 0
 357 275 356 276 350 274 c 0
 337 270 320 266 308 266 c 220
 274 266 241 277 213 295 c 0
 207 299 203 298 198 293 c 0
 170 263 128 246 90 246 c 3
 76 246 59 249 44 255 c 0
 34 259 30 270 30 280 c 0
 30 283 34 285 38 283 c 0
 55 276 69 273 85 273 c 236
 126 273 153 288 175 311 c 0
 180 316 180 320 175 325 c 0
 159 342 144 363 144 381 c 3
 144 410 157 436 184 436 c 3
 214 436 237 416 237 382 c 3
 237 365 229 351 223 336 c 0
 221 330 222 324 227 320 c 0
 249 301 277 293 302 293 c 3
 329 293 368 300 381 320 c 0
 419 381 460 400 482 400 c 3
 498 400 515 393 515 378 c 3
 515 347 484 317 419 293 c 0
 413 291 408 288 403 283 c 0
 344 227 322 203 258 140 c 0
EndSplineSet
EndChar

StartChar: u1D4D0
Encoding: 120016 120016 51
Width: 948
Flags: HW
HStem: -6 35<157.469 273.048> 40 39<444.837 535.058> 459 49<318.82 463.636> 649 20G<779 814>
VStem: 52 151<86.3597 176.217> 176 93<226.264 403.568>
LayerCount: 2
Fore
SplineSet
689 33 m 0
 683 12 672 0 650 0 c 2
 553 0 l 2
 537 0 530 5 530 17 c 0
 530 26 538 40 525 41 c 0
 475 45 432 54 386 73 c 0
 380 76 375 75 370 70 c 0
 329 28 277 -6 223 -6 c 0
 131 -6 52 34 52 110 c 0
 52 162 76 201 123 201 c 0
 167 201 203 165 203 131 c 248
 203 104 182 78 149 68 c 0
 143 66 139 63 143 58 c 0
 156 42 195 29 215 29 c 0
 258 29 296 57 329 90 c 0
 334 95 333 99 327 102 c 0
 247 148 176 217 176 306 c 0
 176 429 262 508 368 508 c 0
 424 508 485 482 531 446 c 0
 536 442 541 443 544 449 c 0
 595 542 688 669 810 669 c 0
 823 669 843 667 859 660 c 0
 870 655 874 646 874 636 c 0
 874 630 873 623 870 616 c 0
 812 446 768 307 706 93 c 0
 704 87 706 85 712 87 c 0
 740 97 765 112 787 125 c 0
 793 128 797 125 797 120 c 0
 797 105 793 87 781 79 c 0
 757 63 730 52 701 45 c 0
 695 43 691 39 689 33 c 0
537 81 m 0
 544 80 548 83 550 89 c 0
 566 142 581 189 600 246 c 0
 602 252 602 259 600 265 c 0
 589 300 570 332 554 357 c 0
 550 363 547 363 544 357 c 0
 509 288 467 200 413 123 c 0
 409 118 410 113 416 110 c 0
 454 93 494 85 537 81 c 0
362 143 m 0
 367 139 372 140 376 145 c 0
 432 218 471 307 514 392 c 0
 517 398 517 404 512 408 c 0
 473 441 419 459 375 459 c 0
 311 459 269 396 269 313 c 244
 269 243 309 183 362 143 c 0
621 326 m 0
 624 320 626 321 628 327 c 0
 671 447 701 511 743 605 c 0
 746 611 745 613 739 609 c 0
 676 567 627 517 575 417 c 0
 572 411 572 406 576 401 c 0
 592 380 610 352 621 326 c 0
EndSplineSet
EndChar

StartChar: u1D4D1
Encoding: 120017 120017 52
Width: 957
Flags: HW
HStem: -21 42<150.976 310.46> -13 38<674.86 771.477> 195 39<695.191 735.359> 225 41<253.333 384.894> 302 58<674.931 739.338> 617 39<368.665 696.082>
VStem: 50 145<83.9272 179.066> 112 101<316.67 478.233> 463 39<355.424 485> 597 58<41.908 155.679> 826 96<87.6344 242.03> 833 95<388.967 518.541>
LayerCount: 2
Fore
SplineSet
463 446 m 0
 463 457 456 489 469 489 c 0
 484 489 500 481 501 466 c 0
 502 456 502 447 502 437 c 0
 502 323 442 225 315 225 c 0
 265 225 218 236 178 268 c 0
 144 295 112 337 112 383 c 0
 112 488 176 559 268 606 c 0
 345 646 429 656 513 656 c 0
 587 656 676 648 750 621 c 0
 756 619 762 619 768 622 c 0
 789 634 811 645 840 655 c 0
 846 657 852 654 852 649 c 0
 852 634 843 615 829 608 c 0
 825 606 801 598 814 590 c 0
 870 557 928 523 928 455 c 464
 928 391 899 346 810 327 c 0
 810 326 l 0
 810 325 810 325 811 325 c 0
 880 294 922 239 922 194 c 0
 922 133 908 73 852 28 c 0
 819 1 777 -13 720 -13 c 0
 637 -13 597 45 597 82 c 0
 597 128 616 215 728 233 c 0
 734 234 740 230 740 225 c 0
 740 210 727 195 713 189 c 0
 673 171 655 120 655 84 c 0
 655 54 686 25 722 25 c 224
 784 25 826 103 826 178 c 0
 826 232 779 278 748 301 c 0
 743 305 737 306 730 305 c 0
 717 303 700 302 687 302 c 0
 673 302 658 309 653 296 c 0
 571 83 427 -21 254 -21 c 0
 138 -21 50 32 50 108 c 0
 50 159 71 201 118 201 c 0
 162 201 195 168 195 134 c 736
 195 98 176 75 137 65 c 0
 131 63 129 61 134 56 c 0
 153 38 176 21 228 21 c 0
 332 21 397 81 484 282 c 0
 558 456 599 513 710 586 c 0
 716 590 715 593 709 595 c 0
 660 612 600 617 522 617 c 0
 285 617 213 524 213 364 c 0
 213 304 264 266 319 266 c 0
 394 266 463 335 463 446 c 0
776 560 m 0
 771 564 765 564 760 559 c 0
 709 509 704 458 678 369 c 0
 676 363 678 360 685 359 c 0
 701 357 722 355 736 350 c 0
 742 348 749 346 755 348 c 0
 802 362 833 406 833 460 c 0
 833 508 809 536 776 560 c 0
EndSplineSet
EndChar

StartChar: u1D4D2
Encoding: 120018 120018 53
Width: 932
Flags: HW
HStem: -21 38<441.359 566.498> 258 41<520.653 619.279> 617 38<646.678 768.305> 625 39<244.129 425.796>
VStem: 55 91<387.971 538.94> 229 151<95.4029 279.435> 423 38<116 188.835> 647 112<101.032 232.218> 785 72<498.024 602.708>
LayerCount: 2
Fore
SplineSet
433 110 m 0
 428 110 423 116 423 123 c 0
 423 229 489 299 598 299 c 0
 685 299 759 263 759 189 c 0
 759 140 739 89 701 50 c 0
 654 2 575 -21 488 -21 c 0
 363 -21 229 48 229 175 c 0
 229 207 233 245 241 282 c 0
 242 289 241 293 234 294 c 0
 133 315 55 364 55 460 c 0
 55 561 138 664 315 664 c 0
 348 664 389 662 435 643 c 0
 450 637 456 618 456 602 c 0
 456 597 451 594 445 597 c 0
 407 617 354 625 329 625 c 384
 238 625 146 565 146 462 c 0
 146 394 181 356 245 337 c 0
 251 335 255 338 257 344 c 0
 264 367 273 388 282 405 c 0
 357 546 558 655 716 655 c 0
 794 655 857 634 857 576 c 0
 857 437 648 294 404 282 c 0
 397 282 393 279 392 272 c 0
 383 231 380 195 380 155 c 0
 380 93 431 17 493 17 c 0
 593 17 647 100 647 174 c 0
 647 225 605 258 581 258 c 0
 522 258 473 211 463 134 c 0
 461 119 447 110 433 110 c 0
409 332 m 0
 407 326 409 322 416 323 c 0
 570 339 785 429 785 556 c 0
 785 600 749 617 718 617 c 896
 628 617 473 502 415 348 c 0
 413 342 411 337 409 332 c 0
EndSplineSet
EndChar

StartChar: u1D4D3
Encoding: 120019 120019 54
Width: 920
Flags: HW
HStem: -17 34<192.353 333.071 473.04 661.122> 116 36<184.481 272.231> 192 37<239.352 388.895> 619 32<302.941 509.045>
VStem: 60 97<303.366 492.748> 85 90<30.27 110.384> 469 42<311.216 481.665> 785 100<155.308 357>
LayerCount: 2
Fore
SplineSet
85 61 m 247
 85 90 98 117 127 131 c 0
 150 142 181 152 216 152 c 0
 296 152 344 113 394 77 c 0
 399 73 405 73 410 77 c 0
 456 116 470 169 521 279 c 0
 559 361 599 435 658 500 c 0
 662 505 663 510 658 515 c 0
 592 576 506 619 416 619 c 0
 327 619 256 594 211 556 c 0
 166 518 157 445 157 376 c 0
 157 298 227 229 314 229 c 0
 393 229 469 279 469 417 c 0
 469 435 468 454 465 475 c 0
 464 481 468 487 473 487 c 0
 488 487 505 479 507 464 c 0
 510 444 511 427 511 409 c 0
 511 268 424 192 321 192 c 0
 183 192 60 251 60 384 c 251
 60 475 97 543 158 586 c 0
 228 635 319 651 400 651 c 0
 516 651 619 613 701 555 c 0
 706 551 712 552 717 556 c 0
 754 585 784 598 831 615 c 0
 836 617 841 614 841 610 c 0
 841 596 829 578 818 569 c 0
 798 554 786 534 771 510 c 0
 767 504 768 499 773 494 c 0
 830 435 885 342 885 264 c 0
 885 97 760 -21 580 -21 c 0
 518 -21 463 -12 418 6 c 0
 412 8 405 9 399 7 c 0
 358 -8 311 -17 252 -17 c 0
 207 -17 171 -13 143 -2 c 0
 109 11 85 34 85 61 c 247
344 38 m 0
 350 41 350 44 345 48 c 0
 306 77 260 116 220 116 c 0
 181 116 175 82 175 65 c 247
 175 45 198 17 241 17 c 0
 280 17 314 26 344 38 c 0
738 417 m 0
 735 423 731 422 729 416 c 0
 716 376 705 334 693 300 c 0
 650 182 578 102 473 42 c 0
 467 39 467 36 473 34 c 0
 502 24 535 16 566 16 c 0
 701 16 785 100 785 276 c 0
 785 328 762 377 738 417 c 0
EndSplineSet
EndChar

StartChar: u1D4D4
Encoding: 120020 120020 55
Width: 833
Flags: HW
HStem: -21 28<337.514 451.902> 259 30<421.126 510.861> 295 57<437.231 521.649> 612 24<279.489 355.286 567.379 646.68> 619 29<218.512 356.528>
VStem: 60 91<443.244 564.214> 107 157<83.569 217.074> 306 130<391.311 477.987> 312 34<115.382 174.298> 546 109<89.9664 231.021> 658 90<494.814 605.922>
LayerCount: 2
Fore
SplineSet
612 612 m 352
 532 612 443 505 436 400 c 0
 436 393 439 390 446 391 c 0
 567 412 658 483 658 550 c 0
 658 554 658 559 658 563 c 0
 658 586 655 612 612 612 c 352
321 387 m 0
 328 386 328 389 325 395 c 0
 316 411 306 437 306 458 c 352
 306 568 476 636 607 636 c 0
 695 636 748 612 748 556 c 0
 748 471 628 377 447 358 c 0
 440 357 440 358 447 357 c 0
 471 355 523 348 523 323 c 0
 523 306 496 295 477 295 c 0
 454 295 436 308 423 316 c 0
 417 319 411 319 405 317 c 0
 318 283 264 214 264 131 c 0
 264 71 319 7 390 7 c 0
 478 7 546 85 546 170 c 0
 546 213 515 259 470 259 c 0
 416 259 366 212 349 132 c 0
 346 119 333 111 320 111 c 0
 316 111 312 117 312 122 c 0
 322 232 381 289 493 289 c 0
 591 289 655 242 655 168 c 0
 655 123 642 89 616 60 c 0
 565 3 474 -21 396 -21 c 0
 267 -21 107 34 107 152 c 736
 107 251 180 316 321 354 c 0
 327 356 328 357 321 357 c 0
 176 366 60 407 60 501 c 0
 60 581 123 648 255 648 c 0
 288 648 316 648 345 639 c 0
 356 636 361 622 361 611 c 0
 361 607 356 606 352 607 c 0
 326 615 309 619 278 619 c 0
 195 619 151 556 151 498 c 96
 151 427 230 395 321 387 c 0
EndSplineSet
EndChar

StartChar: u1D4D5
Encoding: 120021 120021 56
Width: 990
Flags: HW
HStem: -21 36<210.557 353.741> 66 135<167 222.08> 319 44<668.219 791> 324 87<830.031 872.372> 336 36<273.92 389.392> 534 91<644.534 853.425> 632 31<323.169 482.559>
VStem: 95 148<83.9272 177.857> 137 91<411.091 555.561> 451 33<456.953 535> 790 40<244.439 319> 796 88<363 399.257>
LayerCount: 2
Fore
SplineSet
790 302 m 0
 790 312 791 319 781 319 c 0
 738 318 701 311 665 301 c 0
 659 299 654 295 652 289 c 0
 592 76 456 -21 292 -21 c 0
 176 -21 95 32 95 108 c 0
 95 159 119 201 166 201 c 0
 210 201 243 168 243 134 c 0
 243 98 222 71 177 67 c 0
 170 66 169 64 174 59 c 0
 191 42 227 15 278 15 c 0
 396 15 433 109 476 218 c 0
 478 224 477 226 471 223 c 0
 426 198 383 169 357 148 c 0
 352 144 346 143 339 143 c 0
 332 143 307 147 319 160 c 0
 350 193 418 244 497 285 c 0
 503 288 507 292 510 298 c 0
 561 405 624 473 673 513 c 0
 677 516 681 518 686 518 c 0
 695 518 714 511 706 497 c 0
 689 467 680 416 668 357 c 0
 667 350 670 349 676 350 c 0
 709 357 744 362 786 363 c 0
 793 363 797 367 799 373 c 0
 806 392 823 411 853 411 c 0
 864 411 884 397 884 374 c 848
 884 355 867 331 840 325 c 0
 833 324 830 321 830 314 c 0
 832 284 837 259 840 248 c 0
 841 242 837 235 832 235 c 0
 816 235 797 242 794 259 c 0
 792 272 790 286 790 302 c 0
946 665 m 0
 952 669 955 663 955 657 c 0
 955 645 951 629 942 621 c 0
 896 577 839 534 771 534 c 0
 619 534 509 632 405 632 c 0
 289 632 228 561 228 475 c 0
 228 400 293 372 333 372 c 0
 396 372 437 420 449 520 c 0
 451 533 464 539 476 539 c 0
 480 539 484 534 484 529 c 0
 481 418 427 336 331 336 c 0
 301 336 266 337 235 352 c 0
 184 377 137 415 137 478 c 704
 137 556 173 592 240 627 c 0
 294 655 368 663 454 663 c 0
 565 663 700 625 806 625 c 0
 841 625 906 639 946 665 c 0
EndSplineSet
EndChar

StartChar: u1D4D6
Encoding: 120022 120022 57
Width: 791
Flags: HW
HStem: -21 52<236.458 420.458> 150 44<398.853 525.091> 617 37<579.044 675.271> 627 39<214.354 380.953>
VStem: 65 90<455.54 574.607> 130 148<90.6229 178.2> 229 154<237.742 354.132> 685 89<501.792 610.296>
LayerCount: 2
Fore
SplineSet
244 414 m 0
 250 412 255 414 258 420 c 0
 327 566 510 654 628 654 c 0
 709 654 774 625 774 564 c 0
 774 435 552 363 406 355 c 0
 399 355 395 351 393 345 c 0
 387 323 383 299 383 265 c 235
 383 231 401 194 435 194 c 0
 519 194 570 235 664 332 c 0
 677 345 702 353 720 353 c 0
 723 353 724 350 724 346 c 0
 722 325 696 247 681 189 c 0
 645 44 519 -21 337 -21 c 0
 221 -21 130 32 130 108 c 0
 130 159 153 201 200 201 c 0
 244 201 278 168 278 134 c 228
 278 105 259 80 226 75 c 0
 219 74 218 71 222 66 c 0
 234 51 255 31 319 31 c 0
 415 31 482 71 525 163 c 0
 528 169 526 170 520 168 c 0
 494 158 455 150 427 150 c 0
 334 150 229 217 229 302 c 0
 229 324 231 342 235 359 c 0
 237 365 234 369 228 371 c 0
 134 395 65 443 65 515 c 235
 65 602 143 666 278 666 c 212
 310 666 336 664 364 656 c 0
 379 652 386 633 386 618 c 0
 386 613 380 609 374 611 c 0
 346 619 315 627 294 627 c 0
 202 627 155 569 155 507 c 0
 155 462 193 432 244 414 c 0
416 403 m 0
 413 397 415 393 422 394 c 0
 558 406 685 475 685 560 c 0
 685 597 668 617 638 617 c 0
 556 617 467 507 416 403 c 0
EndSplineSet
EndChar

StartChar: u1D4D7
Encoding: 120023 120023 58
Width: 1124
Flags: HW
HStem: -18 39<165.37 232.337 667.83 726.391> 387 39<260.751 352.8> 560 47<486.965 574> 621 39<273.481 398.752 947.133 1010.23>
VStem: 82 81<19.7898 117.481> 145 91<449.546 581.223> 533 126<39.8588 155.91> 1014 75<541.131 619.08>
LayerCount: 2
Fore
SplineSet
673 -18 m 247
 572 -18 533 44 533 130 c 0
 533 196 560 252 586 298 c 0
 589 304 587 305 581 303 c 0
 565 297 548 292 532 286 c 0
 526 284 522 280 519 274 c 0
 454 130 343 -21 197 -21 c 0
 133 -21 82 3 82 57 c 251
 82 205 215 240 344 277 c 0
 350 279 355 283 358 289 c 0
 401 380 461 448 567 553 c 0
 572 558 571 560 564 560 c 0
 455 563 389 621 318 621 c 0
 264 621 236 554 236 506 c 0
 236 453 276 426 306 426 c 0
 315 426 325 429 334 433 c 0
 346 439 368 447 383 447 c 0
 391 447 398 443 392 435 c 0
 369 406 343 387 295 387 c 0
 210 387 145 437 145 506 c 0
 145 580 186 660 312 660 c 0
 438 660 502 607 616 607 c 0
 665 607 692 637 728 663 c 0
 736 669 741 666 741 658 c 0
 741 639 732 613 717 601 c 0
 639 537 603 481 551 352 c 0
 549 346 550 344 556 346 c 0
 577 353 599 360 620 368 c 0
 626 370 631 374 635 380 c 0
 748 552 893 660 1001 660 c 0
 1051 660 1089 655 1089 615 c 0
 1089 501 954 438 811 385 c 0
 805 383 799 379 796 373 c 0
 730 264 659 135 659 77 c 0
 659 55 670 21 690 21 c 0
 716 21 753 61 807 140 c 0
 817 155 840 163 857 163 c 0
 863 163 864 157 861 151 c 0
 836 108 814 76 796 52 c 0
 784 36 771 21 755 9 c 0
 731 -8 701 -18 673 -18 c 247
843 452 m 0
 840 446 841 444 847 446 c 0
 930 473 1014 512 1014 587 c 0
 1014 599 1010 621 981 621 c 0
 937 621 890 533 843 452 c 0
322 200 m 0
 325 206 322 209 316 206 c 0
 236 172 163 127 163 54 c 0
 163 38 173 18 194 18 c 0
 238 18 286 113 322 200 c 0
EndSplineSet
EndChar

StartChar: u1D4D8
Encoding: 120024 120024 59
Width: 933
Flags: HW
HStem: -21 39<167.643 359.436> 67 134<141 192.215> 590 68<810.086 899.61> 599 47<591.361 754.979>
VStem: 65 148<87.2562 177.857> 393 86<346.402 497.873>
LayerCount: 2
Fore
SplineSet
802 583 m 0
 746 530 720 395 687 296 c 0
 685 290 687 287 693 289 c 0
 743 305 778 339 807 391 c 0
 815 405 835 414 850 414 c 0
 855 414 857 409 855 403 c 0
 832 343 778 271 678 247 c 0
 672 245 668 242 665 236 c 0
 642 180 615 129 581 94 c 0
 500 9 406 -21 272 -21 c 0
 156 -21 65 32 65 108 c 0
 65 159 89 201 136 201 c 0
 180 201 213 168 213 134 c 0
 213 103 191 72 151 68 c 0
 144 67 142 65 146 59 c 0
 159 39 180 18 255 18 c 0
 373 18 444 63 509 246 c 0
 511 252 509 257 503 260 c 0
 477 273 453 294 434 317 c 0
 411 344 393 385 393 426 c 0
 393 498 416 550 456 584 c 0
 510 629 585 646 658 646 c 220
 701 646 742 642 770 638 c 0
 777 637 783 638 789 641 c 0
 818 654 846 658 858 658 c 0
 889 658 916 652 916 633 c 0
 916 616 878 593 844 593 c 0
 836 593 826 590 816 590 c 0
 809 590 807 588 802 583 c 0
519 311 m 0
 524 307 528 309 530 315 c 0
 566 424 651 525 748 591 c 0
 754 595 753 598 746 598 c 0
 736 599 726 599 716 599 c 0
 545 599 479 508 479 410 c 0
 479 366 493 333 519 311 c 0
EndSplineSet
EndChar

StartChar: u1D4D9
Encoding: 120025 120025 60
Width: 815
Flags: HW
HStem: -224 38<138.404 214.471> 598 61<687.516 790.95> 609 37<456.292 642.785>
VStem: 47 78<-176.263 -78.5144> 266 101<353.882 516.817>
LayerCount: 2
Fore
SplineSet
266 424 m 216
 266 574 395 646 543 646 c 184
 601 646 629 639 660 636 c 0
 667 635 672 637 678 641 c 0
 703 657 726 659 741 659 c 0
 775 659 795 643 795 623 c 0
 795 600 745 598 720 598 c 0
 705 598 689 605 680 595 c 0
 641 550 602 417 570 324 c 0
 568 318 570 316 576 318 c 0
 620 332 656 360 682 410 c 0
 689 424 708 434 723 434 c 0
 728 434 731 428 729 422 c 0
 700 342 638 295 562 276 c 0
 556 274 551 271 549 265 c 0
 536 226 526 191 513 150 c 0
 511 144 512 143 518 146 c 0
 536 156 553 168 569 183 c 0
 582 195 610 208 628 208 c 0
 635 208 637 203 632 196 c 0
 599 152 556 116 501 90 c 0
 495 87 491 82 489 76 c 0
 431 -81 317 -224 165 -224 c 0
 100 -224 47 -192 47 -133 c 0
 47 8 182 40 327 78 c 0
 333 80 337 85 339 91 c 0
 356 156 372 209 391 265 c 0
 393 271 390 275 384 277 c 0
 354 287 325 306 304 330 c 0
 284 354 266 393 266 424 c 216
405 331 m 0
 410 327 413 329 416 335 c 0
 459 434 555 533 635 601 c 0
 640 605 640 607 633 607 c 0
 610 608 586 609 563 609 c 0
 518 609 475 605 439 582 c 0
 394 554 367 476 367 418 c 0
 367 383 380 352 405 331 c 0
320 23 m 0
 322 29 320 31 314 29 c 0
 220 -5 125 -59 125 -141 c 0
 125 -158 146 -186 171 -186 c 0
 238 -186 289 -78 320 23 c 0
EndSplineSet
EndChar

StartChar: u1D4DA
Encoding: 120026 120026 61
Width: 1056
Flags: HW
HStem: -18 39<128.444 263.401 692.592 766.575> 300 59<591 624.345> 339 39<267.458 369.99> 521 135<947.63 1011.21> 551 42<512.018 619.166> 617 39<266.765 418.058>
VStem: 19 148<83.9272 177.857> 131 91<425.238 572.187> 572 108<30.4222 103.987> 629 127<184.432 283.819> 920 116<547.484 603.14>
LayerCount: 2
Fore
SplineSet
743 643 m 0
 748 648 754 647 755 642 c 0
 756 638 757 634 757 629 c 0
 757 617 753 604 744 596 c 0
 657 521 629 454 595 368 c 0
 593 362 594 359 601 359 c 0
 615 358 630 351 643 356 c 0
 666 366 694 376 732 443 c 0
 809 582 879 656 951 656 c 0
 1002 656 1036 620 1036 588 c 0
 1036 550 1017 521 980 521 c 0
 947 521 933 562 923 594 c 0
 921 600 919 601 916 595 c 0
 854 465 839 363 690 321 c 0
 689 321 689 320 689 320 c 0
 689 319 689 318 690 318 c 0
 728 298 756 267 756 234 c 352
 756 212 755 189 747 168 c 0
 729 122 680 92 680 68 c 0
 680 49 704 21 722 21 c 0
 748 21 796 50 855 134 c 0
 864 147 885 155 900 155 c 0
 905 155 907 149 904 144 c 0
 846 40 782 -18 704 -18 c 0
 626 -18 572 23 572 76 c 160
 572 114 584 140 604 178 c 0
 617 202 629 227 629 254 c 0
 629 260 629 265 629 268 c 0
 629 285 607 298 588 301 c 0
 581 302 577 298 575 292 c 0
 507 46 356 -21 216 -21 c 0
 104 -21 19 32 19 108 c 0
 19 159 43 201 90 201 c 0
 134 201 167 168 167 134 c 608
 167 102 148 73 109 66 c 0
 102 65 101 63 106 58 c 0
 122 42 153 18 192 18 c 0
 278 18 333 101 370 204 c 0
 429 367 496 428 613 546 c 0
 618 551 617 552 610 552 c 0
 602 551 594 551 587 551 c 0
 472 551 432 617 318 617 c 0
 265 617 222 568 222 493 c 0
 222 441 264 378 314 378 c 0
 336 378 357 385 376 401 c 0
 388 411 414 426 429 426 c 0
 434 426 436 421 433 416 c 0
 408 371 372 339 308 339 c 0
 211 339 131 401 131 491 c 0
 131 572 190 656 312 656 c 0
 360 656 426 656 489 625 c 0
 495 622 501 618 507 615 c 0
 541 598 566 593 580 593 c 0
 617 593 691 593 743 643 c 0
EndSplineSet
EndChar

StartChar: u1D4DB
Encoding: 120027 120027 62
Width: 968
Flags: HW
HStem: -18 41<146.26 282.907 447.414 638.22> 105 39<144.823 258.324> 283 35<361.558 494.719> 598 39<775.278 842.486> 621 36<332.019 512.806>
VStem: 45 90<34.8599 96.0571> 139 102<395.336 540.595> 853 91<476.539 590.906>
LayerCount: 2
Fore
SplineSet
45 61 m 0
 45 123 109 144 177 144 c 0
 246 144 305 119 358 91 c 0
 364 88 370 88 375 92 c 0
 424 128 457 185 491 275 c 0
 493 281 492 284 485 284 c 0
 476 284 466 283 457 283 c 0
 296 283 139 321 139 465 c 0
 139 574 237 657 398 657 c 0
 443 657 509 651 575 619 c 0
 589 612 595 593 595 578 c 0
 595 573 589 571 584 574 c 0
 506 614 444 621 413 621 c 235
 316 621 241 556 241 461 c 0
 241 360 361 318 493 318 c 0
 502 318 507 319 510 327 c 0
 528 375 542 404 563 444 c 0
 572 462 582 479 593 495 c 0
 642 566 734 637 821 637 c 243
 899 637 944 601 944 550 c 0
 944 455 834 351 678 308 c 0
 672 306 667 302 665 296 c 0
 622 174 547 108 450 51 c 0
 444 48 444 45 450 42 c 0
 476 30 506 18 526 18 c 0
 603 18 695 55 768 134 c 0
 780 147 806 157 824 157 c 0
 831 157 833 152 828 145 c 0
 750 33 650 -21 539 -21 c 0
 470 -21 428 -8 393 11 c 0
 387 14 381 15 375 12 c 0
 330 -7 280 -18 208 -18 c 0
 134 -18 45 2 45 61 c 0
683 357 m 0
 681 351 684 348 690 350 c 0
 780 385 853 451 853 548 c 0
 853 571 833 598 817 598 c 243
 749 598 711 465 683 357 c 0
307 55 m 0
 313 58 313 61 307 64 c 0
 266 86 215 105 177 105 c 0
 152 105 135 88 135 67 c 4
 135 47 159 23 202 23 c 0
 242 23 277 39 307 55 c 0
EndSplineSet
EndChar

StartChar: u1D4DC
Encoding: 120028 120028 63
Width: 1174
Flags: HW
HStem: -21 39<134.42 248.648 922.517 980.64> 55 133<113 166.125> 639 20G<762 805.5 1059.5 1098.5>
VStem: 40 151<73.2932 163.217> 431 144<48.9992 164.884> 777 137<25.398 151.168>
LayerCount: 2
Fore
SplineSet
1093 659 m 0
 1119 659 1153 655 1153 630 c 0
 1153 623 1151 615 1147 607 c 0
 1001 317 914 129 914 68 c 0
 914 49 924 21 942 21 c 0
 974 21 1024 69 1077 147 c 0
 1084 157 1091 162 1099 162 c 0
 1106 162 1120 153 1125 150 c 1
 1059 54 1014 -18 931 -18 c 0
 854 -18 777 12 777 77 c 0
 777 185 852 339 995 587 c 0
 998 593 997 594 992 590 c 0
 914 528 844 429 757 245 c 0
 718 162 699 90 664 50 c 0
 632 14 599 -4 548 -4 c 0
 487 -4 431 28 431 97 c 0
 431 132 446 165 458 193 c 0
 518 330 588 461 673 587 c 0
 677 593 677 593 672 588 c 0
 592 513 533 458 467 336 c 0
 406 224 366 125 325 64 c 0
 296 21 255 -21 198 -21 c 0
 116 -21 40 21 40 97 c 0
 40 149 64 188 111 188 c 0
 155 188 191 152 191 118 c 0
 191 80 167 59 123 55 c 0
 116 54 115 53 120 48 c 0
 136 32 162 18 199 18 c 0
 265 18 295 94 382 263 c 0
 457 410 510 476 568 543 c 0
 642 629 726 659 798 659 c 0
 821 659 842 652 842 632 c 0
 842 624 839 616 834 608 c 0
 729 427 623 248 590 147 c 0
 583 126 576 99 576 72 c 0
 576 58 579 48 588 48 c 0
 631 48 694 211 716 257 c 0
 772 375 825 466 897 551 c 0
 953 617 1026 659 1093 659 c 0
EndSplineSet
EndChar

StartChar: u1D4DD
Encoding: 120029 120029 64
Width: 1075
Flags: HW
HStem: -21 39<157.446 261.614> 57 131<133 189.76> 524 135<913.366 1002.43>
VStem: 60 154<74.5202 163.458> 539 137<311.952 521> 573 130<125 228.604>
LayerCount: 2
Fore
SplineSet
695 362 m 0
 699 302 703 248 703 196 c 0
 703 179 702 162 701 145 c 2
 700 135 l 2
 699 128 701 128 704 134 c 0
 734 186 769 272 783 327 c 0
 810 433 821 563 882 634 c 0
 900 655 914 659 951 659 c 0
 999 659 1020 623 1020 591 c 0
 1020 553 999 524 964 524 c 0
 933 524 912 541 898 566 c 0
 895 572 890 573 887 567 c 0
 859 522 848 400 811 267 c 0
 783 166 728 69 661 4 c 0
 644 -13 611 -19 588 -19 c 0
 574 -19 573 -3 573 12 c 244
 573 84 558 160 544 284 c 0
 541 314 539 343 539 373 c 0
 539 418 543 463 545 511 c 0
 545 518 544 518 541 512 c 0
 513 455 474 376 453 316 c 0
 412 199 373 109 334 61 c 0
 297 16 258 -21 209 -21 c 0
 135 -21 60 23 60 98 c 0
 60 140 82 188 133 188 c 0
 180 188 214 153 214 117 c 0
 214 83 187 60 143 57 c 0
 136 57 135 54 140 50 c 0
 154 37 186 18 206 18 c 0
 285 18 337 116 408 313 c 0
 455 445 491 521 536 578 c 0
 540 583 544 589 549 593 c 0
 571 613 613 627 650 631 c 0
 652 631 654 632 655 632 c 0
 671 632 677 622 677 605 c 0
 677 599 676 595 676 589 c 248
 676 534 688 457 695 362 c 0
EndSplineSet
EndChar

StartChar: u1D4DE
Encoding: 120030 120030 65
Width: 727
Flags: HW
HStem: -21 39<283.883 425.034> 524 39<448.064 537.655> 631 37<435.098 591.014>
VStem: 60 153<129.15 342.094> 347 52<300.856 470.502> 597 104<237.069 452.961> 678 33<529.091 557.846>
LayerCount: 2
Fore
SplineSet
710 534 m 0
 711 529 708 523 704 523 c 0
 691 523 675 535 669 547 c 0
 642 598 569 631 518 631 c 0
 339 631 213 406 213 193 c 0
 213 96 270 18 341 18 c 0
 389 18 419 30 448 49 c 0
 538 108 597 207 597 349 c 0
 597 452 544 524 495 524 c 0
 437 524 399 453 399 379 c 0
 399 347 420 294 442 264 c 0
 451 252 433 251 424 251 c 0
 412 251 400 254 393 263 c 0
 365 298 347 338 347 388 c 0
 347 489 425 563 511 563 c 0
 587 563 701 507 701 369 c 252
 701 175 566 -21 329 -21 c 0
 195 -21 60 82 60 220 c 0
 60 467 246 668 502 668 c 0
 609 668 692 606 710 534 c 0
EndSplineSet
EndChar

StartChar: u1D4DF
Encoding: 120031 120031 66
Width: 1032
Flags: HW
HStem: -21 38<195.177 337.712> 246 39<278.21 401.25> 254 39<765.525 835.221> 618 39<401.468 664.686>
VStem: 72 145<81.5938 179.066> 134 92<333.15 484.471> 459 46<343.931 497.251> 709 47<301.09 382.527> 857 115<325.807 480.228>
LayerCount: 2
Fore
SplineSet
656 285 m 384
 566 50 440 -21 276 -21 c 0
 160 -21 72 33 72 109 c 0
 72 160 93 201 140 201 c 0
 184 201 217 168 217 134 c 896
 217 101 204 72 165 66 c 0
 158 65 157 62 162 58 c 0
 185 38 225 17 256 17 c 0
 370 17 404 75 485 272 c 0
 547 423 609 503 703 577 c 0
 708 581 708 585 702 587 c 0
 652 606 588 618 541 618 c 0
 344 618 226 524 226 397 c 0
 226 337 280 285 330 285 c 0
 397 285 459 321 459 449 c 0
 459 462 459 477 457 492 c 0
 456 499 461 506 467 506 c 0
 484 506 503 498 504 480 c 0
 505 470 505 461 505 451 c 0
 505 346 459 246 328 246 c 384
 233 246 134 298 134 401 c 0
 134 488 174 555 277 607 c 0
 341 640 425 657 524 657 c 0
 602 657 683 644 750 619 c 0
 756 617 762 618 768 621 c 0
 792 635 818 646 848 656 c 0
 853 658 858 655 858 651 c 0
 858 638 847 620 836 612 c 0
 831 609 805 594 819 587 c 0
 898 545 972 489 972 411 c 0
 972 323 917 254 817 254 c 0
 769 254 709 275 709 331 c 0
 709 351 713 367 718 380 c 0
 723 393 736 396 750 396 c 0
 759 396 774 395 765 384 c 0
 757 374 756 357 756 346 c 0
 756 317 773 293 802 293 c 384
 838 293 857 342 857 401 c 0
 857 463 821 510 775 545 c 0
 770 549 764 549 760 544 c 0
 696 472 695 387 656 285 c 384
EndSplineSet
EndChar

StartChar: u1D4E0
Encoding: 120032 120032 67
Width: 773
Flags: HW
HStem: -208 46<557.591 659.223> -25 43<201 342> 519 40<445.248 529.896> 626 39<430.389 586.66>
VStem: 55 149<126.461 340.997> 345 52<298.699 459.257> 588 104<233.659 446.064> 681 31<525.742 540.943>
LayerCount: 2
Fore
SplineSet
201 -25 m 252
 182 -25 152 -49 125 -73 c 0
 120 -78 113 -80 106 -80 c 0
 98 -80 75 -76 85 -63 c 0
 110 -31 145 -2 181 10 c 0
 187 12 188 14 182 17 c 0
 109 57 55 128 55 220 c 0
 55 467 238 665 503 665 c 0
 610 665 695 601 712 529 c 0
 713 524 710 520 706 520 c 0
 693 520 675 530 667 541 c 0
 633 587 569 626 518 626 c 0
 339 626 204 406 204 193 c 0
 204 96 271 18 342 18 c 0
 417 18 460 50 501 87 c 0
 569 149 588 236 588 351 c 0
 588 424 543 519 486 519 c 0
 426 519 397 420 397 355 c 0
 397 343 400 331 404 321 c 0
 410 306 430 267 430 251 c 0
 430 246 425 244 420 247 c 0
 379 272 345 318 345 362 c 0
 345 462 399 559 511 559 c 0
 587 559 692 489 692 371 c 0
 692 195 590 20 411 -14 c 0
 399 -16 412 -21 415 -22 c 0
 433 -30 450 -41 465 -54 c 0
 524 -103 558 -162 613 -162 c 0
 627 -162 659 -146 687 -118 c 0
 698 -107 723 -94 738 -94 c 0
 743 -94 744 -99 741 -104 c 0
 699 -173 655 -208 560 -208 c 0
 493 -208 425 -184 375 -136 c 0
 320 -83 264 -25 201 -25 c 252
EndSplineSet
EndChar

StartChar: u1D4E1
Encoding: 120033 120033 68
Width: 1046
Flags: HW
HStem: -18 39<193.469 344.672 779.735 847.002> 246 39<272.615 390.71> 284 53<674 709.309> 617 31<815.896 849.484> 618 39<407.723 663.959>
VStem: 72 145<84.8939 179.066> 126 98<328.785 476.482> 453 42<355.802 500> 645 129<24.7435 122.937> 710 120<192.967 264.922> 817 123<358.386 499.128>
LayerCount: 2
Fore
SplineSet
453 464 m 0
 453 476 447 504 460 504 c 0
 475 504 490 496 492 481 c 0
 493 467 495 452 495 438 c 0
 495 337 455 246 326 246 c 0
 236 246 126 290 126 391 c 0
 126 478 174 554 277 606 c 0
 341 639 425 657 524 657 c 203
 597 657 673 645 737 622 c 0
 743 620 749 620 755 623 c 0
 782 636 811 642 846 648 c 0
 851 649 856 645 856 641 c 0
 856 615 827 609 810 598 c 0
 804 595 805 591 811 588 c 0
 877 552 940 500 940 434 c 0
 940 340 873 301 781 293 c 0
 780 293 l 0
 780 292 l 0
 811 265 830 242 830 207 c 320
 830 155 774 109 774 68 c 0
 774 49 782 21 800 21 c 0
 826 21 875 47 936 132 c 0
 945 145 966 153 981 153 c 0
 986 153 988 147 985 142 c 0
 927 39 869 -18 784 -18 c 0
 706 -18 645 23 645 76 c 384
 645 147 710 200 710 257 c 0
 710 270 702 284 692 284 c 0
 678 284 663 292 658 280 c 0
 571 55 439 -21 276 -21 c 0
 160 -21 72 33 72 109 c 0
 72 160 93 201 140 201 c 0
 184 201 217 168 217 134 c 320
 217 102 199 74 160 70 c 0
 153 69 152 67 157 63 c 0
 181 42 228 19 259 19 c 0
 373 19 404 85 485 282 c 0
 545 430 603 508 692 580 c 0
 697 584 697 588 691 590 c 0
 644 608 587 618 541 618 c 0
 344 618 224 514 224 387 c 0
 224 327 282 285 330 285 c 0
 374 285 412 308 435 362 c 0
 446 387 453 423 453 464 c 0
765 546 m 0
 760 551 755 550 751 545 c 0
 708 489 699 420 677 347 c 0
 675 341 677 338 684 337 c 0
 700 336 715 331 730 324 c 0
 736 321 743 319 749 321 c 0
 793 335 817 384 817 439 c 288
 817 478 795 518 765 546 c 0
EndSplineSet
EndChar

StartChar: u1D4E2
Encoding: 120034 120034 69
Width: 778
Flags: HW
HStem: -21 39<249.601 380.31> 264 42<203.409 300.12> 392 33<519 573.399> 626 39<448.612 568.303>
VStem: 55 119<91.3676 230.074> 245 140<429.058 552.933> 377 40<132.5 165.803> 451 146<113.173 249.671> 610 93<474.295 588.502>
LayerCount: 2
Fore
SplineSet
417 135 m 0
 419 128 415 122 409 122 c 0
 392 122 373 132 366 149 c 0
 333 232 284 264 246 264 c 0
 192 264 174 200 174 149 c 0
 174 99 237 18 314 18 c 0
 396 18 451 81 451 197 c 0
 451 301 245 330 245 463 c 0
 245 613 386 665 505 665 c 0
 582 665 703 633 703 543 c 0
 703 456 612 393 522 392 c 0
 517 392 512 396 512 400 c 0
 512 412 519 425 532 427 c 0
 601 438 610 479 610 537 c 0
 610 588 555 626 514 626 c 0
 447 626 385 573 385 483 c 384
 385 377 597 344 597 210 c 0
 597 69 487 -21 318 -21 c 0
 197 -21 55 28 55 147 c 0
 55 252 135 306 231 306 c 0
 319 306 387 257 417 135 c 0
EndSplineSet
EndChar

StartChar: u1D4E3
Encoding: 120035 120035 70
Width: 978
Flags: HW
HStem: -21 39<198.479 335.872> 325 39<273.91 391.969> 560 96<630.14 839.558> 655 39<297.919 481.714>
VStem: 81 148<80.7103 177.857> 114 98<423.924 577.579> 467 33<479.444 533>
LayerCount: 2
Fore
SplineSet
642 526 m 0
 652 535 669 539 684 539 c 0
 692 539 702 538 696 529 c 0
 652 466 668 354 642 265 c 0
 623 198 597 142 558 97 c 0
 486 13 375 -21 279 -21 c 0
 162 -21 81 32 81 108 c 0
 81 159 105 201 152 201 c 0
 196 201 229 168 229 134 c 0
 229 98 213 72 170 66 c 0
 163 65 162 62 167 58 c 0
 185 42 225 18 264 18 c 0
 356 18 412 86 474 260 c 0
 534 429 572 464 642 526 c 0
933 696 m 0
 941 701 943 694 943 687 c 0
 943 672 938 656 928 646 c 0
 882 603 822 560 756 560 c 228
 604 560 495 655 391 655 c 0
 275 655 212 583 212 497 c 0
 212 421 277 364 330 364 c 0
 404 364 441 420 463 521 c 0
 466 534 479 541 492 541 c 0
 496 541 500 536 500 531 c 0
 494 396 434 325 337 325 c 0
 297 325 256 330 222 347 c 0
 171 372 114 427 114 490 c 0
 114 568 157 628 226 663 c 0
 280 691 354 694 440 694 c 212
 551 694 686 656 792 656 c 228
 827 656 893 670 933 696 c 0
EndSplineSet
EndChar

StartChar: u1D4E4
Encoding: 120036 120036 71
Width: 939
Flags: HW
HStem: -18 39<346.5 451.035 669.366 741.652> 313 39<193.77 277.523> 618 39<249.903 394.218>
VStem: 65 97<386.494 531.877> 245 130<24.0594 127.76> 326 36<417.491 461.528> 444 128<428.417 568.766>
LayerCount: 2
Fore
SplineSet
913 627 m 2
 927 627 934 622 934 614 c 0
 934 610 932 606 929 600 c 2
 690 133 l 2
 678 110 663 89 663 58 c 0
 663 42 681 21 698 21 c 0
 724 21 766 49 820 125 c 0
 831 140 853 149 871 149 c 0
 877 149 879 143 876 137 c 0
 844 78 815 45 781 18 c 0
 750 -7 718 -18 682 -18 c 0
 619 -18 571 8 549 59 c 0
 546 65 543 65 539 60 c 0
 494 -3 443 -21 378 -21 c 0
 315 -21 245 17 245 79 c 248
 245 115 249 139 301 226 c 2
 411 408 l 2
 421 425 432 442 438 461 c 0
 444 482 444 504 444 523 c 0
 444 568 396 618 328 618 c 0
 231 618 162 543 162 448 c 0
 162 407 196 352 228 352 c 0
 277 352 303 392 319 446 c 0
 323 460 340 469 354 469 c 0
 359 469 363 464 362 458 c 0
 352 391 316 313 231 313 c 0
 182 313 145 327 117 351 c 0
 88 376 65 413 65 448 c 0
 65 578 184 657 327 657 c 0
 432 657 572 608 572 505 c 0
 572 473 564 428 536 377 c 2
 402 137 l 2
 391 118 375 89 375 61 c 0
 375 42 394 17 412 17 c 0
 439 17 468 58 494 100 c 0
 547 186 608 304 640 365 c 2
 763 600 l 2
 772 618 787 627 807 627 c 2
 913 627 l 2
EndSplineSet
EndChar

StartChar: u1D4E5
Encoding: 120037 120037 72
Width: 1084
Flags: HW
HStem: -21 21G<324 367.5> 351 37<193.942 278.084> 522 135<915.428 1000.69> 531 63<375 529.414> 620 37<196.739 289.525>
VStem: 60 92<428.441 575.299>
LayerCount: 2
Fore
SplineSet
394 33 m 0
 390 28 391 27 397 30 c 0
 536 113 640 208 708 329 c 0
 809 510 848 657 940 657 c 0
 997 657 1024 617 1024 589 c 0
 1024 552 1007 522 970 522 c 228
 936 522 903 540 897 571 c 0
 896 578 893 579 889 574 c 0
 857 535 820 434 758 321 c 0
 678 176 611 128 535 65 c 0
 469 10 404 -21 328 -21 c 0
 322 -21 308 -21 277 -17 c 0
 265 -15 259 -11 259 -4 c 0
 259 0 261 5 266 11 c 0
 375 161 286 341 537 549 c 0
 542 553 542 555 535 554 c 0
 491 548 453 531 413 531 c 0
 337 531 299 620 247 620 c 0
 193 620 152 568 152 493 c 0
 152 441 195 388 235 388 c 0
 260 388 279 403 298 427 c 0
 309 440 331 449 347 449 c 0
 353 449 355 444 351 438 c 0
 321 397 300 351 238 351 c 0
 156 351 60 402 60 499 c 0
 60 603 143 657 241 657 c 0
 290 657 341 656 407 621 c 0
 445 601 474 594 489 594 c 0
 520 594 566 598 613 633 c 0
 625 642 644 647 660 647 c 0
 671 647 686 644 676 631 c 0
 589 520 591 409 560 292 c 0
 526 164 457 120 394 33 c 0
EndSplineSet
EndChar

StartChar: u1D4E6
Encoding: 120038 120038 73
Width: 1341
Flags: HW
HStem: -21 21G<325.5 442 641 715.5> 351 39<192.889 280.551> 522 135<1212.3 1301.69> 529 65<376 529.494> 618 39<194.655 290.762>
VStem: 60 92<428.748 574.926>
LayerCount: 2
Fore
SplineSet
943 644 m 0
 958 644 983 642 983 630 c 0
 983 626 981 620 976 614 c 0
 832 427 914 189 693 32 c 0
 688 28 689 27 695 29 c 0
 801 63 917 160 1006 332 c 0
 1102 516 1149 657 1241 657 c 0
 1298 657 1325 617 1325 589 c 0
 1325 553 1306 522 1272 522 c 228
 1239 522 1204 538 1197 569 c 0
 1196 576 1193 577 1189 572 c 0
 1157 536 1116 457 1062 341 c 0
 954 110 782 -21 649 -21 c 0
 638 -21 586 -22 586 -6 c 0
 586 -2 589 3 595 9 c 0
 631 46 655 80 691 221 c 0
 703 268 724 332 736 391 c 0
 737 398 737 399 733 393 c 0
 642 251 548 -21 332 -21 c 0
 324 -21 265 -23 265 -6 c 0
 265 -2 268 3 273 10 c 0
 356 126 275 356 546 558 c 0
 551 562 551 562 545 559 c 0
 496 531 442 529 414 529 c 0
 338 529 299 618 247 618 c 0
 193 618 152 568 152 493 c 0
 152 441 195 390 235 390 c 0
 258 390 276 402 294 422 c 0
 306 436 332 448 350 448 c 0
 357 448 358 442 353 435 c 0
 322 393 301 351 238 351 c 0
 143 351 60 409 60 499 c 0
 60 580 122 657 241 657 c 0
 290 657 341 656 407 621 c 0
 445 601 474 594 489 594 c 0
 522 594 572 598 621 639 c 0
 629 645 640 649 651 649 c 0
 661 649 683 645 671 631 c 0
 492 424 567 246 387 20 c 0
 383 15 384 13 390 16 c 0
 619 130 686 558 901 637 c 0
 915 642 929 644 943 644 c 0
EndSplineSet
EndChar

StartChar: u1D4E7
Encoding: 120039 120039 74
Width: 965
Flags: HW
HStem: -18 42<146.218 313.323 605.598 729.367> 290 39<233.907 325.164> 449 132<822.287 881> 620 36<297.409 419.058 746.135 858.107>
VStem: 60 154<70.7793 163.458> 99 99<363.841 518.542> 797 154<472.683 554.403> 837 33<152.054 184.818>
LayerCount: 2
Fore
SplineSet
603 533 m 0
 606 527 610 527 613 533 c 0
 646 590 697 656 793 656 c 0
 863 656 951 614 951 537 c 0
 951 495 931 449 880 449 c 0
 833 449 797 482 797 518 c 244
 797 548 830 571 871 579 c 0
 878 580 880 584 875 589 c 0
 863 602 839 620 805 620 c 0
 723 620 678 538 644 408 c 0
 611 283 583 182 583 118 c 0
 583 70 602 24 651 24 c 0
 688 24 786 39 829 171 c 0
 834 185 850 194 864 194 c 0
 869 194 871 189 870 183 c 0
 840 42 750 -18 630 -18 c 0
 541 -18 484 19 442 86 c 0
 442 87 442 87 441 87 c 0
 440 87 l 0
 392 9 317 -21 228 -21 c 0
 158 -21 60 21 60 98 c 0
 60 140 82 188 133 188 c 0
 180 188 214 153 214 117 c 248
 214 82 192 60 147 55 c 0
 140 54 138 51 143 46 c 0
 155 34 181 18 216 18 c 0
 326 18 383 92 429 218 c 0
 471 332 491 396 491 444 c 0
 491 536 439 620 364 620 c 0
 267 620 198 521 198 428 c 0
 198 378 234 329 279 329 c 0
 320 329 340 360 357 399 c 0
 363 413 381 421 396 421 c 0
 401 421 403 416 401 410 c 0
 376 343 356 290 273 290 c 0
 191 290 99 338 99 434 c 0
 99 507 143 568 195 608 c 0
 246 647 301 656 359 656 c 0
 466 656 561 609 603 533 c 0
EndSplineSet
EndChar

StartChar: u1D4E8
Encoding: 120040 120040 75
Width: 978
Flags: HW
HStem: -224 40<310.466 392.745> 78 39<418.13 494.649> 311 39<193.956 280.54> 618 37<251.931 390.603>
VStem: 64 96<386.937 530.129> 197 101<-173.968 -96.4149> 286 129<121.231 197.702> 332 37<414.795 463.946> 453 140<441.278 561.788>
LayerCount: 2
Fore
SplineSet
197 -141 m 128
 197 -81 250 -44 307 -14 c 0
 361 14 440 24 514 39 c 0
 521 40 526 44 528 50 c 0
 545 92 562 129 580 172 c 0
 583 178 582 178 578 173 c 0
 540 124 514 78 429 78 c 0
 359 78 286 111 286 174 c 640
 286 224 302 241 372 346 c 0
 447 459 453 478 453 511 c 0
 453 556 396 618 328 618 c 0
 231 618 160 541 160 446 c 0
 160 405 197 350 229 350 c 0
 279 350 309 393 326 447 c 0
 330 461 347 469 361 469 c 0
 366 469 369 464 368 458 c 0
 359 392 326 311 234 311 c 0
 202 311 172 316 147 330 c 0
 107 352 64 402 64 446 c 0
 64 576 185 655 328 655 c 0
 433 655 593 604 593 501 c 0
 593 441 562 386 475 256 c 0
 423 179 415 164 415 146 c 640
 415 124 441 117 456 117 c 0
 505 117 571 227 663 379 c 2
 796 599 l 2
 806 616 822 625 842 625 c 2
 935 625 l 2
 948 625 955 621 955 614 c 0
 955 610 953 605 949 599 c 0
 822 392 754 289 684 107 c 0
 682 101 683 100 689 103 c 0
 717 120 743 141 776 170 c 0
 790 183 801 159 801 150 c 0
 801 145 799 140 795 136 c 0
 747 85 710 60 666 41 c 0
 660 38 656 34 653 28 c 0
 595 -104 500 -224 339 -224 c 0
 284 -224 197 -198 197 -141 c 128
500 -21 m 0
 503 -15 500 -13 494 -15 c 0
 407 -40 298 -78 298 -143 c 128
 298 -154 322 -184 344 -184 c 0
 393 -184 457 -118 500 -21 c 0
EndSplineSet
EndChar

StartChar: u1D4E9
Encoding: 120041 120041 76
Width: 954
Flags: HW
HStem: -24 46<163.297 306.518 489.104 672.134> 107 37<162.904 263.138> 342 38<234.956 333.479> 474 34<701.069 817.867> 606 32<717.921 813.859> 616 33<271.407 401.178>
VStem: 60 91<35.934 98.4416> 106 91<412.953 547.848> 767 39<122.298 179> 837 91<522.874 590.975>
LayerCount: 2
Fore
SplineSet
151 61 m 192
 151 46 185 21 220 21 c 0
 260 21 290 31 313 48 c 0
 318 52 318 55 312 59 c 0
 274 84 237 107 199 107 c 0
 166 107 151 74 151 61 c 192
460 70 m 0
 455 66 455 61 461 58 c 0
 494 39 530 22 567 22 c 0
 679 22 736 69 762 160 c 0
 766 174 783 183 797 183 c 0
 802 183 806 177 805 171 c 0
 790 46 710 -24 541 -24 c 0
 507 -24 478 -19 451 -13 c 0
 429 -8 406 0 387 11 c 0
 381 14 375 15 369 12 c 0
 324 -7 272 -18 212 -18 c 0
 108 -18 60 24 60 61 c 704
 60 86 78 108 103 123 c 0
 126 137 161 144 200 144 c 0
 244 144 300 128 350 110 c 0
 356 108 361 109 364 115 c 0
 381 152 392 197 404 243 c 0
 406 249 403 252 396 252 c 0
 371 250 347 242 319 222 c 0
 312 217 301 214 291 214 c 0
 283 214 267 215 275 226 c 0
 315 282 361 316 419 325 c 0
 426 326 431 329 433 335 c 0
 461 407 497 458 545 511 c 0
 549 516 549 520 543 523 c 0
 472 557 407 616 330 616 c 0
 249 616 197 540 197 473 c 0
 197 420 241 380 284 380 c 0
 322 380 356 410 382 459 c 0
 389 471 406 479 419 479 c 0
 423 479 426 474 424 469 c 0
 402 407 371 342 281 342 c 0
 192 342 106 391 106 475 c 0
 106 557 167 649 321 649 c 448
 441 649 527 628 601 582 c 0
 607 578 612 579 617 583 c 0
 661 617 715 638 765 638 c 448
 867 638 928 595 928 561 c 0
 928 526 903 474 787 474 c 0
 738 474 692 479 648 488 c 0
 641 489 637 487 634 481 c 0
 612 431 602 378 589 323 c 0
 587 317 589 313 596 314 c 0
 614 315 632 321 649 331 c 0
 661 338 686 348 700 348 c 0
 705 348 707 344 704 339 c 0
 668 284 629 251 576 241 c 0
 569 240 565 236 563 230 c 0
 540 166 506 112 460 70 c 0
673 550 m 0
 669 545 670 540 676 537 c 0
 707 520 740 508 776 508 c 0
 805 508 837 534 837 558 c 0
 837 580 813 606 776 606 c 0
 733 606 698 584 673 550 c 0
EndSplineSet
EndChar

StartChar: u1D4EA
Encoding: 120042 120042 77
Width: 898
Flags: HW
HStem: -11 35<361.35 477 602.449 695.515> 193 35<70.9699 220.81> 407 35<517.476 641.149>
VStem: 221 118<45.6246 194.31> 524 152<175.174 251.732>
LayerCount: 2
Fore
SplineSet
828 178 m 0
 837 191 859 199 874 199 c 0
 879 199 880 193 877 188 c 0
 797 61 730 -11 641 -11 c 0
 605 -11 574 0 551 36 c 0
 547 42 543 43 538 39 c 0
 484 -5 446 -14 391 -14 c 0
 317 -14 221 16 221 114 c 0
 221 148 227 171 236 201 c 0
 238 207 236 209 230 207 c 0
 208 198 186 193 150 193 c 0
 124 193 97 197 70 207 c 0
 56 212 50 230 50 244 c 0
 50 249 56 251 61 249 c 0
 91 237 113 228 140 228 c 0
 238 228 271 285 301 323 c 0
 372 414 467 442 564 442 c 0
 600 442 677 442 718 366 c 0
 721 361 719 355 714 355 c 0
 697 355 671 365 658 377 c 0
 636 396 613 407 585 407 c 0
 445 407 339 201 339 91 c 0
 339 51 375 21 401 21 c 0
 437 21 492 38 522 79 c 0
 530 89 524 108 524 122 c 0
 524 132 525 141 525 151 c 0
 525 251 578 320 630 320 c 0
 665 320 676 287 676 258 c 0
 676 200 632 127 592 78 c 0
 588 73 587 67 590 61 c 0
 602 34 618 24 648 24 c 0
 677 24 735 50 828 178 c 0
EndSplineSet
EndChar

StartChar: u1D4EB
Encoding: 120043 120043 78
Width: 654
Flags: HW
HStem: -13 35<178.163 275.149> 167 34<476.928 572.297> 414 20G<31.6154 81 429.5 469.5> 435 34<153 348.671> 676 30<414.788 465.075>
VStem: 55 112<41.814 191.345> 378 125<246.778 395.632> 478 92<561.481 668.251>
LayerCount: 2
Fore
SplineSet
478 620 m 0
 478 644 465 676 443 676 c 0
 395 676 362 593 312 483 c 0
 309 477 310 475 317 476 c 0
 401 495 478 549 478 620 c 0
171 485 m 0
 177 482 182 484 186 490 c 0
 207 522 232 553 255 580 c 0
 316 653 379 706 436 706 c 0
 497 706 570 676 570 623 c 0
 570 557 489 488 421 462 c 0
 384 448 343 440 300 437 c 0
 293 437 289 433 286 427 c 0
 235 318 167 171 167 80 c 0
 167 50 180 22 207 22 c 0
 291 22 361 91 410 185 c 0
 413 191 413 196 409 202 c 0
 391 231 378 267 378 288 c 0
 378 374 406 434 453 434 c 0
 486 434 503 400 503 372 c 0
 503 326 489 265 476 230 c 0
 474 224 474 220 480 216 c 0
 493 208 505 201 522 201 c 0
 532 201 554 208 566 212 c 0
 571 214 577 211 577 207 c 0
 577 193 572 177 558 173 c 0
 544 169 529 167 514 167 c 0
 496 167 477 170 461 176 c 0
 455 178 450 177 447 171 c 0
 381 53 296 -13 182 -13 c 0
 114 -13 55 36 55 117 c 0
 55 194 94 325 155 438 c 0
 158 444 156 447 150 450 c 0
 115 464 88 488 51 520 c 0
 40 529 35 547 35 561 c 0
 35 568 39 574 46 568 c 0
 90 535 126 503 171 485 c 0
EndSplineSet
EndChar

StartChar: u1D4EC
Encoding: 120044 120044 79
Width: 722
Flags: HW
HStem: -14 35<370.082 477.966> 193 35<80.9699 226.277> 401 31<519.045 604.982>
VStem: 233 121<38.5609 197.069> 611 89<322.5 390.158>
LayerCount: 2
Fore
SplineSet
80 207 m 0
 66 212 60 230 60 244 c 0
 60 249 66 251 71 249 c 0
 101 237 123 228 150 228 c 0
 215 228 257 260 283 288 c 0
 297 303 307 319 321 334 c 0
 382 400 464 432 550 432 c 0
 615 432 700 402 700 344 c 0
 700 301 683 262 636 262 c 0
 597 262 572 284 572 312 c 0
 572 351 611 352 611 371 c 0
 611 379 603 401 576 401 c 0
 449 401 354 198 354 87 c 0
 354 41 381 21 408 21 c 0
 466 21 558 60 644 200 c 0
 651 212 669 220 683 220 c 0
 688 220 689 215 686 210 c 0
 591 62 523 -14 407 -14 c 0
 319 -14 233 14 233 104 c 0
 233 137 238 169 247 202 c 0
 249 208 247 211 241 208 c 0
 219 198 197 193 160 193 c 0
 134 193 107 197 80 207 c 0
EndSplineSet
EndChar

StartChar: u1D4ED
Encoding: 120045 120045 80
Width: 928
Flags: HW
HStem: -11 35<314.018 400.686 574.5 668.882> 203 35<58.1447 198.799> 398 35<447.253 535.031> 679 20G<718.951 852> 679 20G<718.951 852>
VStem: 189 115<39.2979 193.039>
LayerCount: 2
Fore
SplineSet
554 336 m 0
 554 374 523 398 495 398 c 0
 455 398 416 367 359 265 c 0
 308 174 304 117 304 76 c 0
 304 45 323 21 347 21 c 0
 382 21 412 47 455 92 c 0
 460 97 465 101 469 106 c 0
 533 179 554 261 554 336 c 0
822 699 m 2
 837 699 844 694 844 684 c 0
 844 680 843 676 841 671 c 2
 626 129 l 2
 617 107 608 88 608 61 c 0
 608 42 613 24 627 24 c 0
 656 24 705 57 797 184 c 0
 806 197 827 204 842 204 c 0
 847 204 849 199 846 194 c 0
 771 74 699 -11 609 -11 c 0
 546 -11 516 17 506 54 c 0
 504 60 502 61 498 56 c 0
 462 14 407 -14 335 -14 c 0
 261 -14 189 30 189 99 c 0
 189 134 196 170 209 207 c 0
 211 213 208 215 202 213 c 0
 182 207 165 203 135 203 c 0
 109 203 82 207 55 217 c 0
 41 222 35 240 35 255 c 0
 35 260 40 262 46 260 c 0
 76 248 98 238 125 238 c 0
 207 238 246 288 278 323 c 0
 330 380 402 433 503 433 c 0
 534 433 565 423 584 402 c 0
 588 397 591 397 594 403 c 2
 716 672 l 2
 724 690 738 699 758 699 c 2
 822 699 l 2
EndSplineSet
EndChar

StartChar: u1D4EE
Encoding: 120046 120046 81
Width: 671
Flags: HW
HStem: -14 35<309.748 415.115> 174 35<168.79 391.403> 401 32<451.842 527.907>
VStem: 167.952 117<46.2307 172.518> 535.952 99<297.25 392.246>
LayerCount: 2
Fore
SplineSet
634.952148438 345 m 0
 634.952148438 323 629.952148438 303 611.952148438 279 c 0
 556.952148438 204 437.952148438 180 308.952148438 175 c 0
 301.952148438 175 297.952148438 172 295.952148438 166 c 0
 289.952148438 148 284.952148438 127 284.952148438 98 c 0
 284.952148438 39 324.952148438 21 356.952148438 21 c 0
 420.952148438 21 519.952148438 106 581.952148438 187 c 0
 590.952148438 199 611.952148438 208 626.952148438 208 c 0
 631.952148438 208 634.952148438 202 630.952148438 197 c 0
 570.952148438 107 479.952148438 -14 339.952148438 -14 c 0
 248.952148438 -14 167.952148438 28 167.952148438 114 c 0
 167.952148438 135 169.952148438 154 173.952148438 173 c 0
 174.952148438 180 172.952148438 184 166.952148438 186 c 0
 112.952148438 204 71.9521484375 240 31.9521484375 282 c 0
 17.9521484375 297 44.9521484375 305 53.9521484375 305 c 0
 60.9521484375 305 66.9521484375 303 71.9521484375 298 c 0
 103.952148438 267 136.952148438 239 177.952148438 223 c 0
 183.952148438 221 188.952148438 223 190.952148438 229 c 0
 238.952148438 357 366.952148438 433 494.952148438 433 c 4
 565.952148438 433 634.952148438 397 634.952148438 345 c 0
318.952148438 221 m 0
 315.952148438 215 317.952148438 212 324.952148438 213 c 0
 447.952148438 228 535.952148438 284 535.952148438 357 c 0
 535.952148438 377 524.952148438 401 500.952148438 401 c 0
 445.952148438 401 368.952148438 335 318.952148438 221 c 0
EndSplineSet
EndChar

StartChar: u1D4EF
Encoding: 120047 120047 82
Width: 720
Flags: HW
HStem: 87 36<286.147 430.28> 666 33<486.524 540.47>
VStem: 553 89<552.377 659.376>
LayerCount: 2
Fore
SplineSet
395 438 m 0
 393 432 394 431 400 434 c 0
 473 474 553 544 553 619 c 0
 553 643 532 666 514 666 c 0
 463 666 415 491 395 438 c 0
57 -205 m 2
 42 -205 35 -200 35 -190 c 0
 35 -186 36 -182 38 -177 c 2
 162 153 l 2
 164 159 164 165 160 170 c 0
 148 188 139 206 139 223 c 0
 139 279 174 332 242 368 c 0
 248 371 252 376 254 382 c 0
 333 595 396 699 514 699 c 0
 583 699 642 669 642 626 c 0
 642 499 484 427 383 386 c 0
 377 384 372 379 370 373 c 2
 283 153 l 2
 281 147 282 143 288 140 c 0
 306 132 325 123 345 123 c 0
 381 123 429 128 474 173 c 0
 487 186 496 162 496 154 c 0
 496 149 495 144 490 140 c 0
 442 101 393 87 340 87 c 0
 315 87 294 90 274 94 c 0
 267 95 262 93 260 87 c 2
 162 -177 l 2
 155 -196 141 -205 121 -205 c 2
 57 -205 l 2
EndSplineSet
EndChar

StartChar: u1D4F0
Encoding: 120048 120048 83
Width: 749
Flags: HW
HStem: -293 35<231.967 317.899> -200 34<511.976 662.709> -136 35<263.38 395.401> -11 34<320.461 395.323> 202 35<47.4503 187.613> 427 35<486.591 556.92> 430 20G<621.5 738>
VStem: 114 105<-247.816 -168.876> 190 119<39.3082 178.045>
LayerCount: 2
Fore
SplineSet
569 364 m 0
 569 398 553 427 531 427 c 0
 485 427 427 362 366 251 c 0
 318 164 309 117 309 79 c 0
 309 48 325 23 342 23 c 0
 459 23 569 272 569 364 c 0
219 -213 m 0
 219 -235 243 -258 274 -258 c 0
 309 -258 349 -225 380 -159 c 0
 383 -153 381 -148 375 -146 c 0
 361 -140 345 -136 329 -136 c 0
 279 -136 219 -168 219 -213 c 0
497 -191 m 0
 490 -190 486 -192 482 -197 c 0
 433 -266 350 -293 270 -293 c 0
 186 -293 114 -254 114 -216 c 0
 114 -170 173 -134 217 -116 c 0
 254 -101 307 -101 336 -101 c 0
 352 -101 371 -104 390 -107 c 0
 397 -108 401 -105 404 -99 c 0
 422 -56 450 10 463 41 c 0
 466 47 464 48 459 44 c 0
 421 16 380 -11 328 -11 c 0
 262 -11 190 25 190 105 c 0
 190 140 191 172 202 207 c 0
 204 213 202 215 196 213 c 0
 176 207 154 202 125 202 c 0
 99 202 71 207 44 218 c 0
 31 223 25 240 25 254 c 0
 25 259 31 261 36 259 c 0
 66 246 87 237 115 237 c 0
 182 237 224 276 251 303 c 0
 256 308 260 313 264 318 c 0
 333 401 443 462 522 462 c 0
 556 462 582 442 603 423 c 0
 608 419 610 416 613 422 c 0
 621 440 634 450 654 450 c 2
 708 450 l 2
 723 450 730 444 730 434 c 0
 730 430 730 427 728 422 c 0
 666 255 599 60 513 -137 c 0
 510 -143 513 -147 519 -150 c 0
 541 -159 563 -166 586 -166 c 0
 615 -166 652 -162 700 -127 c 0
 708 -121 711 -127 711 -135 c 0
 711 -150 708 -166 695 -173 c 0
 659 -193 616 -200 584 -200 c 0
 554 -200 525 -197 497 -191 c 0
EndSplineSet
EndChar

StartChar: u1D4F1
Encoding: 120049 120049 84
Width: 733
Flags: HW
HStem: -14 35<438.108 504.263> 423 35<394.779 467.814> 460 35<169.68 366.124> 551 20G<52.609 105> 678 31<402.502 444.911>
VStem: 331 104<23.2476 107.029> 454 90<564.958 675.482> 471 109<343.743 421.899>
LayerCount: 2
Fore
SplineSet
207 501 m 0
 214 500 218 503 221 509 c 0
 278 645 322 709 421 709 c 0
 492 709 544 672 544 632 c 0
 544 520 429 476 325 464 c 0
 318 463 314 459 312 453 c 0
 302 424 292 396 284 375 c 0
 282 369 283 369 287 374 c 0
 337 429 403 458 453 458 c 0
 512 458 580 430 580 384 c 0
 580 342 547 279 528 243 c 2
 457 108 l 2
 449 93 435 68 435 48 c 0
 435 39 447 21 460 21 c 0
 499 21 562 72 640 190 c 0
 648 202 666 210 680 210 c 0
 685 210 687 205 684 200 c 0
 609 71 536 -14 441 -14 c 0
 384 -14 331 29 331 69 c 0
 331 102 338 147 367 198 c 2
 438 323 l 2
 448 340 459 356 466 375 c 0
 469 382 471 390 471 397 c 0
 471 406 461 423 443 423 c 0
 364 423 250 271 165 57 c 1
 153 28 l 2
 146 9 132 0 112 0 c 2
 49 0 l 2
 34 0 27 5 27 15 c 0
 27 19 28 23 30 28 c 0
 86 168 143 315 199 455 c 0
 201 461 200 465 193 466 c 0
 142 475 102 497 63 535 c 0
 59 539 57 545 57 551 c 0
 57 558 60 578 72 569 c 0
 119 531 160 510 207 501 c 0
332 509 m 0
 330 503 332 500 338 502 c 0
 402 518 454 562 454 635 c 0
 454 652 443 678 425 678 c 0
 398 678 363 594 332 509 c 0
EndSplineSet
EndChar

StartChar: u1D4F2
Encoding: 120050 120050 85
Width: 602
Flags: HW
HStem: -14 35<296.484 362.338> 317 35<60.0436 230.321> 413 20G<300.5 427> 533 127<392.456 463.962>
VStem: 178 114<26.6052 139.177> 362 132<562.866 630.114>
LayerCount: 2
Fore
SplineSet
477 182 m 0
 485 194 503 201 517 201 c 0
 522 201 524 196 521 191 c 0
 443 61 401 -14 309 -14 c 0
 248 -14 178 17 178 81 c 0
 178 132 212 231 239 284 c 2
 270 346 l 2
 273 352 272 353 266 350 c 0
 238 334 204 317 156 317 c 0
 130 317 102 317 74 326 c 0
 61 330 55 346 55 360 c 0
 55 364 61 367 66 365 c 0
 96 354 117 352 145 352 c 0
 219 352 264 384 290 410 c 0
 304 424 319 433 339 433 c 2
 397 433 l 2
 412 433 419 428 419 418 c 0
 419 414 418 410 416 405 c 2
 322 162 l 2
 310 132 292 92 292 54 c 0
 292 34 306 21 326 21 c 0
 357 21 409 74 477 182 c 0
494 614 m 0
 494 567 447 533 408 533 c 0
 379 533 362 551 362 578 c 0
 362 623 408 660 445 660 c 0
 475 660 494 641 494 614 c 0
EndSplineSet
EndChar

StartChar: u1D4F3
Encoding: 120051 120051 86
Width: 721
Flags: HW
HStem: -286 34<155.437 235.882> -193 34<426.958 554.262> -128 34<183.263 321.287> 314 35<255.066 426.936> 536 127<595.456 666.962>
VStem: 40 100<-240.621 -160.079> 565 132<565.866 633.114>
LayerCount: 2
Fore
SplineSet
697 617 m 0
 697 570 650 536 611 536 c 0
 582 536 565 554 565 581 c 0
 565 626 611 663 648 663 c 0
 678 663 697 644 697 617 c 0
140 -206 m 0
 140 -228 160 -252 189 -252 c 4
 237 -252 273 -219 306 -154 c 0
 309 -148 307 -143 301 -141 c 0
 282 -134 263 -128 245 -128 c 0
 195 -128 140 -161 140 -206 c 0
431 -186 m 0
 424 -185 419 -187 415 -192 c 0
 363 -258 264 -286 186 -286 c 0
 101 -286 40 -248 40 -209 c 0
 40 -163 89 -127 133 -109 c 0
 170 -94 222 -94 251 -94 c 0
 270 -94 294 -97 317 -101 c 0
 324 -102 328 -99 330 -93 c 0
 378 39 429 219 478 345 c 0
 480 351 479 352 473 349 c 0
 443 332 400 314 351 314 c 0
 325 314 297 315 270 322 c 0
 256 326 250 343 250 357 c 0
 250 362 255 364 261 362 c 0
 291 351 313 349 340 349 c 0
 414 349 465 382 492 408 c 0
 506 422 521 430 541 430 c 2
 604 430 l 2
 619 430 626 425 626 414 c 0
 626 410 626 407 624 402 c 0
 565 234 513 31 446 -135 c 0
 443 -141 445 -146 451 -148 c 0
 468 -154 485 -159 502 -159 c 4
 536 -159 566 -139 613 -105 c 0
 620 -100 623 -105 623 -111 c 0
 623 -124 619 -141 608 -149 c 0
 573 -174 543 -193 500 -193 c 4
 477 -193 453 -190 431 -186 c 0
EndSplineSet
EndChar

StartChar: u1D4F4
Encoding: 120052 120052 87
Width: 706
Flags: HW
HStem: -14 35<455.417 517.326> 222 31<316 340.939> 396 35<387.196 492.059> 456 34<206.622 374.021> 561 20G<77.739 131> 674 35<417.375 462.644>
VStem: 336 118<21.3718 160.884> 357 119<52.1158 198.206> 469 90<563.325 671.823> 502 100<302.579 390.656>
LayerCount: 2
Fore
SplineSet
222 500 m 0
 228 498 233 501 236 507 c 0
 293 644 336 709 436 709 c 0
 509 709 559 688 559 637 c 0
 559 524 445 475 339 461 c 0
 332 460 328 456 326 450 c 0
 314 416 301 379 290 351 c 0
 288 345 288 344 293 349 c 0
 343 404 410 431 477 431 c 0
 553 431 602 401 602 348 c 0
 602 285 510 237 404 234 c 0
 397 234 397 233 403 230 c 0
 426 221 476 197 476 150 c 0
 476 109 454 78 454 42 c 0
 454 34 466 21 478 21 c 0
 507 21 562 64 643 182 c 0
 651 194 671 202 685 202 c 0
 690 202 691 197 688 192 c 0
 604 62 550 -14 464 -14 c 0
 409 -14 336 10 336 58 c 0
 336 113 357 126 357 176 c 0
 357 192 348 213 318 220 c 0
 313 221 307 226 307 230 c 0
 307 241 314 253 325 254 c 0
 429 266 502 293 502 345 c 0
 502 374 488 396 458 396 c 0
 382 396 299 357 179 57 c 2
 167 28 l 2
 160 9 146 0 126 0 c 2
 63 0 l 2
 48 0 41 5 41 15 c 0
 41 19 42 23 44 28 c 0
 100 167 158 312 214 452 c 0
 216 458 214 462 208 464 c 0
 161 477 126 506 89 543 c 0
 84 548 83 554 83 561 c 0
 83 568 86 589 98 580 c 0
 145 542 179 514 222 500 c 0
347 505 m 0
 345 499 347 496 353 498 c 0
 417 516 469 562 469 635 c 0
 469 652 457 674 439 674 c 0
 413 674 374 574 347 505 c 0
EndSplineSet
EndChar

StartChar: u1D4F5
Encoding: 120053 120053 88
Width: 696
Flags: HW
HStem: -14 35<219.45 306.236> 350 41<155.048 369.517> 443 20G<55.8235 102> 664 35<456.837 517.207>
VStem: 95 112<46.1509 174.616> 525 91<527.166 661.074>
LayerCount: 2
Fore
SplineSet
616 614 m 0
 616 536 580 467 510 420 c 0
 455 383 390 361 314 353 c 0
 307 352 303 349 300 343 c 0
 260 256 207 147 207 77 c 0
 207 50 220 21 252 21 c 0
 295 21 352 57 418 162 c 0
 426 175 446 184 461 184 c 0
 466 184 468 178 465 173 c 0
 390 40 323 -14 240 -14 c 0
 172 -14 95 33 95 115 c 0
 95 184 127 273 163 351 c 0
 166 357 164 361 158 363 c 0
 125 374 97 390 72 409 c 0
 60 418 55 436 55 452 c 0
 55 461 58 469 68 462 c 0
 109 432 141 413 177 402 c 0
 183 400 188 402 191 408 c 0
 284 585 398 699 488 699 c 0
 556 699 616 675 616 614 c 0
328 406 m 0
 325 400 328 397 334 399 c 0
 441 424 525 507 525 621 c 0
 525 637 516 664 491 664 c 0
 430 664 363 489 328 406 c 0
EndSplineSet
EndChar

StartChar: u1D4F6
Encoding: 120054 120054 89
Width: 1103
Flags: HW
HStem: -14 34<833.911 907.187> 304 35<48.0436 217.229> 398 34<486.368 557.959 770.634 845.917>
VStem: 560 100<336.188 397.211> 725 107<20.062 111.689> 849 107<307.448 396.504>
LayerCount: 2
Fore
SplineSet
1040 186 m 0
 1048 198 1067 205 1081 205 c 0
 1086 205 1087 200 1084 195 c 0
 1009 67 945 -14 840 -14 c 0
 783 -14 725 12 725 72 c 0
 725 99 730 132 748 171 c 0
 756 189 767 207 777 224 c 2
 820 294 l 2
 833 316 849 339 849 370 c 0
 849 381 838 398 821 398 c 0
 742 398 645 272 560 57 c 1
 548 28 l 2
 541 9 527 0 507 0 c 2
 444 0 l 2
 430 0 422 4 422 14 c 0
 422 18 424 23 426 28 c 2
 553 327 l 2
 556 334 560 360 560 373 c 0
 560 383 553 398 538 398 c 0
 459 398 359 272 274 57 c 1
 262 28 l 2
 255 9 241 0 221 0 c 2
 158 0 l 2
 143 0 136 5 136 15 c 0
 136 19 137 23 139 28 c 2
 256 327 l 2
 258 333 257 334 251 331 c 0
 224 316 192 304 144 304 c 0
 118 304 90 304 62 313 c 0
 49 317 43 333 43 347 c 0
 43 351 49 354 54 352 c 0
 84 341 105 339 133 339 c 0
 206 339 250 371 275 397 c 0
 289 412 304 420 324 420 c 2
 378 420 l 2
 393 420 400 415 400 405 c 0
 400 401 399 397 397 392 c 0
 391 377 386 362 380 347 c 0
 378 341 379 340 384 345 c 0
 434 399 499 432 549 432 c 0
 608 432 660 406 660 358 c 0
 660 355 659 350 659 346 c 0
 658 339 660 338 665 343 c 0
 715 398 782 432 832 432 c 0
 891 432 956 403 956 355 c 0
 956 314 926 250 907 214 c 2
 861 126 l 2
 849 103 832 77 832 45 c 0
 832 33 839 20 854 20 c 0
 900 20 957 57 1040 186 c 0
EndSplineSet
EndChar

StartChar: u1D4F7
Encoding: 120055 120055 90
Width: 878
Flags: HW
HStem: -14 35<538.062 617.093> 304 35<50.0432 218.865> 399 33<487.674 567.916>
VStem: 431 105<21.546 105.893> 569 100<319.706 398.173>
LayerCount: 2
Fore
SplineSet
752 177 m 0
 760 190 778 199 793 199 c 0
 798 199 800 193 797 188 c 0
 733 58 648 -14 542 -14 c 0
 485 -14 431 6 431 69 c 0
 431 103 450 159 474 198 c 2
 535 298 l 2
 548 320 569 346 569 378 c 0
 569 392 553 399 540 399 c 0
 461 399 351 272 266 57 c 1
 254 28 l 2
 247 9 233 0 213 0 c 2
 150 0 l 2
 136 0 128 4 128 14 c 0
 128 18 130 23 132 28 c 2
 258 329 l 2
 261 335 259 336 253 333 c 0
 226 317 194 304 146 304 c 0
 120 304 92 304 64 313 c 0
 51 317 45 333 45 347 c 0
 45 351 51 354 56 352 c 0
 86 341 106 339 134 339 c 0
 208 339 252 371 277 397 c 0
 291 412 306 420 326 420 c 2
 380 420 l 2
 395 420 402 415 402 405 c 0
 402 401 401 397 399 392 c 0
 393 376 388 361 382 345 c 0
 380 339 380 338 385 343 c 0
 435 398 501 432 551 432 c 0
 610 432 669 404 669 356 c 0
 669 328 663 295 638 250 c 0
 635 244 631 238 628 232 c 2
 568 125 l 2
 555 101 536 80 536 45 c 0
 536 31 545 21 562 21 c 0
 601 21 684 63 752 177 c 0
EndSplineSet
EndChar

StartChar: u1D4F8
Encoding: 120056 120056 91
Width: 868
Flags: HW
HStem: -14 35<357.292 459.365> 152 36<654.477 773.166> 178 35<62.8703 208.823> 397 35<505.765 602.139>
VStem: 221 115<41.9152 188.971> 539 140<212.415 310.58>
LayerCount: 2
Fore
SplineSet
612 339 m 0
 618 341 622 345 620 351 c 0
 613 374 594 397 564 397 c 0
 452 397 336 200 336 96 c 0
 336 57 356 21 399 21 c 0
 481 21 542 107 581 179 c 0
 584 185 583 190 578 194 c 0
 558 211 539 233 539 256 c 0
 539 303 573 329 612 339 c 0
778 209 m 0
 784 214 788 210 788 204 c 0
 788 190 784 175 772 168 c 0
 752 157 731 152 701 152 c 0
 681 152 663 154 647 158 c 0
 641 160 635 158 632 152 c 0
 601 92 560 53 515 23 c 0
 476 -3 434 -14 389 -14 c 0
 306 -14 221 18 221 108 c 0
 221 138 226 162 233 188 c 0
 235 194 233 197 227 194 c 0
 204 184 181 178 143 178 c 0
 117 178 92 182 65 192 c 0
 51 197 45 214 45 228 c 0
 45 233 51 235 56 233 c 0
 86 221 105 213 133 213 c 0
 220 213 265 271 287 299 c 0
 342 370 438 432 552 432 c 0
 621 432 679 382 679 314 c 0
 679 275 672 245 658 208 c 0
 656 202 656 197 662 194 c 0
 673 190 688 188 696 188 c 0
 725 188 750 188 778 209 c 0
EndSplineSet
EndChar

StartChar: u1D4F9
Encoding: 120057 120057 92
Width: 804
Flags: HW
HStem: -6 120<363.366 525.915> 334 35<72.044 242.221> 426 36<502.354 606.28> 430 20G<309.5 432>
VStem: 627 109<233.975 409.504>
LayerCount: 2
Fore
SplineSet
407 379 m 2
 405 373 406 372 411 377 c 0
 461 431 523 462 573 462 c 0
 680 462 736 417 736 338 c 0
 736 232 669 117 615 69 c 0
 610 65 610 61 616 58 c 0
 655 35 693 7 729 -28 c 0
 733 -32 735 -37 735 -41 c 0
 735 -51 721 -74 707 -60 c 0
 662 -17 620 13 583 32 c 0
 577 35 572 34 566 30 c 0
 521 1 474 -6 435 -6 c 0
 373 -6 341 22 341 50 c 0
 341 82 371 114 442 114 c 0
 467 114 495 108 517 102 c 0
 523 100 529 101 534 106 c 0
 559 130 581 173 595 207 c 0
 615 255 627 306 627 351 c 0
 627 401 600 426 552 426 c 0
 474 426 388 310 289 66 c 0
 286 60 284 54 282 48 c 2
 167 -258 l 2
 160 -277 147 -286 127 -286 c 2
 57 -286 l 2
 42 -286 35 -281 35 -271 c 0
 35 -267 36 -263 38 -258 c 2
 280 360 l 2
 282 366 281 367 275 364 c 0
 247 349 216 334 168 334 c 0
 142 334 114 334 86 343 c 0
 73 347 67 363 67 377 c 0
 67 381 73 384 78 382 c 0
 109 371 130 369 158 369 c 0
 231 369 276 401 300 427 c 0
 314 442 328 450 348 450 c 2
 402 450 l 2
 417 450 425 445 425 434 c 0
 425 430 424 427 422 422 c 2
 407 379 l 2
EndSplineSet
EndChar

StartChar: u1D4FA
Encoding: 120058 120058 93
Width: 928
Flags: HW
HStem: -14 36<304.385 385.538> 217 36<30.0436 200.025> 428 34<483.189 554.265> 430 20G<609.429 739>
VStem: 181 115<43.3826 171.827>
LayerCount: 2
Fore
SplineSet
565 367 m 0
 565 400 552 428 529 428 c 0
 485 428 418 369 361 267 c 0
 310 175 296 109 296 68 c 0
 296 37 319 22 336 22 c 0
 371 22 400 47 443 92 c 0
 508 160 565 283 565 367 c 0
767 114 m 0
 774 121 784 124 795 124 c 0
 803 124 820 122 811 111 c 0
 782 74 546 -174 476 -264 c 0
 464 -280 449 -288 429 -288 c 2
 364 -288 l 2
 349 -288 342 -283 342 -273 c 0
 342 -269 343 -265 345 -260 c 2
 456 32 l 2
 456 33 453 32 453 32 c 0
 413 2 373 -14 317 -14 c 0
 251 -14 181 32 181 116 c 0
 181 151 186 185 198 221 c 0
 200 227 198 229 192 227 c 0
 173 221 155 217 126 217 c 0
 100 217 72 217 44 227 c 0
 31 232 25 248 25 262 c 0
 25 266 31 269 36 267 c 0
 66 255 87 253 115 253 c 0
 182 253 221 279 248 303 c 0
 253 307 257 313 261 318 c 0
 330 401 437 462 516 462 c 0
 550 462 577 447 598 429 c 0
 603 425 607 425 610 431 c 2
 606 422 l 2
 614 440 628 450 648 450 c 2
 709 450 l 2
 724 450 731 445 731 435 c 0
 731 431 730 427 728 422 c 0
 661 249 571 14 508 -157 c 0
 506 -163 507 -164 512 -159 c 0
 574 -94 705 48 767 114 c 0
EndSplineSet
EndChar

StartChar: u1D4FB
Encoding: 120059 120059 94
Width: 713
Flags: HW
HStem: 256 35<516.141 629.501> 312 37<40.044 213.037> 415 20G<286 397.44 510.18 549.5>
LayerCount: 2
Fore
SplineSet
624 299 m 0
 629 301 633 299 633 295 c 0
 633 282 630 266 617 262 c 0
 603 258 588 256 572 256 c 0
 540 256 509 264 488 278 c 0
 482 282 477 282 472 278 c 0
 393 216 346 174 286 118 c 0
 281 113 277 108 275 102 c 2
 246 28 l 2
 239 9 225 0 205 0 c 2
 142 0 l 2
 127 0 120 5 120 15 c 0
 120 19 121 23 123 28 c 2
 244 331 l 2
 246 337 245 338 239 335 c 0
 212 320 184 312 136 312 c 0
 110 312 81 313 54 322 c 0
 40 327 35 343 35 357 c 0
 35 362 41 364 46 362 c 0
 76 351 98 349 126 349 c 0
 199 349 244 381 268 407 c 0
 282 422 296 430 316 431 c 2
 376 434 l 2
 377 434 378 434 379 434 c 0
 392 434 398 430 398 421 c 0
 398 417 396 412 394 407 c 2
 303 194 l 2
 300 188 302 187 307 191 c 0
 355 231 419 285 448 309 c 0
 456 316 452 325 452 336 c 0
 452 376 488 432 532 432 c 0
 567 432 587 420 587 392 c 0
 587 365 575 361 562 350 c 2
 522 316 l 2
 517 312 516 308 522 304 c 0
 538 293 560 291 578 291 c 0
 591 291 617 296 624 299 c 0
EndSplineSet
EndChar

StartChar: u1D4FC
Encoding: 120060 120060 95
Width: 427
Flags: HW
HStem: -14 35<132.927 227.296> 200 25<67 112.899> 447 20G<259 288.5>
VStem: 40 84<37.2801 116> 190 144<335.974 438.088> 274 124<70.2266 230.632>
LayerCount: 2
Fore
SplineSet
59 206 m 0
 59 215 65 225 75 227 c 0
 119 234 165 258 213 296 c 0
 218 300 219 305 215 310 c 0
 204 325 190 347 190 370 c 0
 190 451 247 467 271 467 c 0
 306 467 334 428 334 403 c 0
 334 375 325 348 300 320 c 0
 296 315 296 310 300 305 c 0
 338 263 398 226 398 156 c 0
 398 88 363 41 334 21 c 0
 296 -5 243 -14 188 -14 c 0
 128 -14 40 21 40 91 c 0
 40 141 67 169 100 169 c 0
 123 169 164 154 164 120 c 0
 164 76 124 89 124 62 c 0
 124 43 140 21 172 21 c 0
 251 21 274 92 274 178 c 0
 274 209 264 245 247 269 c 0
 243 274 238 274 233 270 c 0
 184 229 118 200 67 200 c 0
 63 200 59 203 59 206 c 0
EndSplineSet
EndChar

StartChar: u1D4FD
Encoding: 120061 120061 96
Width: 694
Flags: HW
HStem: -14 34<310.497 377.179> 147 39<55.4615 134.46> 378 50<218 304 441 568> 539 20G<363.214 491>
VStem: 196 110<21.9601 124.464>
LayerCount: 2
Fore
SplineSet
565 428 m 2
 573 428 581 422 581 416 c 0
 581 397 571 378 551 378 c 2
 433 378 l 2
 426 378 421 375 419 369 c 2
 333 137 l 2
 325 115 306 75 306 53 c 0
 306 38 316 20 338 20 c 0
 371 20 445 82 496 188 c 0
 503 201 521 210 535 210 c 0
 540 210 542 205 540 199 c 0
 483 67 416 -14 323 -14 c 0
 259 -14 196 19 196 68 c 0
 196 90 204 123 213 145 c 2
 246 226 l 2
 249 232 248 233 243 228 c 0
 197 183 120 155 63 148 c 0
 57 147 51 151 51 156 c 0
 51 171 60 187 75 189 c 0
 169 204 246 265 284 330 c 0
 287 336 291 342 293 348 c 2
 300 369 l 2
 302 375 301 378 294 378 c 2
 221 378 l 2
 213 378 205 384 205 390 c 0
 205 409 215 428 235 428 c 2
 310 428 l 2
 317 428 322 431 324 437 c 2
 360 531 l 2
 367 550 381 559 401 559 c 2
 461 559 l 2
 476 559 483 554 483 544 c 0
 483 540 482 536 480 531 c 2
 445 437 l 2
 443 431 444 428 451 428 c 2
 565 428 l 2
EndSplineSet
EndChar

StartChar: u1D4FE
Encoding: 120062 120062 97
Width: 813
Flags: HW
HStem: -11 35<284.813 377.188 569.055 652.086> 314 35<52.0436 221.316>
VStem: 177 105<34.9613 135.41>
LayerCount: 2
Fore
SplineSet
762 173 m 0
 768 187 786 196 801 196 c 0
 806 196 809 190 807 184 c 0
 756 55 691 -11 581 -11 c 0
 520 -11 492 30 478 76 c 0
 476 82 473 83 469 78 c 0
 434 31 389 -14 304 -14 c 0
 247 -14 177 29 177 92 c 0
 177 136 209 210 228 254 c 2
 264 339 l 2
 267 345 265 346 259 343 c 0
 231 327 196 314 148 314 c 0
 122 314 94 314 66 323 c 0
 53 327 47 343 47 357 c 0
 47 361 53 364 58 362 c 0
 88 351 109 349 137 349 c 0
 210 349 254 381 279 407 c 0
 293 422 308 430 328 430 c 2
 388 430 l 2
 403 430 410 425 410 415 c 0
 410 411 409 407 407 402 c 2
 306 141 l 2
 301 128 282 85 282 58 c 0
 282 32 297 21 319 21 c 0
 421 21 476 173 569 402 c 0
 577 421 590 430 610 430 c 2
 670 430 l 2
 685 430 692 425 692 415 c 0
 692 411 691 407 689 402 c 2
 597 159 l 2
 590 140 581 122 575 103 c 0
 570 87 565 69 565 57 c 0
 565 41 575 24 603 24 c 0
 634 24 712 60 762 173 c 0
EndSplineSet
EndChar

StartChar: u1D4FF
Encoding: 120063 120063 98
Width: 763
Flags: HW
HStem: -14 35<269.945 386.284> 147 35<573.529 678.88> 314 35<36.0432 205.274> 418 20G<521.498 566.13>
VStem: 159 106<28.023 132.545> 475 133<229.333 411.392>
LayerCount: 2
Fore
SplineSet
545 438 m 0
 587 438 608 398 608 345 c 0
 608 301 593 240 577 206 c 0
 567 185 613 182 627 182 c 0
 637 182 661 188 673 192 c 0
 678 194 683 191 683 187 c 0
 683 173 679 157 665 153 c 0
 650 149 635 147 626 147 c 0
 598 147 582 149 563 156 c 0
 557 158 552 157 549 151 c 0
 494 53 413 -14 302 -14 c 0
 235 -14 159 14 159 84 c 0
 159 130 195 216 216 265 c 2
 246 337 l 2
 249 343 247 344 241 341 c 0
 213 326 179 314 131 314 c 0
 105 314 77 314 50 323 c 0
 37 327 31 343 31 357 c 0
 31 361 37 364 42 362 c 0
 72 351 93 349 121 349 c 0
 194 349 239 381 263 407 c 0
 277 422 291 430 311 430 c 2
 369 430 l 2
 384 430 391 425 391 415 c 0
 391 411 390 407 388 402 c 2
 286 131 l 2
 278 111 265 80 265 56 c 0
 265 29 289 21 313 21 c 0
 397 21 467 86 513 167 c 0
 516 173 515 178 511 183 c 0
 487 210 482 243 478 277 c 0
 476 291 475 305 475 318 c 0
 475 387 498 438 545 438 c 0
EndSplineSet
EndChar

StartChar: u1D500
Encoding: 120064 120064 99
Width: 1034
Flags: HW
HStem: -14 35<271.963 356.984 562.94 672.655> 151 36<864.511 967.88> 318 35<45.0432 214.571> 414 20G<281.5 410 528.5 688 805 852.5>
VStem: 165 104<23.9803 124.28> 750 146<227.091 394.675>
LayerCount: 2
Fore
SplineSet
962 193 m 0
 967 194 972 192 972 188 c 0
 972 175 968 161 955 157 c 0
 940 153 924 151 915 151 c 0
 887 151 871 153 852 160 c 0
 846 162 841 161 838 155 c 0
 774 36 703 -14 589 -14 c 0
 530 -14 484 15 466 68 c 0
 464 74 460 75 456 70 c 0
 411 19 373 -14 292 -14 c 0
 235 -14 165 14 165 77 c 0
 165 114 177 151 201 210 c 2
 256 343 l 2
 259 349 257 350 251 347 c 0
 223 331 188 318 140 318 c 0
 114 318 86 318 59 327 c 0
 46 331 40 347 40 361 c 0
 40 365 46 368 51 366 c 0
 81 355 102 353 130 353 c 0
 203 353 248 385 272 411 c 0
 286 426 300 434 320 434 c 2
 380 434 l 2
 395 434 402 429 402 419 c 0
 402 415 401 411 399 406 c 2
 291 125 l 2
 281 99 269 70 269 50 c 0
 269 28 286 21 306 21 c 0
 393 21 482 177 559 406 c 0
 565 425 578 434 598 434 c 2
 658 434 l 2
 673 434 680 429 680 419 c 0
 680 415 679 411 677 406 c 2
 570 126 l 2
 561 102 556 81 556 59 c 0
 556 35 575 21 600 21 c 0
 687 21 760 92 799 171 c 0
 802 177 801 182 796 187 c 0
 769 215 750 247 750 288 c 0
 750 361 776 442 834 442 c 0
 871 442 896 399 896 355 c 0
 896 311 885 249 868 211 c 0
 859 190 902 187 916 187 c 0
 926 187 950 189 962 193 c 0
EndSplineSet
EndChar

StartChar: u1D501
Encoding: 120065 120065 100
Width: 752
Flags: HW
HStem: -11 35<118.738 215.212 402.885 498.835> 395 35<233.333 327.887 502.021 592.672>
VStem: 40 73<27.8652 104> 594 77<325 394.894>
LayerCount: 2
Fore
SplineSet
98 243 m 0
 88 230 68 222 52 222 c 0
 47 222 44 227 48 233 c 0
 147 384 220 430 309 430 c 0
 356 430 388 409 410 383 c 0
 414 378 418 377 423 382 c 0
 465 425 517 433 547 433 c 0
 614 433 671 403 671 345 c 0
 671 305 649 260 608 260 c 0
 583 260 550 274 550 308 c 0
 550 351 594 351 594 374 c 0
 594 388 574 398 552 398 c 0
 437 398 395 127 395 68 c 0
 395 44 408 24 435 24 c 0
 480 24 565 60 643 176 c 0
 651 188 671 196 685 196 c 0
 690 196 692 191 689 186 c 0
 654 114 602 59 549 25 c 0
 516 4 475 -11 423 -11 c 0
 380 -11 338 -3 311 36 c 0
 307 41 303 41 298 37 c 0
 254 0 212 -14 168 -14 c 0
 93 -14 40 28 40 83 c 0
 40 125 58 164 103 164 c 0
 127 164 162 150 162 116 c 0
 162 71 113 83 113 56 c 0
 113 39 134 21 162 21 c 0
 273 21 340 264 340 326 c 0
 340 367 328 395 293 395 c 0
 247 395 189 368 98 243 c 0
EndSplineSet
EndChar

StartChar: u1D502
Encoding: 120066 120066 101
Width: 791
Flags: HW
HStem: -290 35<218.277 299.994> -197 35<495.18 650.686> -133 35<247.787 383.978> -14 35<294.16 372.992> 324 35<68.0436 237.031> 420 20G<305.5 434 559.5 719>
VStem: 100 105<-245.982 -165.876> 183 107<23.0469 145.461> 599 120<387.919 440>
LayerCount: 2
Fore
SplineSet
205 -210 m 0
 205 -232 226 -255 258 -255 c 0
 299 -255 335 -211 365 -154 c 0
 368 -148 366 -144 360 -142 c 0
 344 -137 328 -133 313 -133 c 0
 263 -133 205 -165 205 -210 c 0
571 -162 m 0
 666 -162 697 -99 697 -131 c 0
 697 -145 694 -161 682 -168 c 0
 645 -190 601 -197 568 -197 c 0
 539 -197 510 -193 483 -187 c 0
 477 -185 471 -188 467 -193 c 0
 419 -261 335 -290 254 -290 c 0
 170 -290 100 -251 100 -213 c 0
 100 -167 157 -131 201 -113 c 0
 238 -98 291 -98 320 -98 c 0
 337 -98 358 -100 379 -103 c 0
 386 -104 390 -102 393 -96 c 0
 414 -48 430 1 444 37 c 0
 446 43 446 44 441 39 c 0
 407 6 372 -14 308 -14 c 0
 237 -14 183 18 183 81 c 0
 183 127 213 208 234 253 c 2
 279 351 l 2
 282 357 280 358 274 355 c 0
 246 339 212 324 164 324 c 0
 138 324 110 324 82 333 c 0
 69 337 63 353 63 367 c 0
 63 371 69 374 74 372 c 0
 104 361 125 359 153 359 c 0
 226 359 270 391 295 417 c 0
 309 432 324 440 344 440 c 2
 404 440 l 2
 418 440 426 436 426 426 c 0
 426 422 425 417 423 412 c 2
 314 150 l 2
 303 123 290 81 290 52 c 0
 290 37 302 21 323 21 c 0
 410 21 512 183 590 412 c 0
 596 431 609 440 629 440 c 2
 689 440 l 2
 704 440 711 435 711 425 c 0
 711 421 710 417 708 412 c 0
 645 244 566 32 498 -133 c 0
 495 -139 497 -144 503 -146 c 0
 525 -155 549 -162 571 -162 c 0
EndSplineSet
EndChar

StartChar: u1D503
Encoding: 120067 120067 102
Width: 772
Flags: HW
HStem: -14 21G<116.5 149.5> -11 42<416.5 543.87> 125 50<321.803 410.497> 187 36<45.2222 100.922> 276 54<257.297 422.732> 433 20G<174.5 217>
VStem: 132 137<344.976 435.223> 349 127<31.3585 87.8978> 378 132<71.0787 140.498> 662 38<163.457 199.842>
LayerCount: 2
Fore
SplineSet
653 182 m 0
 659 197 677 207 693 207 c 0
 698 207 701 200 699 194 c 0
 660 89 584 -11 447 -11 c 0
 386 -11 349 18 349 44 c 0
 349 76 378 87 378 112 c 0
 378 120 369 125 356 125 c 0
 326 125 302 106 257 66 c 0
 252 62 247 56 243 51 c 0
 207 0 165 -14 132 -14 c 0
 101 -14 84 4 84 22 c 0
 84 65 168 134 254 154 c 0
 260 156 266 158 271 163 c 0
 333 221 352 229 416 284 c 0
 421 288 420 290 414 288 c 0
 391 282 351 276 335 276 c 0
 302 276 261 284 240 290 c 0
 234 292 229 290 225 285 c 0
 181 225 123 199 52 188 c 0
 46 187 40 191 40 195 c 0
 40 209 48 224 62 228 c 0
 104 239 152 255 186 299 c 0
 190 304 190 308 184 312 c 0
 158 329 132 353 132 379 c 0
 132 424 153 453 196 453 c 0
 238 453 269 423 269 393 c 0
 269 378 264 369 259 354 c 0
 257 348 259 342 265 340 c 0
 291 332 331 330 355 330 c 0
 385 330 448 344 478 356 c 0
 484 359 490 362 494 367 c 0
 530 407 554 423 580 423 c 0
 604 423 616 406 616 387 c 0
 616 374 607 356 590 342 c 0
 570 325 536 312 498 302 c 0
 492 300 486 298 481 293 c 0
 429 245 399 227 347 179 c 0
 342 174 343 172 350 173 c 0
 360 174 370 175 377 175 c 0
 443 175 510 156 510 124 c 0
 510 97 476 59 476 43 c 0
 476 34 484 31 491 31 c 0
 525 31 612 83 653 182 c 0
EndSplineSet
EndChar

StartChar: uni2134
Encoding: 8500 8500 103
Width: 684
Flags: HW
HStem: -11 27<247.485 359.46> 161 27<546.665 655.347> 174 27<36.0255 146.522> 382 32<399.031 512.698>
VStem: 163 60<42.948 186.568> 471 85<207.57 316.283>
LayerCount: 2
Fore
SplineSet
541 215 m 0
 534 194 587 188 601 188 c 3
 626 188 642 191 659 203 c 0
 664 206 667 205 667 200 c 0
 667 188 664 174 653 169 c 0
 639 163 623 161 602 161 c 220
 583 161 561 163 539 174 c 0
 533 177 529 176 526 170 c 0
 468 41 389 -11 293 -11 c 3
 205 -11 163 48 163 127 c 3
 163 155 166 167 172 191 c 0
 174 197 172 199 167 195 c 0
 148 181 122 174 94 174 c 3
 76 174 60 177 43 184 c 0
 34 188 30 200 30 209 c 0
 30 212 33 213 37 212 c 0
 56 205 75 201 93 201 c 3
 147 201 183 235 207 274 c 0
 263 366 360 414 457 414 c 0
 525 414 556 366 556 301 c 0
 556 275 551 245 541 215 c 0
517 334 m 0
 523 336 526 341 524 347 c 0
 515 372 499 382 464 382 c 0
 336 382 223 204 223 91 c 3
 223 35 253 16 293 16 c 3
 360 16 440 52 497 188 c 0
 500 194 498 198 493 203 c 0
 479 217 471 238 471 255 c 3
 471 290 488 323 517 334 c 0
EndSplineSet
EndChar
